<mxfile host="app.diagrams.net" agent="Mozilla/5.0 (X11; Linux x86_64; rv:123.0) Gecko/20100101 Firefox/123.0" version="24.7.17">
  <diagram name="Page-1" id="PQiuPbqkhmXhJyxy0e5J">
    <mxGraphModel dx="2168" dy="1166" grid="1" gridSize="10" guides="1" tooltips="1" connect="1" arrows="1" fold="1" page="1" pageScale="1" pageWidth="850" pageHeight="1100" math="0" shadow="0">
      <root>
        <mxCell id="0" />
        <mxCell id="1" parent="0" />
        <mxCell id="yoGOYHYGS6dNkPqLL8fJ-1" value="" style="shape=image;verticalLabelPosition=bottom;labelBackgroundColor=default;verticalAlign=top;aspect=fixed;imageAspect=0;image=data:image/png,iVBORw0KGgoAAAANSUhEUgAAB2MAAAO6CAYAAACi2fxsAAAAAXNSR0IArs4c6QAAAARnQU1BAACxjwv8YQUAAAAJcEhZcwAADsMAAA7DAcdvqGQAAP+lSURBVHhe7N0HYBRl+sfxJwmEEloADQgRBUEsgAUboqJix4IeYuMOQU+wYAMLWFARPcUCFtQTxT+WwwKiWA6xIzYUwVOwgEJQQEooCYFAkv/+3p0Jm7ApJLvJJvl+dJjZd8ruzm52Z+eZ53njxr35dZ7lmeNP5OV5DeJN5+bmWt62LbZtc6blbsu2vJxtlqe2wBBOXJw3EUmhGw15jAUerycuKg8geqrU463AxxqzeyVux/dcqPjYfeRFqmp/M2Wl5xnuMyNUrO+L0j660KdZ8CnF+POv9LuP0gPQZgO7vqT3X0mq499qLD2nIj/e/YdY0stX/V6eAqrh2y+iovb5UdlK+/6v6qL98lX1/cf+2UFuyD7Js+DvYv97RLM05OXl5k/rMzQvLj4wJTomdUu4Y7bAreD3ofugjXNby9HcwDxtQevlxdeyvIR4y4mPt62BXxzZgUU35+bZlsDCWdvybGtgvHWb2bbAioG7DQzaamD9wD9b3TYCn1Le49MoOK3786eDMzWt1njvQ9897uAsPVo39mYFeDO87fjj/NmlFHh23lTA9o17NM8fts/TZ6773A38nxd4kvrPn+u3a5+qze2PwOp6PdQQ2IXB5xXYy3l5bk8HhsC8gPjAzISEBDfUrh0Y1wou75YILKL9GxznWM623MA4N/g6BV7P4Nhtxi2vO3Ovc+DONM51OzLwmNSm5bVIsCkoMD+4XuBf1x74xz0392C1Zv4sre9GuuHu1N/Idt4i7vkHF9RY/+i+AxPeAu5f3XS3AkKn3X1uX9a1e4/T32Sw1Zsf2pb/ALxxQPBYOPR24YnApB5fyO385b0m/7H7Wym8Tcdrc/9668mO292+7o7H6QXn53OLFd5OkL8N/RsfukiIHe+ntMI/nh22pv2tJ+2Pd1LBrfuC9xv889Q//uMI2X6hFb2/vuANX+H1A49v+1LB2/7jDl3fWzrwj/vXW07jwOCNQyYD/2xfO/ixq6nt3DKi7fjblJDJoMDjcC/k9vWD53v89fQ4A5/S+dOB/+IDQ+C2PkM1rhW4rafkHoa/fW9zei/k6ANF/+fmBIbAjMC02oPv8+D9BT/LgivrXoLvoeBt/XmLP1/y32KB9fIsIWSePvMCo8CHgn8fcYH5wcX1OP1tan5g0HzveyvwjNzYv6eEwAdj4KkFdmHgHuJyA1sJ7Ie8wLdN7larlZBr9erUsqQ6Zk0bJgTG8Va3bu3AFgIfoDlbA1sNfIvpNY7X5+i2wH3ofoKPW9uOj0vw9kngdlyiu0+3M4LfjMFBr11g7H+uu7eEWyywx9zzCHyzBDboPaUiBfdl2em+Cm8jXFvlCb8D/EcXrcfpb7WE3Z+/XNTEzOsQ3s7s/+D7OnqvWVlE/bG4v/PilPQO8/eZG4XwG0pavySx81qUpPA+CH7+l/f5R44eT0ki/XhLc5+FxQW+n+IC339xgR8I8bVqW0KdJLPadQLt3ndl6JeONx3aFjfuja/dvfp3nv9H5I1zc7bZ1sz1lrM5I/BdrS+9/FkhdmiIigJPppqpMs+tgh5nuHupqC8bvRYl3lcJXwYlBWNj8tWuxPdgxd11TO75HZS4P8r7p1DC+zfaX8aV+FYrpeg8wNJ+zpf0+VP1vgtLesPGzvNxu7aIh1vV9nqRqs0TiU2x9GMmovynVd7vn1gX7Zevqu+/yn57V/L+C7374LTXkr9fArdDmvR5EJylEx2Bf100LMD9UNfJcW9FrRM4NnPf/27FeHcyeVvghgvjBm7nBH7058YHhsA4J/BltS2wWHZg8c05uW7Izo23zVtzbFtunOXk5FlOXrwlePej/xQEzM7Lyb/P4KGgd/9aInDfwUcbmOE/DDdPN7w5Wif0izIwmb9OAcE1g/+WTnCzwe2EP87RvND78ZYJjNxz0Tr+8VP+Yv46wWUVRNBiwUVzLSd3W2Cc427HJwT2f26uxdeKs4SEWlardmBISMgP2GpQfCSwq22rgq/btlnOtjzXpsCJhrjA6+OCroFhe/g9+Ai0XP7twDbco9I/rl2j4DzRa+HOzXgL6Wm5uW75wFTwhQiu49q824GRH2x364dwt3S/oc1uOV/wPSDBCwTchDcK3g5uc/s8NzfwT3Apj3cj/37chL+ONw4IPj89B3+FQvPchHe/odvw+YsEhuB7WcsFx0Xy5+ev6zdo24HpkMfg8x9n/p14dF+Fl97x/oMNpX58+Y+nKDs+vlDbt1/ccsF3mhYNNy5+pq/ADfe3IW6fFNpPO/4tBz9nCmy6wCJuIwXnq7mw/JVClwxpdtvR51/w/oK3A/9684OjwL/5j1fLBZd3y7h2TWxvd22BwdtEYByy7YD4BH9O8J0V3IQ+8/2ArJsMjAO3XQAz2OYGraUdGBjcSJ8pmg58Jrn2wO38r4/Af27TGmtd909g2n9yjr98cHtOXC39ExjUoMcenJH/9xVYP7gJf46WUiBWQ3AN3U/gkefPV6u/U9VaKyHeagf2Q63Ak8/L3Wq5OVsC30OB9rht1qhenDVKqh0Y6lm9uglWOz4vsA8Cy+RuCXxnbbF4fRYnmFteDzpOH5qBbWvrgS0G/g3M9F8LLzCuC2ncQ9B/bv0Et9/1lDTEK0qsR6bFtWBxgguVnV7IwtsI1xYlJd9L8HUqzF8v+D6o2aryPijpsYd+Fpf2eZZlnbIrfvv6Gy9e8LGGP36U0OfiTeRTQ1HrlVa090/khHspi9xtnqi//J6SX+co2dm7DdlfwW8pT+C7PaFuA0uo3zhwTKDvLe1bb7439m/HjX3jq/y7zf8DC4w1X0HY7Ix1gZvBb/7MDett1fJl9peGP9PcdEagDQAAAAAAAAAAAACqm6RGjW2XFq1tl90CQ4tW1rxla0tq2NjNU8ZsrfqNrVZSk+DtQgFZccHY0CCsKBs2e8Mqy8ne7G7/8fuv9um701zwFQAAAAAAAAAAAABqql1atrJuJ55lu7Vp624nJNa1Wo12CZslG/fwtC+DEVgvEJuzdYttWbfS/JLEX7z/tn39yXtuGgAAAAAAAAAAAABgdvBRPe3QY09x0wrE1m6SYvG11O/59oBsMBgbkhG7ee2flhcYr1i2xD5993U3BgAAAAAAAAAAAAAUlNJqdzvypDMtpfUewYBscssCGbJ+b+aBUZ5tWf+XC8QuT/vdXnl6LIFYAAAAAAAAAAAAACjCyj+W2pRnHrGVy353ia/bNqxycVfRON5NBP7btmm95WZvdrHZT/87zS0AAAAAAAAAAAAAACjeZy6+mmc52ZstZ9N6Ny3xCsTm5eRYdsY6F4j98sN3bCUZsQAAAAAAAAAAAABQKsqQ/erDdwNTebY1c53l5uS4aZcZq4a83Fz7c8ki+/qT99QEAAAAAAAAAAAAACilbz6daX8uWWyWl2vbMpUdaxb34JTP8rJWpblg7OSnHrRVy5e5GQAAAKgZ6tSpY40bN7akpCSrW7eu1apVy5sDAAAAVD/btm2zzZs3W2Zmpq1fv962bNnizQEAACi/5i1bWZ9Lr7W4uASrs0uqxedu3eICsZkb1xOIBQAAqEEUhE1NTbUOHTpYSkqKNWjQgEAsAAAAqj0d8+rYV8fAOhbWMbGOjQEAACJh9fI/LHPDBsvLy7Hc7M0Wd+/EN/K2ZW2033/+0aa/NMFbDAAAANVZ06ZNrVWrVt4ts3Xr1rnxxo0bXaYAAAAAUB35Fx+qIky9evVcUNb3xx9/2Nq1a71bAAAAZXfqeQOsTft9rVb9hhafm7PVNf5FViwAAECNsOuuu+YHYlWeLS0tzdLT091AIBYAAADVmY53NWRkZNiqVavcsbB/YaKOkXWsDAAAUF5+3DV321aL1z95eXmUKAYAAKgBlBGrcmyik07Lly8nAAsAAIAaS8fCuijRD8jqWFnHzAAAAOWhUsWKv7pgrOXlukaCsQAAANWb+sHyM2J1skknnQAAAABYgYCsjpnpQxYAAJTHqhVe3DUv1+LzcoPB2IwN690YAAAA1ZNfck2liQnEAgAAAAXpGFnli4VyxQAAoDwyvbir4rDxbgoAAADVmq7sb9KkiZtW31gAAAAAduRftKhjZ7JjAQBAJFSJYGxc60627dJHrdapV5nVSvRaAQAAUFqNGzd2Y13pTx+xAAAAQHg6VlYlGfGPoQEAAMojPi7OTEMsikuoZdlHDbDlPa+31ZmJVv/sqy3pzv9awilXmtUPZnYAAACgZElJSW6clZXlxgAAAADC8/uO9Y+hAQAAyiNu1Pjn8zTx6B1DXUOsUCB247FXWEabQ3RJmln2Futw3HHe3KBNbz5l22Y+FZigv1sAAIDi7LPPPlarVi1LS0sjMxZApdh9993t6KOPduP69etbfHy85eXlueyjP//802bPnm0LFizwlgYAoPLouDk1NdUdN9fE76aEhAS7/vrr7cgjj3TT0aBjgC+//NLuuecey8nJ8Vqjg+ez8yry+QBAdTbolvvdOOG4XmeP1MRXH89wDbFAgdjlF0+07CatAp/8asm1wKe+NdtjTzffV7vDwVbn5H/atg5HWd7X0wKL8cUAAAAQTsuWLd147dq1bgwAFSU5Odn69OljJ510ku26666WmJhoW7dudUNubq673axZM+vSpYvtv//+tnz5clu/ngtuAQCVRxcMqUSxxn/99ZfXWjMouHfTTTdZt27dohbok7i4OGvVqpXtueee9tlnn7ngXzRUx+cT7UCs6Pnstttu7vnogrloPR8AqO66Hn2iG8dcZmxcnQa2/KLx3q2AXA3bzLZssQ7HHh9sC2PrJ69Y1gvDvVsAAAAI1alTJzf+7bff3BgAKoKyYM8991xr2rSpy4D94Ycf7NNPPy1wYrtOnTp2+OGH2xFHHGGNGjVyy7333nv2+eefe0sAAFDxFISS77//3o1rigMPPNAFL0tbojkzM9Puvfdemzt3rtdSOv79SFnWLy3up6DSrl9RzydUvXr1bOjQoXbooYe6YHA4Cgp/9dVXNmbMmB264Clufa2n5/Dggw/mlyEHgIrgZ8bG65/c3Ni4siWuTpItv3B8MBvWH/SPm84r0Fx4qHVkn8C/AAAAAIBYoGyKvn37ukCsyhA/8cQT9tprr+2QYbRlyxb7+OOP7aGHHnInyZQp27NnT5clCwAAgOrPz/gtLhArmqdlFHRV8NVX0vpqU4D5yiuvjGpGMQAUlpenjFMvGBsL4pq0tOUXKBCbV8wQWLCoIWaeCQAACNWuXTsbOXKkG1dHdevWdQEDjQEAQSrrePzxx7sSxcuWLbOJEyeWWOZRQdlXXnnF9U+mbNkTTzzRrQ8AAIDqrXPnzq6a06ZNm+zWW2+1Xr16hR00T8voN3jHjh29tUte319Py2hZAKho0QlhxicEh1LKa7W/LT/r3sBEXpjBLREcvFGRQzVw7LHH2ksvvWTPP/+8HXLIIV5rsLzXM888Y1OnTrUzzzzTa0VhRe0nXfF0xx132BtvvGE333yz14pwqsJ7bciQIfb666/b/fffbw0bNvRaAcQiBWCHDx9uXbt2tRtuuCG/39LqQgHYY445xv2g05iALAAE7bfffta2bVvbsGGDTZ8+3TIyMrw5Jfvwww9txYoVrh9Z9YcGAAAAABXtsMMOs/vuu88mT57sftPszKB1tK7Oh6Fk/n4rr0htJxoiH4yt29BW3DDDDbl7HOw1Fi2n43G2suew8MFVNwT+KTAuZohB48aNy38DFDVoGd++++7rgktNmjSp9lfp7Oy+KQ+dCGrTpo27Qr99+/Yu4FgVqZzGqFGj7D//+Y8LLPv7SeXennrqKTvhhBO8Jasv9Vmy9957W61atdzruNdee3lzAMQaPxCbkpJiGzdutBdffNGWL1/uza0e1K+hnlNubq4LGhCQBYAgBWOV3bpw4UJbunSp11o6CtwqOzYnJ8cdx9evX9+bAwAAAADRp0Q5ZVQrXlPaPrRDaR2tq0pxBGRLT7GOsirPutEUp//iIhyMzWu6u6245nXvltlf591n6/o9UmSW7ObD/26rDvt7YCpcZHX7UG/Vr5by+rCCCbNhhurgxx9/dCes1ZH4/PnzvVaU1+LFi23JkiXuZPkvv/yywwmhww8/3B544AH717/+5bXEFmX2Xn311Xb77bfbAQccYA0aNHCBZZ9OdKlPrqoaZC6suNcjMzPTfvrpJ9u2bZt7HX/99VdvDoBYokDsTTfdlB+IVT+B6g+wOtL39YIFC1zQgIAsAJi7sFTHprpgRZ+PZaFjdv0m0rZSU1O91upBx/b9+vWzJ598stQX4FbUOrFKJaufe+4591x0gSoAAAAQTX369HHjWbNm2eWXX75D6euSBq2jdeXcc891YxRN+8xXlqBq6Dqh24olEQ3Grj91qJn6og0ZNrfc19Zd8JDlJrfWIvk2H3aRretwbPioasjQ/Kv/s8b/vcfitmYF1gq0FTvELl3ZHfrHGDqo5KpPJbnOP/98u+iii+zrr7/2Wqu30u6b8tAJcgUyzzjjDLvnnnu81u105b6yLUM7fo8lF154oR133HEuAKsTWrfcckv+PlIp4dGjR9vcuXMtOzvbW6NqK+n1UMb0WWedZcOGDXNBHgCxxQ/EqiRxdQ/E+gjIAsB2CqDqOE7B2PT0dK915ygQu379elcNpXnz5l5r1adqPfpdcuqpp1rt2rW91uJV1DoAAAAAglq1auXGL7zwwk5X+hGtowpx0rp1wdgYwlOsw7czAdmqEIiViAZjG306MfDvjkHSzbvtaxtOvcFy2xxkFhdvWQeda+vaHqUImVluYJkdV3FDi2nDrdbCDwM3PGGWKTAA1ZDKVitTVFe2/+9//3MBju+++86bGww0z54925VNmDRpktcKAJWjJgZifYUDsj169HCVDACgplHwT8euWVlZ9tdff3mtO2/r1q3uYsTqcHGLTuZce+21dtddd1mHDh0sTnWqSlBR61QFM2bMsH/84x922WWXuYtQAQAAgGhq3LixG6elpblxWfhB3EaNGrkxSrazAdmqEoiViAZj45fOs13+c8MO2bF+huxffe6zVZe+aOvbdDPbstlsW3ZgngKygQVCsmHrrvrVWky+0mx9oX7lQgOv4QagGkpOTs4/AbVo0SJ3kh8AYpECsddff32NDMT6QgOyTZs2te7duxOQBVBj6Ri2PFmtCiSqmxFl2FZluhL+5ptvtsMOO8wFqdU1jQLVxamodQAAAKoD/Rb/5ptv3PGnLkpTgCZ0UJsqt2g5DQBiV2kDsqHzYj0QKxENxlpejiUs/dZ2efkG3Qg75DRqZpa6l1mtWmZbtpht2+oFZIPzG//8gTV5926z7MzA7YJC4rVhh+pA/d9MnjzZDTvbF47K2I4dO9Zef/1190acNm2a61Ond+/e7sd4daEvzsGDB9vzzz9vb7zxhnuuL7/8st1www3FdqatzFEtq7FP5W7Vpn0kbdu2dbc1lOU1iAb1jZrnvcEV6CjLaxnp90ZZtqd2zX/qqadsypQpbj29fnodFbxRBnBpX4+BAwe6Ni0fTrj7evPNN+0///mPO/jSdsMJfY/ofXbllVe6dbSuHqv6qaLGPxCeH4hV39U1NRDrIyALoKZTaWIFARMTE8v8+Ve/fn13UaI+Szds2OC1Vl0KKP/www92xx13uGNo//i+OBW1DgAAQFWnY8YHHnjAdfsX7vhHbV999ZXde++9JLoAVUBJAdnQtqoQiJXIBmM9+QFZfe6FG2rXMUvZ3axR02CG7NbswCfmVtt15hir99XzgQWKEG5boUMNpcDToEGDXP+qOhmuL5TMzEwXxFOZqv79+7sT5GUJusUaPT99sZ522mmuVMCWLVvcc1VfUkcffbQLnqmUWWnpJJHW13ZE+0y3NWzatCkmvpz//PNPd1JfBw3qS/Xqq68usi/VwiL93ijr9lJTU+3BBx+0AQMG2G677eba/P2u11HPSyfbIvF6pKSk2H333bfDfWnbOqmngK7mq6/doujx33333XbSSSe5aa2r/a+yo+q/95JLLvGWrBr0HEaMGOECyrpwoajnHrrcq6++Wuxyw4cPd0F4LUeAGgRid0RAFkBNtnr1ahdA1bHX3nvv7bXuHH236DgxIyPDli1b5rWWzimnnOK679DJNmVH6Ljw3//+t7300ktueOyxx+zss892xzSFHXzwwe44UOvrojwtrwv8/va3v7nl77zzTtc+bNgwb42CdIGhjjXVP9T555/v2vT4hw4d6i4K/Pnnn11bSSpqndLo3LmzPfPMM/boo4+60sf6PfLss8+6/TBx4kR3bKz9rP1zwQUX5O9r9a+l3wDK1A1H+1r92mpbWl7b07S2v+uuu3pLBYU+htA+t0Jfa60T+th0/3otO3Xq5C0NAACqM/3+HjVqlJ1++ukuOBM6qE3zSnNuEUBsCA2yhgZfq2IgVuKjdaFswtK5JQRk65o1380spY3VXbHQWky5zuJXLAjMwM4655xz7OSTT3YBLP3oV2Ckb9++bqzAi75kDj30UOvZs6e3RtWkH/fqI0gn+3Vy5/HHH7c+ffq456qxnqtKY+5MKbQbb7zRrf/222+726rjrtsaLr744pgpW/H000/bL7/84vaBslIV6ChNVmuk3xtl2Z5OSF1zzTXuhJoCqlov9HXTgdBvv/3mli3v66H9oYCQTvoVvi89Rj2OxYsXW506dVzbIYcc4q1ZkE7Y6GTOQw895NbXunpsK1eudPeh56igb1XRrVs369Kli7tQQSdFTz311B1OcIleW50U8/tmO+OMM/ID2qH0HtRy2hdaTkHrcMuhZtDFFvrb0mez/u6UhaPPaF34EIlB262qCgdkjzrqKPoJAVBj6PNPJYb9i+52ho5FDjjgAHfM9scff7hM27LQdm655RY7/vjj3cV1Og5ct26d+0zWMZ76Vg09ntYFnwrmqYrK+vXrXRchum9V39lzzz3d5/mcOXPcBYNt2rQpEBT06fnusssu7n6++OILr7V60P689NJL3fezjosVdNdrpP2rdl2wqZMh+q2wZMkS1+evjhEVrNU6oRRcveKKK6xjx45uf+r3gPrj0kW2RxxxhNuWfkeUlh6bXruuXbu6x6Vt6f2n3yC6mFRBZAAAAABVS+GAbFUNxCoOG5XMWF/8qkVmfywO3lNRQ1LgB1arvSxvWzATrliBxYsdYpiuBvbfLKHD1KlTi83QK4kCQn7g67XXXnPBJ50kEI3/7//+z/73v/+5gIlOAsei0u4bPc+99trLld5Sudh33nnHm7P9uc6cOdP96K5udDJHV+F//vnn7mSFMjRVqldXhxcVlI30e6Os2zvxxBPdSZDs7Gx3xXvoevLll1+6q/f9Ds3Lw3+PFHVfOgGnq+OVbayAiK6KC0dZsLrC/oMPPvBazBYuXOgCztq2Av460QPArF+/fu4EtSjYr9v6m47U8I9//MNtu6Lo4gWdoI/UoItD1OehKBihCyMAoCb49ttvXcBOx036kaxgWWnps7h9+/YuK1bl5MpKF2o2adLEdW2h4J4qgKi7E/3OUKBQAcFjjjnGLavA37HHHuuCgW+99ZaruKPlL7/8clcRRM9Hvv/+e3fRkbZ70EEHubZQOkZUFRsFA/0LDqsLfY+p9LRKIN90001uH/33v/91v7/0m077Y8aMGa5d87XcX3/95fbtkUce6W0lSOvo+H/MmDEukKt9rGzje+65xwXAdbGXLv4rLS2v+9FvJm0ndFv67eS/zgAAAFVZuHPo5RmAqiBc0LUqBWJ9UQvG5jXc1VaedrfZpo1mv8wvGDQtNGxuua+t7/OAbUstvn/OwnHcwkNNdPjhh7srr9euXVvkldfKqNSPXS0XLhuuqtCPcf3410kNBV3DmT17titJWx0pIKtA4nXXXedOAvlBWZVd0wkmXVUeKtLvjbJuTydmdFJLgVplzEWTMlb1HlEWg/p5DUcnBf3+I1RaOVxGp04a6b1UmN57KsGq56OMiqpCz2XevHnutVHmojKP9RwLe/fdd+2bb75xy+miB5UrVuC6MAWptZwC3VpOJ+HCLYeaQe8B/T1VF/r7rl27dkSH0ACEH5gFgOpOgdSPPvrIZaTqwhRdQFiagKyCdqrCoWWVhaqL6cpDgVVd/BdKF9gpc1fHjX4JXZVE1kWFCtIWLousLM/333/fTet48KeffnLfF8qCDaXjX//CwML3WR3o2E/7ITTIrN9lCnhqfygArYs2fVrOD2IXPubWb4ORI0e6Y8pQP/74o8uGVsZtuMzjouh4ZPLkye73iE/b8u/fv3AMAAAAACpDVIKxW1MPspWn3hXYeoJZ7USzuDyzX+aZbckKH0UNDJtb7mOrz77Xtrbr7m0ljMCixQ4xTD/GFa0vPOikhPpdLCtdaa4Tvfrhr7K94a5wUTlWnczQcjrBEGtKu29atGjhxjoZEprtGEqBQp3wqc50Qurmm2/OD8pqX6hMmkqwKYvAF+n3Rlm2p/KiWk/BvdATI9GiILAU9x6RVatWuWC2+m8MV254+fLlLuhamE7yaLt6jjp5V1XoMSuQr7LDKrlc1GdO6HLqF6245UaPHu0y17WcTmii5lKG/ty5cwNf5Xnu5LP6aAv3mV7WQdmxFemTTz5xWfWRGhRI0Il9UWBCJ4YBoKZQgFMVXHTspAsrVUa2qP47lXWp6grqA1THWcqILeoCzNJSkPC7777zbhWkC9X0+ayLG5VRqeM/v+yujoV0IWJR9PtFvzmUjRka5Nt///3dBXsrVqxwF/9VNzo+Lvw9psC1vt9E/dQWPobWBYDaz3oPhKP3hSr+KItWvzHUB23hIHdpqKy0guSFKbCr+1f1Dv0uAQAA1ZeOO3V+VAkahc9Zqk3zwlUXrErCnTcpzwBUBfobLixcW6yLeDB2876n2ppulwVvxAU2n1DLrJYXkF36k8VvyQwfSPWGNafdaul/e8jy4sJ9MIZZocBQcymwpIzQ4gZlxGm5qq66B1tLyw/KPvbYY+6kh0qlqSRm4b6VIv3eKMv2FLxTObeKUtJ7RCXRFDQCUH7K2n/wwQddQFYXYpx99tl20UUXeXNrNvVPp7LE2i86UT1r1ix3oh8AagIFJpXh6ldI0eefLpw7//zz7bbbbrOrrrrKLr74YheAVd+t6vd/n332cf2NqjsSVejQBX3loWNSBVnD8as66AJCBY11vKqsTgUPlcWpwPH48ePtwgsv3OGiRQVaFXDVeqHl5/2KMPpODHdhX6xR5umjjz7qLqQqPNx7773eUttpH+nixKKE+z1RVPUMBbHvu+8+Gzp0qJ1wwgkuo1iBcF00qWOLnaXHFe471r9/vS6xeGEyAACIDAVZdZ5Ux2PhKlKpTfO0TFUPyAI1SWjQtfBFBFUtIBuvj6ZIVczb0q67rdv/zJDYqDbsBWRrJ1rzL5+yXZ7sY/V+/nj7MmGGLS33tXVn32/bWh8QaAgRZtkCQw2m4NIFF1zgMhOLGtR3T3UoJVrcF6auuK5pJSDfe+89V15WJ6tUdrdwueJIvzeqwntN/XQVRyfYFBzRPqtO5VWBylI4IHvOOee4E+w1WbhArKo3AEBNoGMtZbjqmEzZigruPfzww+64VdmqCrqpP1f1C6sArIK0CsIqG/ahhx6yzz77zNtS9Ol4UEFGUdUZBYaff/5517WFLnY8/fTT3WM68MDtXepo+fnz57vfHX67govKlNWFidpOVaAApkoJq4uPwoOO+aNFF48qG1b7SxeY3n///S7orTb19Vre0tQAAISTlJTkKi/p5H00Bm1b94HK0blzZ1eBRRfj3XrrrQWyPzWoTfO0jJYFEPv02eoLDcKGTocuE+simhm7qc0RZgpshA4Bddb8ZinTb7Zaq3+1uLwca/Tff1njmQ/tuGzIoIDs6rPuta2ttl9pHDYAGzrUQDrBqyuQVV6rcBCuuvGvwlbp26LoB31NPPBRIEQnhXTFt99Xa6TfG2XZnk626XVTMEJ9hUWbn32rss3FBe118k+PScvT1ykQGX5AVtlP+ixSiceaGpAlEAugJlM3EGeddZYrO6wStlOnTnUBTw0ffvihC7zdeeed9vTTT9uzzz7ryt2r+wOdwHz99dfd52ak6PuocNUYn0rWar7uLzR7VsfU+kF/zTXX2O233+66v/BLKIeWuf3iiy/cd5+OK3VsfMghh7jgrQKJ+i6sCpRJ+sADD9iIESN2GFQyOFp0rK79puzhSZMm7dBvrN5DAAAAAGquogKxvqoYkI1oMLbxV89Z4aBqw18/sOQPx1jc1u1lQxWQrbvwPWs29cZgELWYYc2Z91j6mfdaXlx84U3vMNRE+qGvq68bNWrkyoBVZ+qDSFmM7dq1K9A3qk/Btx49erj+gMpKV+n7wcxYccABB9jw4cPD9m3qU4kxnUxSRoH6RZJIvzfKsj2dYPnhhx/c66asgXCvW3F29vVQVp4CxnqPKIshHO1HnSwT9WOrUnQAIkMnpf/1r3/V6ICsTsjrc1uBWH0GEogFUJPo2K13797u2FQX5RUVXNUxq4KWOhb79ddfIxqADaWLCMNlPuh41m9XFmhR9PtDWb3qAkOBVmX8+pRRqkGBw4MOOsiVZdZxqPqTRfF0Aa36BVa3IYVfe13QFGu/xwAAAABUnJICsb6qFpCNaDA2PuMv2/Xd271bZs0/HWtJc1/2bhWkgGztP+ZZs9cVkA0TWQ0ZtqTsa+kn3xaYDqxY3FADKdClAJQoQKbysKElWhWgVB88ugJdJ4erMpUr0wltXd1+6aWXujr/Pp0cufHGG13ATydBdpZOAmg9XfWuUmmxROXPlGE1btw413fVvvvu680xd6JC/W0df/zxbjmdzPLLokX6vVHW7amEsgKeet0GDx7slgnVvXt3VyokNOO5rK/HjBkz3Ak1ndxRf2QqlRqaIdu2bVt3pb9OpOkxKVMDQGQVDsieeeaZ9s9//tObW70pEKuT+3reCsT631sAUBOou5Bzzz3XHbspEPvCCy9UegUSHasqOKxyyD71G3rZZZe5gLG+sz799FPXruNEPX4FakPpQk8dZ6vaS+F+YJXRqWNW/QZp0aKFO75Uf7IoXlpamgvEqs/d0N8N+m3Tv39/1w4AAABUJr8CY3FVOkvir+tvCyUrbSDWV5UCshENxooCsi2mXGktXh1stVYu9FqLtj0gG7hR5JBn2c07BCYQjkp86aptnfw9+eST7aWXXrLJkye74bXXXnMBPJ1siFUKquoPJdyg5+D3w7RgwQKbMmWKOxGifqUUVHv55ZfdMhMnTnTb+eSTT8p04nvOnDnuZIxOtqifKG3zueeey7/vyqTApPo0UPllBTLvu+++/P2jsm4nnXSSy8D6/fff3X7w+7ySSL83yrI9BUefeOIJW7NmjQuuahktq3VeeeUVF0RXH1uhyvp66ASZSqqpjyvtL2Xk6T60vt4r6qtMJ9r0HtFjKi4TAkDZ+QFZfV7ogohTTz212gdkCcQCqOlOO+001y2FskjfeeedmOgKQuWHdZHeyJEjXSn9e++918aPH28HH3ywCwa++eab7rtKlOGq41vN10WQd999txtffvnl7lhb/dkqEzaUAq8rVqxwmZ668FC/VwoHbLEj7ScN+s7UBZTaz7qgc8yYMe53XuH9DAAAAFQ0dbkiF1xwQZliKwrEal3xt4XiKd7hK00g1ldVArLxeS7aGWG524NBpVH7z/nWbFpRGbKBBTToH3+6qKGG0knvG264wZ5//nnX74+u3FYgSleCK3D53XffuQCexlXdtGnT3A91nTTRVegK1unq9pUrV9qjjz7qgrVloaCcgn2rVq1yV/Vru+rXyu+ntjKpfJtOAimAqSCjThyJSv/qZJeCsArKKshZOLgY6fdGWbenE1Va77333nPb0AktracgjU6SKWDql1eW8rweWvf66693+8tfX/elsnm6CkmPQY+FrAUguvS3rv7/akJAlkAsgJpOlU7UDYTfL6yqI8QClUNWn6g6nlZXFXvssYf7rNbxogKAb7/9trekuaCqKsHo+FoBQXV7oQsJdYyqCxJ10WNh+sxXVRodl+sCSkoUl44uHn3qqadcv7v6baOMWFWuUcasXhcdQwAAAACVSeerRb91lNTjJ0eVdlDCkNYVJQqheNpnvp0JxPpiPiAb+M0Yd9fjk1wY87E7h7m2ypTTaDdbdf7T3i1PXm5gxrbAL+lM22P/rl5jeJtv2tubAgAAsUBl5FWKXH3A6eS8Mmar00lWZUIdc8wxrqzl+vXr7fPPP4/ZQGynTp3cmIwjAJGkvlJVClgX282ePdt1UVHZTjnlFHcVugKpN910k9caHf369XMXHM2fP9/uuecerxUAUB34Vbz87qBqClUl0/enLmwvjczMTFd9wu/aqrT8+5GyrF9aO/t8yqus+6O0yrvfSrt+Rb0+Pl3EffPNN7vKh0r+KI4uAFTVEl10pwvppDTr6wI6XTynY7bQyoJAUXTBqboyUZbrzn6G6MJNJVYpqKsqkCieH0AtSyA2VKS2E0mDRtznxhEvU1weCRv+tJSnAjupcMarGwL/FDNs+3hCYCEAABBL/AxZZatXt0Cs6OBaJfKXLFkS04FYAIiGvfbay5UnVgUSVR2JhUBsRdIFObrQRRV7qkMVIgAAgMqi4KiCpAqWKmhaFC03a9Yst6wfiJWS1icQi7LQb5xhw4ZZ3759XXBvZwZ1x6Hu+QjElo6/38orUtuJhpjKjPXlxcVbeq97LbvFfoEbyozdarZlk+3RKXxmbObPX1nCs3/3bgEAAKAwMmMBRFKzZs2sf//+bqz+P1944QWXpRALKioz9rjjjnP7QBfijB492v766y9vDgCgOqipmbHKMFT3T0ceeaSbjiYdOyhApszLaAXIquPz0fGNMkDVNVc0EcAEgPKLycxYX1xeriVPv8lqL/9f4FssT99kgSHwga+wcciQ+fkrlnXrAQRiAQAASqDMLVF/iQBQXmvWrLGZM2fawoULberUqTETiK0oKk9//PHHuxOiqoxAIBYAqhf/mNk/hq5JFHRT+dfPPvssqgE4BfpUajaagUupjs9H96Hs0Gg/HwKxABA5MZkZ61OG7NqTR9nWZnuZZWdamy5HuPYtr95sed+/Y3HbNrvbAAAAKJ6u7G/QoIGtWLGiQDknAKhuopkZe95551n37t2tbt267jN10aJFrgz/hg0bvCUAANWBPuN32WUXy8jIoLIMAAAos5jOjPUpQ7bpu7dY0w/vsV1y1tqWV4fblts6mc2dSiAWAABgJ2RmZrpxkyZN3BgAsPNUDlClmdVP7rx582zs2LEEYgGgGqpXr54b+8fQAAAA5RHTmbEAAACIDAUOOnTo4EqtrV69muxYAAAAIAyVKE5NTXXTP//8s23ZssVNAwAA7KwqkRkLAACAyNBJpHXr1rmTSyq7BgAAAGBHKk8sOnYmEAsAACKBYCwAAEAN8ddff7mxgrHJycluGgAAAECQjpHVL7j4x84AAADlRTAWAACghtCV/X/88YebJiALAAAAbKdj4yZNmrhpHTOTFQsAACKFYCwAAEANsnbtWlu5cqUrV6yTTSrDpmkAAACgJtKxcMuWLfMDsTpW1jEzAABApBCMBQAAqGFUci00Q1YnnxSU1TSBWQAAAFRnOt7VoExYDampqfmliXWMTHliAAAQaXF3PT4pTxOP3TnMNQAAAKBmqFOnju266675WQAAAABATbRu3ToXhKU0MQAAiKRBI+5zYzJjAQAAaiidbEpLS7Off/7ZlWPLyMiwbdu2eXMBAACA6knHvDr21TGwjoV1TEwgFgAARAuZsQAAAAAAAAAAAAAQQWTGAgAAAAAAAAAAAEAUEYwFAAAAAAAAAAAAgCggGAsAAAAAAAAAAAAAURAfZ8H/AAAAAAAAAAAAAAARoPBrYCAzFgAAAAAAAAAAAACigGAsAAAAAAAAAAAAAEQBwVgAAAAAAAAAAAAAiAKCsQAAAAAAAAAAAAAQBQRjAQAAAAAAAAAAACAK4kY9/nyeJl567B7XAAAAAAAAAAAAAAAouz6Db3RjMmMBAAAAAAAAAAAAIAryM2NvWXqAa2gxsacbI7qaNWvmxmvWrHFjAABQ/fnf/z+cPtmNAVQd+73Z1405fgcAAAAAAKUx6Jb73JjMWAAAAAAAAAAAAACIAjJjKwmZsQAA1Dz+939GRoYbA6g6GjRo4MYcvwMAAAAAgNIgMxYAAAAAAAAAAAAAoohgLAAAAAAAAAAAAABEAcFYAAAAAAAAAAAAAIgCgrEAAAAAAAAAAAAAEAUEYwEAAAAAAAAAAAAgCgjGAgAAAAAAAAAAAEAUEIwFAAAAAAAAAAAAgCggGAsAAAAAAAAAAAAAUUAwFgAAAAAAAAAAAACigGAsAAAAAAAAAAAAAEQBwVgAAAAAAAAAAAAAiAIXjM3Ly3M3AAAAAAAAAAAAAADl5MVfyYwFAAAAAAAAAAAAgCggGAsAAAAAAAAAAAAAUUAwFgAAAAAAAAAAAACigGAsAAAAAAAAAAAAAEQBwVgAAAAAAAAAAAAAiAKCsQAAAAAAAAAAAAAQBXGjHn8+L8BuTTvQNbSY2NONEV3NmjVz4zVr1rgxAACo/vzv/4yMDDcGUHU0aNDAjTl+BwAAAABUpoSEBLv55pvtsMMOs7i4OK81MhQv/PLLL+2ee+6xnJwcrxVlNWjEvyzwIpEZCwAAAAAAAAAAAMS6aAZiRdvUtnUfui9EBpmxlYTMWAAAah4yY4Gqi8xYAAAAAIi8Jk2a2BVXXGEHHHCAzZ4928aPH2+bN2/25qKwAw880G666SY3fe+999rcuXPddFGivTyKVyUyYxV1HzVqlH3wwQf24YcflmvQNu6++26rV6+et3UAAICaLs6SWrezvc672g4Y9qgdNOLfwWH4U7b/lfdaq559rFb9ht6yAAAAAAAAkbXnnnta586dXezm+OOPt8cee8wOPfRQby5QPcRsMFaB2DvuuMO6desWkVRrbeOII46wW265hYAsAABAQIvup1r7C6+3WkkNA0eFIYeFgeOmxMbNLOWwE12gtla9JG8GAAAAAABA5KmCa25urqWkpNjw4cPt2muvtbp163pzgaotJoOxCsRef/31dvjhh0ckEOsjIAsAALBdg9T2lrH0Z1s4YZSt+W6W11pQ3eYtrH7LPbxbQMVISkqyhx9+2C688EKvpfS0jtbVNgAAAAAAVcOmTZvsmWeesbS0NBcjUpasftuRJYvqICaDsapJffTRR7s/uMzMTBs2bJgde+yxOz1oPa0fioAsAADAdvVTdrfUE8+35H26ei1A5VIQ9cknn7QzzzzTbrzxxp0KyGpZraN1tQ0CsgAAAABQdSxZssRlxL777ruWnZ1trVu3tptvvtmuvPJKsmRRpcV0n7GRlJWVZb/99ptLdScgu3MUHJ88ebJNnz497KCrVXbffXcXPL/vvvtc21133eVuh3PVVVfZm2++aQ888IA1bNiwyO1PmTLFxo4da8cdd5y35na33nqrW2bgwIFeS/FUd37EiBH2/PPPu/vWutOmTbOJEyfaxRdfXOQHuX8/hYdXXnnFRo8e7bZb2BlnnGFTp04Nu54GPSdfUc/df2znnXdekfsRAIDyWjN/tmX+scgSGzd14/U/f2dbM9Z7c6PvhBNOsFdffdVmzpzpuqaoLDpumT17to0aNcprQWXSxZTvvPOOrV+/3ho1auQusCxNQFbLaFmto3W1jcIXZgIAAAAAYtvmzZtdv7H33nuvy5KtVauWnXzyyWTJokqLN1UBjmAp4FilWuPPPvuszZ8/n4BsGelDcNGiRfbzzz8XGNSmeTk5OS6ImJGRYfvss4/17NnTW3O7ww47zJ1s1fJvvPGGbdy40ZtTcPsab9261dq2bWtDhgyxf/7zn95SO++CCy6w+++/373e9evXtz/++MPdx7p16yw5OdnOOecc9+GuwGhRVqxYkf98dXWOAqTqVPz22293zzUcnfzz1wkdtH5hhfetTiA2a9bMzj//fHfVDwAAkZBQt77tduzZ1q7PFW5ouu8h3pyS1U5qZHWSd3HjSOnUqZN16dLFGjRo4LVUDnWNsdtuu1nt2rW9FlS2F154wR2/6XitSZMmJQZk/UCsltU6WlfbAAAAAABUTV999ZU7N64LbcmSRVVXYzJjRdmxI0eOJCBbRhs2bHDZrNddd12B4e6777a//vrLLfPZZ5/ZnDlzrE6dOu5qFWW++hTA7NWrlzvh+uWXX9rHH3/szQkK3f7VV1/tgqjKllEgXWWriwp6Fuess86yv/3tb+6+VdpA2xw0aJC7j3/84x/ug/vHH3+0XXfd1U23a9fOW7Ogzz//PP/5XnHFFTZ48GD75ZdfrHnz5i5gGo4CuP46ocODDz7oLbFd4X3797//3Z577jkX4D7yyCOte/fu3pIAAJRNrXpJ1v6C66xFt1OscYcDihxqN2jsrbFdQp16ttf519h+l4+2TlePsbZ/u9ziaxG4RHQVDsjqGOncc8/15m6nNs0jEAsAAAAA1YvOjz/++OOuohVZsqjKalQwVnSChoBsdL388su2atUqV8L31FNP9VrNTjvtNNt///3dPC1TEn3Qqqzw4sWLXQBX2TM7Q8Hbs88+200rsPnoo4+6DNRQ+gDX1TRff/21paSkuGBtaaxcudKVUVaAv0WLFi6YG2kKRC9YsMBd5bPHHnt4rQAAlE2TjgdZ/Ra7e7dKT8dLeXm53q2AwLFT4/ad3faAaFNQVV1DrFmzxlUNUX+woQFZTatN87SMliUQCwAAAADVy9y5cyskS1ZJXargtTNdB2pZJVTtzDqoeWpcMFYIyEbX0qVL7b///a+bPvbYY12QU4MCs9rXmqdlSkMBWZXs1RUvoVm2paG+ZlWG+IcffnD9xBbFL6+s7FQFcPVhWxoqx6ysXT22aJVFUPA4Pj7eZRoDAFAeDffct0xdU2Snr7KslWneraC4+ASXRVtWCpb9/vvvrisClQbWhU0vvviia1PlCWU5hlJXAupSYN68efbbb7+55fT9rou2VD0jnL59+9pbb73lLmzS8lrvf//7n1tHF4zpgi1tQ/Pat2+fv45ua3jvvfdcW1HU7cIXX3yR/3j1ONRnvH9/6n5AJZXU/3xSUpK3lrmKIrrQTI9F1TuK8tprr7ntlOYCtupO++Bf//pXfkD2+uuvt969e7tB034gVsuwvwAAAACgeqqILNmBAwfaHXfcYZdddlmpgqtaZujQoe63aXFd66AG887F1ZhgrE6CqWTZhx9+6AadLFPQTcFB0Vi399tvP3cb5fP222+7k5Dqf+3MM890g6bVH6oyPneGgpEKem7ZssVrKZk+BDt27Oj6nZ01a5b7oC6Of3J3ZzJwU1NTLTEx0VavXl3q4PLO0HNQGWQ973D9zAJAdaK+wV9//XX3/XzppZd6rTvyl9NQXH/i2oa2peWuuuoqr7Xmik+sY4mNmnq3CsnLs5zNm2xb5sYCw9aN62zdwm9t8avj3cVrCXW3BxRF29N2y0KVJdS3usbatr6ndVuDLnYK/c4/4YQTXCBWFTb0Pb1p0ya3nC6EUhn/hx56aIfStSr9r6Cnjut0jKfldYGTjgf32msva9mypTtG8O9z27Ztbj0t47fpfkpLxzh6HAcccIB7PlpfY1XOGDBggI0fPz4/IKsg79q1a93togLJeq7qOkGP65tvvvFaazYFWUeNGuWqk+giP11EqUHTatM8ArEAAAAAUP1FM0v2//7v/+zbb7+1E088scSArB+IPfzww123jFRpKruacF4wPi/PmwIiaOPGjfbGG2+4k6nKUNWgE5PK8igpMBpKmao6GamTtQsXLvRaS6ZAqU7Y6oSugqyloYCnAr/KzimJAr0KMOtE6yeffOK1Ro4+yPVhr/LEyorRhzkAVFcdOnRwQTVd0agsyR49eoS9OEoXTen7RMtp0HS4agZaV9vQtrScSsWUtupBdRWfUCtsH68bfvvR5j98vc174OrA+LoCw/fjhtni18ZbTvZm2/3UfpbYuGAwV9vTdsvikksuca/Tv//9bxdwVBcGOlBWm58FK8pYHT58uAueqo/3iy++2C2jQdO68EtZkRdddFF+sPOkk05y7w0FYXXQffDBB7vldUyhfuPVv73uU1UzdOWs5vnHCqqU4W9f3/OlofvRferYR5m+++67r1u/T58+LjNWVIFF3+vy0UcfucxYrafuG5SlW5iybhs1auSCjDNmzPBaoR9S9957r9svet01aFptmgcAAAAAqBnCZcnqt7kulC5Plqwu0r7vvvtKDMiGBmJVNWvMmDE7FffAdjXivGBeXs0sU4yyUXaHPuCmT59eYFDqfjgff/yxCyLq5KiG2bNnlzqo2KRJEzvjjDPcFS0qNayS0nPmzPHmlkzr1K9f351sLdxPbFH8D8twpap1EvXBBx90w4QJE1wZvMaNG7ssX+2DcBRELryvdKJQz6swnXBVKQNtf+zYsfbSSy/ZKaec4gKxKrOgE7wAAJTVtqxNtnVTwe+S7PVrbenbkywhsa61PWewdRpyv3W+5sECQ5frxwbGD1gjlTguJHfbVsvNCWaURkv//v2tTZs27vvw6quvLnABlKYnTpzoLvZStqtf8lcH3bogS9//WkbzfeoqQd+3fpA0EnRgryxadYER2i2CrtRVX6Y//fST+wGgHwk+BWR1wZqyOvWDI5SOmQ455BAXrFVWrLYDAAAAAAB25GfJvvvuuy4WoCSt8pYL1vkEVdtSPCJcQFbTyrYkEItS8TJiKzQYqzepSoh98MEH+eWCww0qJ+xnN5SH/lh69erl+i0tahg2bFiBk3Qomj6ElIGiUsOhw4oVK7wlCtLrrYCoTiaKAo7FCQ32qj83pZlrHWWwqNxgZVK2rK7Q0KATp3/88Yd776h/u6LofVV4X6lfOfVpVpjKJyh4q+1rrPLHU6ZMcSeedWUPAFRn+nxUSXkdNKt0rAJV6suzMJWU1zGEltOgabUVpnW1DW1Ly+l7JNxyNUuwFHGonM2Z7ju67d8GW5OOB1nthk2sVlLDAkNC3fpF9jObvWGt5WaXvguBnRUalPz666/dd2hhulgrPT09/3tU1HWAAp1qUxngSBxTlkSPT++5wpRxq8CvulvQcc5RRx3l2lVKSccSemyHHXaYa/OpL9tWrVq5vuzff/99rxWiPmJvuukmdyym4ykNmlab5gEAAAAAap7dd9/dVZ3SxdKic0HlpeDqPffcs0NA1g/EHnPMMQRiI6SmnBessGCs3qTq+Fhl1/zgHKoWnRRUUPS6664rMLz11lveEgUpA1SlBhWsXbdunetHTR9SRQkN9qoksbJXlBmr0nOlzW71qVa8/tD0XlPp4Z2hx1qYMloV2FcAVo9NV9joQ1cZvEXR8y68r2644Qb3x1/YX3/9ZZdffrnL6pk8ebI7iXz66afbWWed5S0BANXbU0895T7zFFBR6dqi+Mtp0HRRtA1tS8s98sgjXmvNtv7n7ywvt+APhHopqZaYvIt3ayfk5dnG3370bkSHSsjooix9l6tPWGXHFh5UVlh9w+i7vk6dYP+1CnR+9913rk2lhpUdq4oWKnkcDTq412Mpyp9//umOSxR43WWX4L5WkFY/6NTdgY6PQsvlKDirZZctW2YzZ870WqH3QOE+Ygv3IVu472AAAAAAQPWlmFO/fv1ccp+6FVRQVBc1jxgxwluifPyArC7AVkBWXR9pUIxDVUEJxEZOtT4v6MVDKyQYqz8KlYRT2jaB2JpBV6Ocdtpp7iSj+mtTVogyVJTtUVQAMzTYq3rr+iNZsGCBN3fnKCtm/fr1rpTw3nvv7bUWr23bti6Aq5N6RdHj0Yk/9fWmDJxzzjnHmxMZCjpPmjTJ/vOf/7i/FQWAtS8BACivdQu/tfW/zM8vjyJxcfFlOjbbtGKp215F0LGE+o5XxYniBl3IJJrWFavPPfecO7ZQv6J9+/Z1lTeeffZZd6FYpCnztShr164N++NMF2fp8TVv3tx1hyAKyio4q+ORwiWWazIFWVXyWa+lsmF1vKgL5TRoWm2ap2UIyAIAAABA9adMWHX5p9+AijvonP7o0aNdn7E7m9hVHP2eV7KYArInn3yyC8oqEKvYBYFY7IwKCcbqpJfKxCkoq5NKyi4MVzLYHygdXPXpihRlKSglXBkqL7/8sivHt8cee7iMz2hTH6tLlixx5X7VQXNJdPJTH+AK4Kp/tuIoc/btt992mTB6v3bu3NmbEzlvvPGGK8eofchJRQBAJKiP18WvPm7fjx1qPzw+3H596WHL2ZLlzd1ua8Z6l0Vb1LBi9jv2y4sP2rasijlWU2BS/bWrL9jihttuu81bIxiQVR+uqsiirNhff/3VHRPoe1tXzEYjIFsUZe7qvnXc4AeMRVm96k9WPxoPPfRQ16ZjFmXP6kfkjBkzXFtNp75+hg8fnh+I1eup40qfptXmB2S1bHn7BwIAAAAAxKbQbFglS+mcgfqLveKKK1xCWDT4AVld9K1EKgKxKAtXwLXCahWjRjjppJPcSU4FNl955RX3waSTiuoPWNktJ5xwgu2zzz7e0tGjmuHKONl///1dOnpR9AGuMoYNGza077//3pVKLonKBipLVlm+WjfStM9U/llX8Rx88ME79CcHAEBZbc3cYFvSV7lxaa398Wtb9Mpjbvjzwyk79D8bDcuXL3ffg7Vr1y51lYvCFJQdP3689ezZ05588kkXDFUljEj2L6o+adS3fFF0f3oOupjrxx8LlnZW/zIK0ur56dhJwViVW547d64bajoFVXWRpo63tP901XNoINanNs3TMlpW6xCQBQAAAIDqpXA2rLr3URnhRx99NKLZsOHofP2rr77qBgKx2BlxeYEh8B9xWESUToCpr1hlgMyePdvmz5/vzTH3QaX+YJs2ber6Ro02lQ5QyQAFWy+66CLr37+/+5AOpQ9wZVMccsghLmAc7gRfOPrAVblDZeAqq1YB6EjTY9f+U5BY5ZD1PAAAiLbaDRpb4w4HWFKrdpa9fq0bN+vczZsbHfp+Tk5O9m4FqV9VVYmQgw46qNzftbpyVT/UQvuXLUzHKDtLZZ51HBGuT9oePXq4eboYTVmwek6hdKGa+o1XqeJTTz3VBWUVQP7yyy+9JWquwoFYXfX8wgsveHN3pHlahoAsAAAAAFQvRWXDXnPNNVHLhgUijWAsSq1Ro0au719dfRI63HffffmlgPWhqD5O//zzT3vttddcm8/P9lS/b5EKYKqPtcKPR8PFF1/s5j/99NOuTLKyVhQAfvHFF+2xxx6zhx9+2J5//nk31olPlTTWVTTqa7a0dKJUJY11Qlf14hU0DaUsmXCP7e677w57wjYclTDUSUUtrz54AQCoKOkL5ljajJds08rSfzfuLJWWVWZogwYNwpYOVtl+fQ+q/OyIESNc36+hDj/8cJfx+u9//9trMXcBli600rFGKK276667uh9t6sc1lCppyF577bXDd7QCqurfdeHChe44qDAFWtu0aWNjxowp8BzURcett97quhzQ/U2ZMsWbs52yX3Us4ZdQVl/3v//+e9hla5KWLVu6fvO1P/TalBSI9fkBWa2jdbUNbQsAAAAAUDV17NjRxo0bVynZsEAkEYxFqenDTleedOjQocCgk5Y6SaqArAad5FSfqso0LUzZnt99950LYCqDVpkL5aGAZ+HHo0H9s4kCwE888YTdcccd7n51wlfBYp1srV+/vq1YscKeeeYZu/rqq0tVnrgwZdKuWrXKlSAsXAo5KSkp7GPTfeukc2koM/aTTz5xV/8oYwYAgEjatPx327x6hXeroGYHdLeOA2+xBrt3sIy0YIZqpOk7Tt/FumhKF1Kpr/l58+a5q1vlzTffdP2x6AeWvr/VR4u6CdByGr/00kvu4q7QTFcFXM8++2x7/fXXXVlgLauxAqP6/lXws3AlDF1Jq+MXVczQffp93ouycrVNHQep3HFhWk/VOPbdd19XBcS/P/Ulo+MmZbrqOfz3v//11ihI+0DL6PhAWbb+7ZpMJaovueQSd1GaAuulCcT6tKzW0brahrYFAAAAAKhadD58wIABNnr0aHcBtM7r63c62bCoquLufvz5PE2MWHqAa2gxcceTTOXVtWtXGzlypAtO6eSSpufMmePN3dHOLl8eFXlfoRS8FGWEAACAmsH//s/IyHDjWFCrfkNL6XayJe99kNVulGxx8cGy+LnZW1wQdvms6Za5bHGgxR0yRpz6bx0yZIgLturHlrIaddWrqlv4lGV67bXXuiti69Wr59qys7PdBVGffvqpjR07Nj/opr7pr7jiCnexmC68UoBTAVNdJKYyRqpSUTjYqeNAVa7QuprWxVy6iEvdBCgzVvP02ikD94EHHnDrdOvWzW1L7eqXVpU/1CWCSg7reei2smkfeughF2Atiu5PweH99tvPBaavu+4619UDYo9/MR3H7wAAAAAQOaoyddNNN7lpXYSt39NXXXWVO08gyoZ99tlnCcJ6Cu8vVd0qTrSXR/EGj7jPjQnGEowFAAAVJBaDsSibwsFYTZdFaDD2gw8+cFf+IjYRjAUAAACAyPODf7qYWgFX/d5Wdz66CPv999+3CRMmUJI4hC4Av/nmm+2www5z+ywa1CWTumlUSWhdsI6y84OxlCkGAAAAKolKKu+xxx7uosAPP/zQawUAAAAAoGZRdStVp6pdu7alpaW5rMzHHnuMQGwhCo4qSKpgqYKmkUYgNjoIxgIAAACV5OSTT3bZsb///rtNmTLFawUAAAAAoGbIzc3NDyoqG1ZdDKmrIsoSF01B0lGjRtnpp59uvXr1iuigbWrbBGIji2AsAAAAUAlUhkldZugq3+nTp+/Qly0AAAAAANXdvHnz7F//+pd98skndtddd5ENi2qJYCwAAABQQVSW+JtvvrEFCxbYZZddZrVq1bK33nrL9TsLAAAAAEBNNHfuXLvvvvvcGKiOCMYCAAAAFURlfhITE61u3bq2fv16mzRpkt12223eXAAAAAAAAFQ3BGMBAACAnTR79mw7/PDDrX379vbggw96rSWbNm2aderUyfbcc0874IADbOTIkZQnBgAAAAAAqMYIxgIAAAAAAAAAAABAJMXFuYFgLAAAAAAAAAAAAABEAcFYAAAAAAAAAAAAAIikvDw3IhgLAAAAAAAAAAAAAFFAMBYAAAAAAAAAAAAAoiDu7sefdzmyI5Ye4BpaTOzpxpHUtWtXGzlypCUlJVlmZqabnjNnjjd3R/Xq1bNbbrnFjjjiCItT57YVZOHChXbzzTfbunXrvJboadasmRuvWbPGjQEAQPXnf/9nZGS4MYCqo0GDBm7M8TsAAAAAACiNQSP+ZXGB/2IyMzYrK8tGjRpln3/+ueV59ZSjbfny5fbggw9WSCAWAAAAAAAAAAAAQPUXs2WKKzIgq0Ds7bffbr/88ovXAgAAAAAAAAAAAADlE5NlisujIu+rPChTDABAzUOZYqDqokwxAAAAAADYGTFdphgAAAAAAAAAAAAAqjqCsQAAAAAAAAAAAAAQQcqKtTgyYwEAAAAAAAAAAAAgKlwwNi/PdRsLAAAAAAAAAAAAAIgQMmMBAAAAAAAAAAAAIAriVa7YDQAAAAAAAAAAAACAiCEzFgAAAAAAAAAAAACiIO7u8c/nqc/YW5Ye6BpaTOzpxpHUtWtXGzlypCUlJVlmZqabnjNnjjc3siryvsqjWbNmbrxmzRo3BgAA1Z///Z+RkeHGAKqOBg0aeFMAAAAAAAAlO3fQjWZxcRUTjK1Xr57dcsstdsQRRwTus2JqIus5LVy40IYPH27r1q3zWmMHwVgAAGoegrFA1UUwFgAAAAAA7IwKDcZKRQZkYz0QKwRjAQCoeQjGAgAAAAAAADXDgKF3uWBshfUZm5WVZaNGjbLPP//cBUujpSoEYgEAAAAAAAAAAABUfxWWGYuCyIwFAKDmITMWAAAAAAAAqBkqPDMWAAAAAAAAAAAAAGoSgrEAAAAAAAAAAAAAEFHqtjWXYCwAAAAAAAAAAAAARAPBWAAAAAAAAAAAAACIAoKxAAAAAAAAAAAAABAFBGMBAAAAAAAAAAAAIAoIxgIAAAAAAAAAAABAFBCMBQAAAAAAAAAAAIAoIBgLAACAUoqzpNbtbK/zrrYDhj1qB434d3AY/pTtf+W91qpnH6tVv6G3LAAAAAAAAACCsQAAACiVFt1PtfYXXm+1khoGjiJDDiPj4iyxcTNLOexEF6itVS/JmwEAAAAAAADUbARjAQAAUCoNUttbxtKfbeGEUbbmu1lea0F1m7ew+i338G4BAAAAAAAANVswGJuX50YAAABAceqn7G6pJ55vyft09VoAAAAAAAAAFJZnue7fuLvHP5+Xl5trt6Qd5Ga0mNjTjRFdzZo1c+M1a9a4cSwbOHCg9e7d27tV0LZt2yw9Pd0++eQTe+mll2zz5s3enKA999zTLrzwQttvv/2sQYMGFhcX59q3bNliy5cvt8mTJ9v69evthhtusCZNmrh5mzZtsnHjxtmsWdszblJSUmzUqFHWsmVLd/uvv/6ykSNH2tKlS91tn+7vn//8p+27776WkJBgU6dOtQkTJnhzd6Rl+vTpY7169XL3X9R2Q+mxDBgwwA499FCrXbu2ffnll3bXXXd5c0sv3H7NzMy0+++/3+bMmeO1bLf77ru7x7brrrt6LUHFPcehQ4dajx49vFvh962v8PYXLVpkV199tZsuPC8vL89mzJhhjzzyiLsd6owzzrCLL77Y7ZutW7fas88+a2+88YY3FwBqNv/7PyMjw42rmuT9DrWm+x7i3Qqqv9ueVrtBY++WWe7WLbb41fG2YfEPXkvk6PvopJNOcscUL774oq1cudKbU7FOPvlk69Kli82fP9/eeecdrxUAAAAAAADY7uKhI11cjDLFKJdatWrZLrvsYuecc46NHj06P6AqalNg8fDDD7eGDRvmB2KlTp06tscee1iHDh3ciczvv//em2NWr149d4IzVPfu3d39iAKB33zzTX7AtG7dutazZ0+777777KGHHrJOnTq5IGtx2rVrZ4MGDbKJEyfaRRddVOBxh6PtHXnkkXbbbbfZ+PHj3bSCjZFWv379HZ6774ADDrDk5GTvVskUNN577729W0Ha/oEHHujdKju9ltoHGgAA1VdC3fq227FnW7s+V7ihcCC2OLWTGlmd5F3cOFIUjNWFV/rur0wdO3Z0gfWSjjcAAAAAAAAAgrFVhIKHysIoD50wPPfccy01NdVriaz27dvbJZdc4qYPOeQQF4wt7cnSjz76yDZu3OimFehT4FHBRNHjPuKII1zgV9auXWvvvvuumxZl3l5zzTUuG9Zfpjg6kTtixAiXDVva4OZpp53mskyVDZuYmOi1Rp6ee+fOncOe3FWQdmcCwNqHfgaWAtgaZJ999nHB8fJSVtLZZ58dkW0BAGJPrXpJ1v6C66xFt1OscYcDihxCs2J9CXXq2V7nX2P7XT7aOl09xtr+7XKLrxX5i5gAAAAAAACAWEcwtgpo1aqV3XTTTTZ48GC77LLLvNado+CegokKXF577bXWtGlTb87OUdnZp556ygUyVcL2q6++spycHDdPgURluqqUrbJhGzXangnz22+/5QdAlYk6ZswY++GHH1y5YlGp319++cVNi7JglQ0rCsQqgCoKKOo+VUI3nNCgY2ns7PJSlnVKkpWV5Uo+S4sWLXbIXvUzgUSlLbOzs910cRSM9QPHKiWt1060bzUvEvbaay8766yzvFsAgOqkSceDrH6L4Pfvzgh+T6o/DE/g+KBx+85uewAAAAAAAEBNQzC2Cvjjjz/sv//9rwt6nnrqqTsdkPUDsd26dXN9ur7//vsuu7S8FBB98sknXT+rPgVg1a9raNlfBQF1n/PmzXO3161b5zJhb7zxRnv++eddm6gPUvVpKspwVRBWj12lcFVeVxRU/OCDD9x0KK33xRdfuH5r/aBmcbQv//zzT3vmmWdcoLg0FDj+3//+Z//+97/zH2ekaB8pICvhShUrm9XfpwrG+gHwoih465co1knxb7/9Nr9/QpWBPuyww9x0WfnBYL0+J5xwgnt8AIDqpeGe+7pA6s7KTl9lWSvTvFtBcfEJLou2rPr37++6I1C/5DpGUGWL66+/3rWpmwT/Ai6fLjpTn/Dq71zLaFD/7v/4xz/y+58vTBU2rrjiCtdHvb/OHXfc4dbRd7MuOLvzzjtd+2677ebWOfroo/OXVZWO4qjix80335z/ePU4dEzn39+9995rw4cPt+OPP97i47cfop9yyilunh6LyiMXRX3mazt+lRIAAAAAAADEBoKxVcSrr75qL7744k4HZBUsu+qqq/IDsf/3f/9nb731lje3/FauXFkgMKnsWJ1A9AOLotK6Z555pivxW5zPP//cfvrpJ+9WMKCo0sw6OSoKKqp/2QULFrjbvgkTJrjyyzqZ6Qcci6O+Zi+99FJ30nLq1KmlynJ944037LzzznMZymlpBU8wR4JeGz+orX2o4KZeO5+f5Zqbm+uC8yWVY1aZaD/7Wa/FnDlzbMWKFe62+BnMZbVmzRoXVBedEFe5YgBA9RGfWMcSGxVRRSPwvZmzeZNty9xYYNi6cZ2tW/itLX51vPtuTaib5K0QpO1pu2WhC6L0XelfDKTvQ79Ng1/9QXT8oO95fRequwQtp0HHI/vtt58NHDhwh4uIdJzSr18/a9Omjfse9u9LFzAp8KqS/DoG8+/PvyhK9+u36T5KS9+dehxt27Z1+0rra6wLr0488URXRcQPyOrYR8c3eiz+MVFhqp6h4K4e16+//uq1AgAAAAAAIBYQjK1CdjYg6wdijz32WBeQU0ZnJAOxoiwPP2tVdCIyMzPTvv/+e3di0afSuMr2+Ne//lVkVqae16xZs/JPtGq7yrps3DjYF9369etd9mx1pbLNOrksOvG7//77u2ntY5UDFp2M/f333910cZRZ6wdsV69e7bKSdTLX3776klXftGWlAPyHH37oXjOdtFZZ5ZNOOsmbCwCo6uITaoXt43XDbz/a/Ievt3kPXB0YX1dg+H7cMFv82njLyd5su5/azxIbFwzmanvablmo8sVtt93m+oxXBQwdEzz66KOuTdmq6u5A1J/53/72N/c9p4uvxo4da7feeqsbNL18+XJXxUPHRn6wUwFYfW/q+0wXhmlZbfeWW26xxx57zH788Uf3/amKIMpq1TxdjCZaXrc1jB8/3rWVRPdz8MEHu2Mzdf3g39/999+ff1GaMmB1IZ3oIiz/gio91tDjLp+WV7BWF0rp+x4AAAAAAACxg2BsFaOArLJbSwrIFg7EPv300zZz5kxvbmS0a9fOrrzyStfHqU/ZnTpZqbLK7733nnucPgUHlZGik5s64ej3gRpKj3Hx4sXeLXMZI35QUQHe6nyCUQFTP9tUJ5P9fl011kllUWnlkkpM63XRyVqf9ufGjRtt4cKF+RnLderUcSeCy+O1117LDwwr80ilI0PLUwMAqq5tWZts66aN3q2g7PVrbenbkywhsa61PWewdRpyv3W+5sECQ5frxwbGD1gjlTguJHfbVsvNKbkrgfI46qijXOUHBS8nTpzogq8+TavbBF04pizSTp06ufbU1FT3PaaLwUIvjJIlS5bYtGnTbNWqVV5L+ekYTff1n//8p0Af+Pp+V9DZr4ARetGUjoGUhauqF/4FWj4FlVXxQmP1vx+JrigAAAAAAAAQAXnqAiyOYGxV9PrrrxcbkNVJPrVFIxCrEn8q7zt9+nSXYaKMSGV4iDJhQwOw6k9WWSuFTwpqeZUHVN9tftaHT+t+8skn+eUG/ayVDRs2uGyY6kwnif0SyHreOkms19IvUazyhSrRXFJZZQVZ/WxinXD+7rvv3PTcuXMLlCrWyVxl3ZaVAsdTpkzJD/DqZPYFF1zgpgEAVV2wFHGonM2Z7ju87d8GW5OOB1nthk2sVlLDAkNC3fr6ovfWKCh7w1rLzS59Kd+dFRqU/Pnnn8N2XaDvWV2gpOMZ/2IyVZDQcYe+a3XRmH/sEU3KgFXQtTBVntA8BYR1gZP/GBWM1ePUxVTt27d3bT5V0mjevLmrTEJWLAAAAAAAQOzwT5PFlxTYQWxSQPa5555zJw9DA7J+IFYlY3VCTyXzIp0RG44CsQrMKSM2lIKzF198sSvzp0Bg6PtNJxn79Onj+mELpfK3y5Yt824FKWtUQ1WhLFH1R6ugdejwzDPPuL7siqLnqPKLolLFRxxxRH4GjF7P0uyDrl275mcTKxCuE7iiQLdOTvuvgbJt/ezbsvr4449daUhtUyevu3fvXq4ALwAgdqz/+TvLy91e4ULqpaRaYvIu3q2dEPie2Pjbj96N6FCXCH4J36OPPtruu+++HYabb77ZBS71naWArOi7UVUk1KbvXXWr0KtXL1elIhr0Pe/3Ex+Ovrv1na1sXZVUFh0DKOtVVAFDfc76FJxVkFbB2tDqIgAAAAAAAIgBeUZmbFWmsnmTJk0qEJC95JJL8gOxTzzxhAuWRYsCcMrCUMal+jtTf7bh6ITiO++84x6fyiz7fcKKygSqFHEoZaz4AUTR81NGaE2gLFZlAYtOAqvcokoSioLZ2tfFUUZPq1atvFvB/TthwoT8YPApp5ySn8msDKDyBmPl5Zdfzu87TyeNDz/8cDcNAKja1i381tb/Mt8FUn1xcfH53yM7Y9OKpW57FUXHGrpQrLjBr8KhLFQdT+kCMh3X6LtMwVwFbi+66KL87+FIKu5iSGX0hpZK9qm7AT0+Vb/wL9RSUFbBWR1rFS6xDAAAAAAAgNiQH4xtMbGnG1C1hAZkTz/9dDdEMxCr+3nqqadcxojuq2/fvi4QWzhYesUVV1jPngXfTzpR+Pzzzxcoy6cTuuHKAWrZquyNN96w3r17u/0UOgwYMMCWLl3qLbUjZef4/bBqvyi4qmwXnbRV6cGS9ouyYgtnGhdn7733LjZTtzT0fN566638k9rKjPWzjQAAVZf6eF386uP2/dih9sPjw+3Xlx62nC3B0vShtmasd1m0RQ0rZr9jv7z4oG3LyvTWiC5lnqpSx2233VbsEFrNQ0FMBWPVhcIrr7zi+mj3+239+9//HpWAbFFUuUKVTvSd73+3yq+//uqOofQdq3LMorGCs+o6gBLFAAAAAAAAMSiOzNhqQQHZZ5991mVLKKv0kUceiWpGbGnopOWVV15pd9xxh+vDVCcV/bLEKiPo0wnT0ExZFCxVrH0mpSlRrH2sfmbDBbeLooyaSGTHKvjsl08EAFQvWzM32Jb0VW5cWmt//NoWvfKYG/78cMoO/c9Gg46BdEyhIGrr1q291p2joOzXX39tDz/8sKvqoWCo+m095JBDvCXKT4/P/34PRxc1aRllyPqVJ3zKjtUxgp6fjrXUB7+CswrUFu6jHwAAAAAAADGAMsXVhzITlaV6/vnn2+zZs73WyqUTiQrEKiCrgLGyYlXuL7QPNmV46MQitlOp4vXr13u3gkpTovjAAw+01NRU75bZokWL7Mwzz9whO1eBez/YqxO4yqYtL2XvKJPIL7EMAKg5ajdobI07HGBJrdpZ9vq1btysczdvbnSo1L7fP6xPFy4po1VUurdNmzZuuqw++eQT1w9raP+yhe1MNYpQymgN1yetuhpQ1QpR//l6TqF+/PFHd4ygUsq6mEpB2S1btnBBFAAAAAAAQAwjGItKs3z5cnvyySerfEniSFMQdcmSJd6tYL9ypSlRfNhhh+WfmNY6Knkcbh31xxsaNNXJap20Li9lEs2aNYv+6gCghkpfMMfSZrxkm1YWXY6/vJT9qu+2unXr7tDnvHz11Vcuo1TBynPPPdf23Xdfb07Qrrvu6i5eO++887wWc1UldLGSqkWE6tKli8tg1f1pm6H8IKn6Zi8cVFVA9cYbb7RRo0a5vt/D0ePo169fgfLH2pYes+5T39NffPGFN2c7Zb8q8KrgsEoo63tfF2z973//85YAAAAAAABArIl3+bFuACJn4sSJri+2NWvW5GdhisoHKgj72muv2VVXXeUCj9hRaKni0pQoVmZOx44dXR+8snnz5iL7jlOQNi0tzbtlrq+5SJQqlhdffLHAtgEA1cum5b/b5tUrvFsFNTugu3UceIs12L2DZaRFJ1NTgUgFJFWa/4QTTnB9vN5+++3WrVswE1fHFR9++KE73lC3CP3793dB0TvvvNONhw4d6qp2KLPWp+9BrX/TTTe57WlZjRWwrVevnrtPBXlD+Rc8qYTxzTff7NZR9wyy5557um3qPhTQLUzf79qmqlnccMMN7r40XHPNNS4gq+/wDz74oMCFWaGUHZuVlWW77bab+97/4YcfuBAKAAAAAAAghsWNevz/8iwvzx6960avCRWhWbNmbqxgJQAAqBn87//CmZZVSa36DS2l28mWvPdBVrtRssXFJ7j23OwtLgi7fNZ0y1y2ONASnYv92rdvb6effrrLLlUJYV20pL7Lv/32W2+JYJbpGWec4QKefuBVQVCV+FUW6cyZM115X9l9993t1FNPdRmtderUcW0KtK5bt87mzJnjgruFg526X3UFcNBBB7l1NF+B4H//+99uO+qWQRdK6cK0Tz/91K2jvmAHDBjg2t9++213/z179nSBW21PAWRd0KTnogvXiqJlBw8e7CpbpKen2zPPPLND37IAAAAAAACofAOG3hH4N45gbGUhGAsAQM1THYKxKJvCwViV9i+L0GCsKme88MIL3hwAAAAAAADEEj8YS5+xAAAAQBWx//77u/LIyqxVP/AAAAAAAACIbfFxFmfm9TMJAAAAIHb5pZFXrFjhSi4DAAAAAAAghsUZmbEAAABAVdCjRw/XZ676l/3666936MsWAAAAAAAAsYdgLAAAABCjOnToYLfccouNGjXKTj31VEtISHCB2K+++spbAgAAAAAAALGMYCwAAAAQo5T9Wrt2bUtMTLSMjAx7//337c033/TmAgAAAAAAINbF3f3483l5lmeP3jnMa0JFaNasmRuvWbPGjQEAQPXnf/8rqAYAAAAAAACg+how9A6zuDgyYwEAAAAAAAAAAAAgGgjGAgAAAAAAAAAAAEAUEIwFAAAAAAAAAAAAgCiIN8sLjDQAAAAAAAAAAAAAACKFzFgAAAAAAAAAAAAAiIK4ux+flJdnefbonTd4TagIzZo1c+M1a9a4MQAAqP787/+MjAw3BsKpV6+eN4XS6N+/vzdVNhMnTvSmABTG3xcAAABiWVZWljcVXuvWu9iWLVsDU3lWv35da9iwvmVmbrbs7K2BYZsddVQn+/nnZbZhQ441bdrUWscHt1evdi2rlRBvM75fZHl5eda76z72+jcL7ayDO7qx5OTk2rpNm910n8P2s7i4OHv/h8WuPSGwbv3E2nZip3Zu+Vrx8dZz/7a2PmuLW35d/V1swYIFxIcq2fqNmXbQQQd5t4rWvHnwfF5xVq9e7U0VdMyZF1rgzUEwtrIQjAUAoOYhGIvSIBi7cwgWAdHD3xcAAABiWUnB2GuvPccFXjdvzrbvv//d6tevYxkZWdat235urECtgrH16qXYjz/+aNuyMiw+Ls4u6t7FcvPyLKlOom3O3mbfp620eUtXWJfdW7ixgrPbcnNt4sdz3f2M7tvT0jM3B4Ys1751W44t+HOVNalfzy2vYK385/Pv3fYbNN3FWrRoYV999ZVrR+VQMPb664Z4t4q29957e1NF++mnn7ypgnIb704wtjIRjAUAoOYhGIvSIBi7c/xg0dMvPu3GpXXJBZe4McEioGj8fQEAACCWlRSMvfHG8ywjY5PLhp04cYb17dvDkpLqWm5urmVn59jSpSutSZMGtmLFNlu1apUtWbLE4gLr/e2w/VxmbHJSPVu9cZP9virdmjWsb2sC0xrv1qShbdmWY8/Pmufu55JjD7bageWzA21qzwls/6XZ39uh7Vq55ds0b+K29+h/v3Tb77jPPm49Zcei8hCMrQEIxgIAUPMQjEVpEIzdOQSLgOjh7wsAAACxrKRg7FlnHWlvvvm5Kx1cnNq1a9vuu+9uixYt8lqCVHo4IT7OthVaX9mtKl+c5932FdWubeTkbm9VcO/nn392y6LyEIytAQjGAgBQ8xCMRWkUDsaW9OOyphs8eLAbP/rMo25cWlcOuNKNx48f78YAdsTfFwAAAIDqSsHYxg2TvFtFu+OOO7ypot1+++3eVEEDhgbWjYuzeO82AAAAAAAAAAAAACCCqnwwNj4+3lq2bGnHH3+8XXTRRXbZZZfZkCFD8gfdVrvmp6SkeGsBAAAAAAAAAAAAQHRV2WBsYmKiHXLIIXbppZdanz59bL/99rOmTZtanTp1vCWCdFvtmt+3b18XnNV6Wh8AAAAAAAAAAAAAoqVKBmMVWB0wYIAdccQROwRfS6LltV6/fv2sQ4cOXisAAACA8GrZgb172ZjHB9rIC3a1Bl5rVZN6/GabPXGD3b+31wBgp6V2yrYPJm2wRzp5DQAAAACAEsXd/fikvDzLs0fvvMFril0KpJ588sm2++67W1xcnNdqlpOTY8uXL7effvrJ/vjjD9u4caNrS0hIsIYNG7oyxu3atXPr1apVy1vLLC/wzH/55Rf74IMPLDs722utGM2aNXPjNWvWuDEAAKj+/O//jIwMNwbCqVevnjcVlJWV5U1VkjP+btOu7uQFYbfZjxNutqtedDdiwuDBg9340WcedeNwFIidNmi17ZJotuXXFOt7fW07YsCVbt748ePdOGg3e+CaY6ytu2Q1zaY9OMsmBqb6n3O+ndlGbWaL33vJrv8+OB0rQh9fARvm20NP/2CfeDfDStnPnr+wsyV5N0PF4nOt+hrZLZecZgc38m6GWjLLer+W5t0om6OPPc2uPVAb3/7+LaD5fvbM3ztbsqbz3x+hj2mDffPCWzZqpaYL/33l2VNPrLBTWuaYZTey/9zSyIb95Gbv4Mqwf18AAAAAEDvWb8y0xg3D/Rou6I477vCminb77bd7UwUNGBpYNy6u6mTGJiUl2dlnn21t2rTJD8QqgDpr1ix74oknbMqUKfbDDz/YunXrXCBWNNbtBQsW2PTp0+3JJ590y2/ZssXN13aUHdu7d+8dTnoBAACgcjXpfomNfuole+211wLD/9mIY7wZqFgtGoVkw9ayxMbeZFQ1tD4jBtqzr9xjr9yxl9dWRntn23N+IPa3Xe2f19e2b7xZO8qw9DDXSixeu8GbCk/B0KnXBYZL9rOjvbZw8pc7J9VriYytWZstO3TI9WaURk62ZYSuuyX4Wyp2pdoD2oeB4YF9vabiNGpvT7jlj7Erdq6oUpTkWmbo/g4MgaaKs3qDpXuT222wZTs2hhEX+PvZxT5LTzBL3GDnjSLTHAAAAABKo0oEYxUoPeOMM2yXXXZxt5XRumjRInvuuefs22+/zQ++lkTLafmJEye69bUdSUlJsbPOOouALAAAQAxI2v8cGzHu/2zCtafY3s3o57/SvTjT3v8jmJ2b/cdse32Sm4yyFDvw4I62e9NalpjgNZVJjv3n5jXWXm+j9KZ234hE+yA4o2Qb0m2xN7ndBkv/y5uMIS+8PdX6jt8+vLMzyZWrf7FBIev2ffUHy/RmxbzSvDfqJXoXE+RYZvCa3EqWYQ+9ELK/x79v31RWsYT0DWGyptfbMi8rNqzMWnbePc3sFxWWUkD2imw7LjgHAAAAAFCEmA/GqtTw8ccfnx+Izc3Ntc8//9zeeuutMpdsU2as1td2tD3R9nU/uj8UktTNhjw03ob2LDldGwAAoKyS9j/FLr/v/+z/7rjADmoVOO7I/M2+XVRlwkLVV8ZCG/332wLHysPslL9PtXeqUJXtf9683o5M1oWbDeyDx+rbUyW+nTItPcwy6VsqtksTFGe9YogosyzLDPMzOmNn3uM/Jdo/JiWbi223WWOjrghe5AwAAAAACC/mg7GdOnWyPfbYw00rcKoyw3PmzHG3y0vb+eabb/IDsrqf/fbbz01ju24D+lmP9qnW4/JxMRiQHWhjp0+36dPHBqYq0KGDbPwrgft9JXC/Bfrn6mEjX9TjmWwjy3KJ+CVjXUnt6eMq9NkAABAT9j7pb3Z8Ox1rZNtfc160kYOH2ielKp0JhLH3Fut/+KbARIJt+KKh/ePrYHPxcizTj0kFfiL4k99v9KNXGZa+zptEpUtpHq7j1ULqJlptjcNmOtdE2Za91ZsMqTD1V+bm4ERWZpgyxjtKeyPJnvtJKec5ltpjo90frs9iAAAAAIDjgrHBHlhjT6NGjeyAAw6w+PhgzHjhwoX23XffuelI+eqrr+z3339307qfgw46yN0vtpv9yFB74uOVlp2YYj0uH2NDjiBDNqVrF0tVVet67azzCcE2AABQPt++8on9tuY3e+ehwTb4ntfs+xqdFNvWRr54p02ffqc9OVi369nxVw+0F6bcY++/f39wmDbMxgzcNaQ/11B72egpweWmjQr2udr0uJPtkRdus3dmeOu/c5s9O+pQOzDcBgZfuf1+Cgy32egSjn2OH3VbcNknj3e3g/d75/ZtFHG/g57070PDZXaY1zdtgyMuC2kPGaZcYMF7CO+qCzaa65k1u4H9Z1wZqt+s32BfeJPbRbvUbYIdfWBXe+LSc4J9y2oY0tueOaej/S2Wf6LUbmD9j+1uz1xxbsHHff6B9s9dIl15KHz2cpEaJVmRxc7j69ophxba39ecY8/362Y37lXXivzV06m7t3x366/bge38rXvI87/mXJvc/9AoPPftkhql2I1nnWDPX1Vwn1/RqfRvlMz1YdLct2aXKhgrd01obK4iduIGO7VfrPc1DAAAAACVx0U5Y7WokLJU/cBoenq6ffHFjqdDykv9yH7yySe2YUOw1pXuj+zYwjJtxv1DvIBsqp04jIDsyjnzLE0JElmLbP57wTYAAFBOS5+zof8cak/PIvUwVGJiJxv+wm02/IyO1qJxLa81oMGuduAFw+zZ24LB1qI1tT733WyvjDje9m3RcHsfrIkNbfcj+tjoBwLtXlOknXKHf7+6is3j3+99x9juXlPEJW21U/cNZvqt+jrJ7tqJ4N3E116y3g8GhtdCOl79flaw7cFZNtFrirjayXZL/3Ps2mPbW0rDRLMtmy07K9usVl1LbnOgXTigtz3QKfb6UG6Sup89c8XpduaBqZZcJyT4qMfdsqOd0u8ce+bYZGviNZdfSPbyzsjcXCAzNqlRG3vgst72z+7e/vbFJ1rSLm3s8DN62zNntbFOJdSSSmzezh4JbOfCQ0Oef3yCJTZtZ6dceILd0jLYFEk9ux1nzww4zg5v29ySahfc54khHxHhbbBRTwff4xd9uL3e8ycfvhV8jz/9Q5h+ZIvwUx374CeXd2yNumyyW90UAAAAAKCwmC1TXK9ePWvXrp2bVhnhefPmWUZGdDqoUiB2/vz5lpcXDEvrfnX/CBUMyI75bxoBWfnqCRvcp5f16nO1TVjitQEAAETB7mf83Y5vUcssY4lNe/Ae63P8MOtz81SbuzY4v+kxvW1oMdHUxIN726CDm5pl/WVfTnzULj5zmB1/3sP2yo/B0ruJex1jA85wk9uNf9T1EZs/vFqGA569Trah3QP3m637fdg97jMvnmDvLN3mZifufYwNCsmyfeKykPs7/kn7cn2wPePzJ0PaQ4azX7T3g4vsIPW8LNvfxdeS7PsPY/YnT4hEu+JvJ9vBTRPMtvxpMye9bL0fm2p9x79mvR9502b+ke2yL9sef4xdG9ilMaNpe7v3nM6WrF28cYnNnDrVLnZB65ft+smzbfEGZUsmWPKBx9ldXSIfSE5q6qVPS3yqPXCNslKPsX/W8doCWvsB0uxsWxacCiybYrf262Zt9ZNvy0r7/r9v2VUPBwOUV038wL5ZGQzkJ7btZjce26joDFlLseP7Hmqt6+VY5uLZ9tiTgddN23htvq1UKeD4ZDv46DbWOrhwROzdqbtdeniKJQb2efbK+fbCxJftIn+fP/2uzVzilRuuILd8Uz84kbjZDi78OQIAAAAAcGL2zMRuu+1mjRsHf1yvW7fOfvnlFzcdLb/++mt+sFfZsS1atHDTCJXpShZvD8iOtkGdKVkMAAAQbdkrZtuYCx+1cW+tNcVg134124Y++JWbNtvVDvtbKzcVTqJS5VbNtXEX32/DJy2xpTrkXfWHPRFYf4Vbop61Obik7Noyyl5i025+KHC/f7jHmrF0oY258zPvfhtam0OLftzlcd6eXi3hDXXss1L1FVu5kjoeYEe7DMoM+376x/bYqpCSr1sz7LFXPg6W7Y5vbod3362Y4GBFSrD+x3a2FP2i3JJm016cbY/9ttmCee05tviPJXb9M+/aNy75MtFaH76fneLmld/itdszOn1JHVpaaz2W+N2s0/7bs0XbNtyxDvfRx3S1vRWwzU23b6Z8YLf9sMGW5QbnLVu70ka98Ja9kxZMv03qdKBdGBLcLSjREmtvtsXvv2GXvb7EZmYGX7dlS36wd372gqItW1nP4FT5xafYxUenurLL2Utm2W0v/GCvrs0J/EqTwD7fkG7fry1L2nA5TK8TLFVsW6z9fpQqBgAAAIBwYjYY26pVK0tICP6IXrlypWVlBa/cjxZlx65YETwtVKtWLUtNdT1MYQehAdl21mskAVkAAICoWjvXxl021d4pXCTm89k2N3j4ak33OrDokr/r59qYS160aau8277fFtoSL/s0v3RxRG20L8c+YeO+C2bC5gu53wZRqUaTZ+2be8HYNbXsqeBUxWjU2a71++8MM5zZxluugAS7sEu7YL+my3+0p8IlIeeutk9+Db4BElulRC64Vx519rDD2wSzXdPnzbGJ4UpB526wiXP/DE4n7WFHhH3+5RAfnx+YPqtDMEgprfdqvUM2auZa701nza1nx2BXONmL59tDy91kIdn21BeLg0HO+N3soE5F/YFk27IP37Lr5232AqLbTfvT+4MLPMZISerQxvZ0geF0+/bDNPvJtVayzARb6sXGG6UQjAUAAACAcGIyGKsg7C677OKmVaJ46dKlbjra0tLS8ksV6/79YDAKCwZk73hzUcwFZJM697Xhj02yKdOm2/TpgWHaFJs8YYwNOibZWyLEcSNtspZ5caT18JoK63Hb5OB2xg30WnwDbazap48NTO2cHR5jYHCPsYb3wwsAAMLL+OmrHQOxzh+2ZK0X6GzQyNoHp3a0amUR6/9qw88Olvw985ZfvbYIWv+rvf9uoUBshci1Rt5h1Ya1MXvtaYjm1nbX4FTmilXbS+kWMvOv9OBEvUbWushMzQrUppkFj7A32OJfii6Nu+yXP22lm6pryRHqOHbxRu8N3biBHayxsmEVGN6abS4vtNUedqa3j5IT/RCtp1Gy7epdA7Dstz93CKLmS/vTlqnUcECDxkUdp2+2lSuKyESNQj/DR7RKCQacN/5p33hlyitfgqWt8Sab5Ng/vEkAAAAAwHYxeXaiTp06lpQU/MG7detWl7VaEXQ/27YFTxjVrVvXateu7aYRTqbNe3J4gYDswI7erEpSu+dQGzeyn3Vrk2zqEyo7K9ssIdGSUjpar2ETbOwllfwAAzpeNMaeGR18jIkWfIwa3GMc8YSNbF3oZBEAAEAxVqz3qsfUa2h0shFGbpw3UUE2zLeHXAAu/DAtbNe7iYHfHcGppE7H2+TBvcMPPXYLLmQNIhbULJc6iV4m6npbFoy2hrdhe9ZoctNgRmp5LdtSKANzr9a2Z2AfZi/5zr5drYbdrJOXzZrcoK4bZ2z0HkW9xMAelA2W/pebKEKWZXh/XklNQvqmrUStm3gll/NygkHnWJOQZ7FwnQAAAAAAxJqYDMYqCJroXcGck5NjmzZtctPRtn79ehf8lXr16rmgMIpTMCDbe/QY6+vNqXgt7NgBPazB4qk2sn8vO7vP2W7o1X+MzViiUxWJ1u7UwTYw0qXRdsahQ23YeR1dKbX0uZNsxAXBx5j/OJclWdeulMcGAABlkLXR6z8WoerUDVa9qTJq1bXEekUMtf2qPdmWGd0eXGJfjtfBa1yCCwj/zStRvOy3RTZzcTCDOKX9HgVKFWcWDuAi8jbHW7HxbQAAAACooeJ1rXhcFTtHgViSabFxXiPJaqdPt9uHTrA57mp4z+qPbNwV42yOkqsT21m3c7sE2ytckvU7t5ulBKayF06yQbdOtnmhNdH0OK9/Ivg4AQAASql904bBiZytFrYScY0UZ1u8qrl1GuVaVbrULXPuW2EzagsO79lDMXXM2Nha6yC3KI3q5vfrunJ1hB74mvXBbNuGjax14Ai7656JZrl/2k8/m33z4+/mwrEt21qfRgmWFLzGN4xGluyVhw6vnjXwyhlv72+2ksVkPDnHUv1M7Q0J9ro3CQAAAADYrip0ooQY1vGSsTb6rHaWmJNusx+/3SZ77RUv2xa894Qt9G4V9JFNnRusnZayxxH5J4Mq1nnWtaPOBKXbnJcn55dqKyBzhs34wesLDAAAoEQH2l67B6eyl/5qnwYnq50GTVt5U6UVb7+me3V/U7YGjsJiXbr9tS44ldS0cSUdq5bBkpVeX7CNrHWqn7W7o9btd3MXJJqttmVhyzSXU5vdXIliW/67vb0lMF77u/3k0sSb2977N7dkt0NDShKvDDwOry/Y1rs1D06Ek7qbtXZvo2xb9kdsRL8XrvV+KzRItrbhfsnHN7eeHSJTCrr0cm3XYOfBtmE1pxcAAAAAIJyY/LWkUsHZ2cFecBISEqx+/fpuOtoaN26c309sVlaWbdmiX/MoSoFA7CODbPTMsCHGCrLS0t7zJsOYl5Ye7FcpuYUd4loq2HGpwX7cspbagq9cS1izV1JgEAAAlM6+Vx5j+7nMvY029925rq36+N1W+IdFrdrYmd5kaU38yUtprLvZDj42OBm7Mmzmz16QLXU/u7ZlcDLmbUiz37zXKOXgznZmEcHBf3b1+rr942d7JVIxzVUZwexXS7COnVoHSxT/usyWubbNNvPX4NyUDm28/mFDrbTvXTcmZon77GdXhI1+J9oV3YPdi1jmYvv4Z9dY6b5YsjL4myY+xTrtVygAHt/Irj3/GOtU0dH8M7IteE1IHfvlh6KD8gAAAABQkwV/MqtWcQxRMHbz5mBtMQVHGzWqmKt7dT+1atVy07p/v/9Y7Ci2ArGSbVuLewirMywmXs3Ae4rcVwAAipDU2vbu0sk6hQy7egmOUrtZ6Ly9rXWVSSEsn8SmbeywXbwbTj077J+X2T29W7kgVPaPM210MRelVU3b7PXv/whONuhkAx4/2U7Z2wuwlkLazDqW5qayrGuPbW4qln3z9XxbrOtA45Pt4L6n2wOHNrfDk7YHtpok1bWeHTraneefZvfu6zVWus326OxFweBgUkfrP7Cb/bNVogUr1iZY21Zt7IGBJwSDg7np9sVHS7xgaQTk5gbv13azvfdq4EoUf/+/7TV8v5m/KJi12zTV9nRvmwxL97KP5YVZ822lup2N38169j/ObunQwFp7weTWTVPslgtPt54uKJ5tiz+db++4OTFgySL73gW0E63t0cfYjW0SXMC4dcvAvh5wsh2dkmjpS9LCV+GJklHdM6yOJjLr2/tvuCYAAAAAQCExmxmbnh4MWcXHx9vuu3v116IsNTXV4uKCkelVq1ZZTk5MdspT6fIDsSq5GxOB2FLYIzl4ZXuWfxV95Smy26qApITi5gIAUM11/YeNuG2kjQwZLujiR1yTrNOFofNG2D+6erOqucS9T7bR/7nf3p9+p72jYcadNrrvXi7jL/und234zbMj3F/sXjZ6SuD+3g8Z/tbGm9fQDrspdN5tNvoEb1aELZ3wrn3pZV422Pt4G/r4nSH3GximXGDHB2fvaEkd++CnYCS/zr5ZNirWA/db/rTbpsyxlS4g28Dadj/BbrzsXJt63fluePay3nZFrwOtU8tGFnJ9QlDKfva8t5w/nOm/XI0627Wh8y7Zz472Zvn6nxMyX8OFnfNLJbc9oeC8Bzp5MzyZP39l//7Cy9Zs2MZO6XuOPeuWPdce6NvN2qpL49x0+/6ND+xfwZrGEZKtaxyD9It25bJgiWLfhjT7abUmEi3R7bAcywydv/YXe+jdRZapgGydFDu41+n2yDXB5/hI/+Ps4JTAMXnuZlv2yX/tth8j/JuwU/cC+3TqdafZwf61x20KzTuncI/HG+yht+Zbuve4Dz/nXPfaP3J+YF83SrDsxbPsX7Mq8NdOmy123N7BF2LVd/XsETcFAAAAANguzv0Xk8FYWbp0qeXm6lemWevWraOeHavtt2jhCsm6IOwff3hX4qOAAoHYhwfZyJgJxLaw1OO8yTB6tw2eyMheucjmuakQjZKtnTdZWHLdHU53lU16RvAkaaNU6+ifHAvjxDbBHrUAAADy5XiZnfXqWaIG22Zrl35v7zx6v/W5/H2bG9lIbOzIWGjDL77fnvl4ia3N2vns1lteaWyrNJG43npfv80Kh7ViTebyX2zQU2/atLlLbOXGzWbBn0IBOZadlW7Lvp9rL7z0st32o9ccI2bO/sAumzTLvlmSbtmhL9MWPebZ9tj4d+22xcE81sjJsowsbzJg5S+/F8q6ValiF40t0k8Lv7LLnnnXZi5cbZlbQwKuWzfYysWBfT3xDbtqTkaFZpmWRubyH+y6F2bb4rUh+zRztf304Zt22etp9pPXVBGGXbox+HeV3dimPhazpxYAAAAAoNLFjX58Ul6e5dkjd97gNcUGBUfPOecca9iwoeUFHuGsWbNs7tzo9YV10EEH2ZFHHukyY9euXWuvvfaa6zc2Wpo1a+bGa9asceOqIDYDsQNt7PTeLpiaOX+CDRg+dccTJh0H2fjRvSw1MdsWPne2DX3Fa89fN9vmPdvPRrxWaM2kfjZmUl/rqGTVxVOt15AJwXbHX3eRTe11tW2f08NGvjjUujbKtDkP9rWRH3jN+e2BxzlnnA0YOaOYxxmY3uH+AADVgf/9n5FRXaNniIR69VRXtW3g2KG/O3bI+PxJO/OWX4MzsYPBgwe78aPPPOrGof552xq79WAd09e3z8Y1tfPeD7bLlQOudOPx48e7MYAdFfX3lXr8Jnt3yFpTrnba9F2t278L9n3E3xcAAACAWLd+Y6Y1blhyKa077rjDmyra7bff7k0VNGDonS7uGLOXr27YsMGWLFnipvVAu3TpErXs2OTkZLd9v0TxokWLohqIrYoKBGIfHxJDGbHbJXXuZ+NuOs2SvduS1Lmv3T3CC3Au/8iezg/Eygxb4C6hT7QuZw23vp1D/uian2bDx/UOBmIj4iP7z+fB2mxJXQfZmGt6FHicyV0H2pg7elmK1/sVAAAAyu+pBxrbZ+nqe3WTHdl/k/0z1ssVA1XB3tn23CAFYs22/JZstxQKxAIAAAAACorpWkLfffddfuaIArFHHXWUJSToZErkaHvKiFUGrigI/MMPP7hpBO0QiH27sntdDWeRzZmVaSndB9ukaVNsyisaptvk0f2si6KemQtt8gPjbGFwYU+aPfHy7GAfssldrN/oyd56U2z6xMHWrcFi+2h+5ILOCx+536b+omBroqX2HFrgcU4a2ds6Zs+xJ/6bFlwYAAAA5ZdZy867p5m5Q7BGa+3WR7IIyALlkbTN/nPzGmuvi1bTm9p9IxItvxgQAAAAACCsmA7Gqlzwt99+m9937J577mmHHnqom44UBWK1XdH9KACsgCy2W/jSWzZ/dSwHYoPS7h1kI56bY2mZZon1EgNDoDEr3dJmTbIRA4bapIKR2KAPRtugu6fbwpWZlp3jrZe41Vb+ON3GXDHU5mz2louIhTbh2oE25u2FtnJDtlmCHmNgSPAe46CRNiOkuyoAAABEwE+J9o8nmpo7wm+2xm64eatrBrCz8uz+e9bakcmBHy3Zjew/99S3p2KvYBIAAAAAxJxgn7F5efbIXbHVZ6xPmaunnHKKtW3b1t1WwPSbb76xzz//3N0uj65du9rhhx9u8fHBmPTixYvtnXfesZyc6EfEqmKfsQAAoHzoMxalQZ+xO6e4PmNDpR6fZdP6bbO372lot/xEn5ZAaRT++0o9fItNHrTFPrunkQ0L/B0Vhb8vAAAAALGOPmNDKDA6Z84c27Jli7utwKmCqGeeeaZ3omrnJSYm2sknn2xHHHFEfiB21apV9v7771dIIBYAAAAo3mIbecFt1qvXbQRiIyTt/Xp2UP9gIBZA2aR9Uce69S8+EAsAAAAAKCjmM2MbN25svXr1ys8kCZWdne2yZOfPn58frC2OAq/t27e37t27W1LS9mj3X3/9ZW+++aZlZlZcjSUyY8Mb+tBYS/Wmi7V+vj0zcoLN824CAFAVkBmL0ijrBYc1Vf/+/d346RefduPSuuSCS9x44sSJbgxgR/x9AQAAIJZlZWV5U8DOIzPWoxNRp556av6Jy61bt7oMVgWPRRmuym699NJL7eyzz7YuXbq4ZevXr+/mi8oct2zZ0o499li33EknnZQfiNV2fv75Z5syZUqFBmJRtNT27axdaYYOqZbsrQMAAAAAAAAAAADEomBmrOXZI3fGVmZsuL5iP/nkE5cF26FDBzvqqKMKZLfuLAVfP/30UxeMrQxkxgIAUPOQGYvSIDN25/iZe2VF5h5QNP6+AAAAEMvIjEV5kBkbcOSRR9qee+7pppXBqiCsBlEAVT/qFJzd2YxWLf/ZZ5/ZpEmTKi0QCwAAAAAAAAAAAKD6i8nM2M6dO9vRRx/t+niVxYsX2zvvvGM5OTnudmHKMtlnn30sNTXVGjRoYHXr1nWRZgVx1a/shg0bLC0tzRYsWBAzmahkxgIAUPOQGQsAAAAAAABUvtJmxpaHnxkbDMbm5dkjd8VGMFaBWJUgVpli+eOPP+ztt9+udunmBGMBAKh5CMYCAAAAAAAAla8ig7ExVaa4TZs21q1bt/xA7KpVq6plIBYAAAAAAAAAAABA9RczwVhlihx//PGWmJjobitjZMaMGQRiAQAAAAAAAAAAAFQ5qk4cDMbGuX8rTb169ezEE090/b2K+nl9//33KeELAAAAAAAAAAAAoMqq9MxYZcL27NnTdtllF3dbgdgPP/zQlixZ4m4DAAAAAAAAAAAAQFVUqcFY9Q2rjNg999zT3c7NzbXZs2fbTz/95G4DAAAAAAAAAAAAQFVVqcHYI488Mj8Qq5rJ8+fPdwMAAAAAAAAAAAAAVHWVFozt3LmzG+Ligh3W/vbbb/bZZ5+5aQAAAAAAAAAAAACo6iolGNumTRvr1q2bxccH716B2BkzZlhOTo67DQAAAAAAAAAAAABVXYUHY1u2bGk9e/a0xMREd3vVqlU2c+ZMy87OdrcBAAAAAAAAAAAAoDqo0GBss2bN7JRTTrGkpCR3OyMjw2XEZmVludsAAAAAAAAAAAAAUF3Eq89W/Rdt9erVsxNPPNEaNGjgbisT9v3337c1a9a42wAAAAAAAAAAAABQnVRIZmxCQoIdd9xxtssuu7jbCsS+8847tmTJEncbAAAAAAAAAAAAAKqbCgnG5uTk2LfffmuZmZmWm5trs2fPJhALAAAAAAAAAAAAoFqrsD5jly9fbq+++qorTTx//nyvFQAAAAAAAAAAAACqpwoLxsr69ettwYIF3i0AAAAAAAAAAAAAqL7i8/LyvEkAAAAAAAAAAAAAQKRUaGYsqqikbjbkofE2tGeS1wAAAAAAAAAAAACgJARjUaJuA/pZj/ap1uPycQRky+rQQTb+lek2/ZWxNrCN1wYAAAAAAAAAAIBqjWAsSjT7kaH2xMcrLTsxxXpcPsaGHEFAdmeldO1iqfUCE/XaWecTgm0AAAAAAAAAAACo3gjGohQybcb9Q7yAbKqdOKwKB2S79rORD02wyWMGeg0RUsJ2V86ZZ2lZgYmsRTb/vWAbAAAAAAAAAAAAqjeCsSilYEB2zH/TqnZA9oCu1rV9iiUlercjpaTtfvWEDe7Ty3r1udomLPHaAAAAAAAAAAAAUK3F51meNwmUJNOVLN4ekB1tgzpTshgAAAAAAAAAAAAIJz7O4rxJoDRCA7LtrNdIArIAAAAAAAAAAABAqLg4bxj9+CSXGjvuzmFuBipGs2bN3HjNmjVuXPUkWZfLRtvtp7ezxOxFNn3kcHtifqY3r4IldbG+Vw2wEzunWkojr05wTralL59j0+8ZbZOXmA0cN916tw3O2tEim9rrapvg3UpqfaKdN+A069YxZHsB2elpNueNJ2zsK/PMf6al3+5AGzu9t7UrdF+hko8ZaFef28M6t0y2RP9us9ItbeFHNuHWCTbHawIAVF3+939GRoYbAwAAAAAAAKh46zdmWuOG0U02HDjsTjemz1iUUabNe3K43fHmovwM2YEdvVkVqeNAGzvxbuvXvZ2lBP5msrOy3WAJiZbcuovt0y64WPbmYHt2YJaT4912w1bzm8162LD7hljvQwPba5S4fZkcs8TkVOv2j9tt9CXbn2jpt1ucjtb7rkk2aVhv69om2RITtm/D6iVb6oGdrYu3JAAAAAAAAAAAAKoOMmMrSdXPjPWFZsgutElnD7XJ3pyK0Pe+KdZv30TLXjzd7rj5CZvnp6wmpdqJ5/a11F/G2IRZXptcMtamn9XObPFU6zUkXH5qDxv+WF+zTyfZpDdnW1p+sm+ynTZynA3ummwW7nmWuN2iM2N7jJhkQ48IbNcybdHb423k4x9ZenCWWfMeNmhED9t67ciw2bQAgKqFzFgAAAAAAACg8pEZiyok07bkeJMVroft0zpYzzdtfkggVjLTbMazhQKxpfKRjb5isI3+T2ggVtLtrfs/skWaTEy1fY5zjeXXZpD1dYHYbFv0+u12dWggVlZ/ZE8QiAUAAAAAAAAAAKiSCMaiXDpeMtZGn9XOEnPSbfbjt1doVqzZ15a2OjiV2nmQdYnuBQxmmYssfYMmkiy5yH5id06Xcw+xVE0sm2Fjnl7o2gAAAAAAAAAAAFA9EIxFmRUIxD4yyEbPLJBKWgEy7T9vzHGZpIlte9ndL06y8bcNtBNblz8qm9S6o5143iAbetdYG/vQeJv0yhSbMm2odW3kLRAhXVNT3Hjlos8tzU0BAAAAAAAAAACguiAYizKp/EBsUObMkTZo+CSbsyxw/wnJlnpobxvyxGSb/Nhw69u5LEHZjtbvvkk2+YkxNuSiXtbjwHbWrn2qqZCwZaZbZrZbKOIy0ud5UwAAAAAAAAAAAKguCMZip+UHYi3d5lRiINaXOX+yjRzU1/oOGmdTv0qzzByzpDbdrN/IMTboUG+hUupx2x3Wd99ks6yVNu+1cTbi2n7Wq1cv69XnbDv7ggm2YLO3YIQlJkS7xjIAAAAAAAAAAAAqGsFY7JQCgdiHB9nISg7EhspcNsMm3DnY+g4cb3Nc7eJUO/HcvsGZpdLXeh2goGimzRk/0EY8O8Pm/aIN+RK9ceSszQim2qa0P9sIxwIAAAAAAAAAAFQvBGNRarEciC1g9Vt2/6xgD6yJiQ3ceAdJydbFm9yugdV28da1tuJL11BA0lnH2D4l9RkbdrtFmzprgWkvJnY80Yb1JBwLAAAAAAAAAABQnRCMRakUCMQ+PiRGArFdbOCwQXZie9ej63ZJXaxf5xQ3mbl+hRvnW51hLhc1ZR87pqNrCbHWMrI0TrUjh50W7CfWk3zMEBvz9y5FZ68Wu91ivD3JZizWmsnW9fJxNrJPwftIan2iDXpopA30bgMAAAAAAAAAAKDqiBv9+KQ8TYy7c5hrQMVo1qyZG69Zs8aNY9kOgdi3Q0v3VqYeNvLFodZV2arZ2ZadE2y1xERLTAiM0+fZhFtG2NQlweag0+zuyYOtiyKeOYF1FAdNSLO3zr7aJgQmu143wUYeFwzkbp8f2F5iYHNfTbdFHXu5+1v0ei+7+ungYkHFb9dsoI2d3tva2SKb2stv8ySdaEPHDbIeKV4ZZH/9gMR6aguzDgCgSvK//zMyMtwYAAAAAAAAQMVbvzHTGjeMbsXSgcPudGMyY1GihS+9ZfNXx1ogVhbZ7M8X2soN2cEAbL3gYJkrbdGsSTZiUOFArLxlox+ebovSA+soyKp1tmaYf0p8zoNDbPQr8yxN28yfv9IWvj3Ghty50FsqnOK3W6zMGTZm4EAb89ocSwtdP/BUstPTbPbzk2yKtygAAAAAAAAAAACqDjJjK0lVyowFAACRQWYsAAAAAAAAUPnIjAUAAAAAAAAAAACAKo7M2EpCZmx4Qx8aa6nedLHWz7dnRk6wed5NAACqAjJjAQAAAAAAgMpXEZmxl5AZi1iU2r6dtSvN0CHVkr11AAAAAAAAAAAAgFhEZmwlITMWAICah8xYAAAAAAAAoPJVeGZsXp6LxwIAAAAAAAAAAAAAyskPv1KmGAAAAAAAAAAAAACigGAsAAAAAAAAAAAAAEQBwVgAAAAAAAAAAAAAiAKCsQAAAAAAAAAAAAAQBfFxcXGmAQAAAAAAAAAAAAAQOWTGAgAAAAAAAAAAAEAUEIwFAAAAAAAAAAAAgCggGAsAAAAAAAAAAAAAUUAwFgAAAAAAAAAAAACigGAsAAAAAAAAAAAAAEQBwVgAAAAAAAAAAAAAiAKCsQAAAAAAAAAAAAAQBQRjAQAAAAAAAAAAACAKCMYCAAAAAAAAAAAAQBQQjAUAAAAAAAAAAACAKCAYCwAAAAAAAAAAAABRQDAWAAAAAAAAAAAAAKKAYCwAAAAAAAAAAAAARFBcXPAfgrEoWVI3G/LQeBvaM8lrAAAAAAAAAAAAAFASgrEoUbcB/axH+1Trcfm4qhuQTeptI1+cbtOnTbLhx3ltpdYjuO70yTZyp9cth0vGBu4zcL/jBnoNAAAAAAAAAAAAqEpiIhgbHx9v++67r/Xt29euuOIKGzJkiF155ZXWv39/O/jggy0xMdFbEpVh9iND7YmPV1p2Yor1uHyMDTmiCgZkj+lq+zQKjBOSrUv3HsE2AAAAAAAAAAAAIIoqPRibnJxsF1xwgfXs2dNSUlIsISHBtStA26hRIzvyyCOtX79+1qZNG9eOypBpM+4f4gVkU+3EYVUwIPvxHFuwITDOSbd5sz4KtuULPKer7rbxkyaUIWsWAAAAAAAAAAAACK9Sg7HNmjWz3r17W9OmTb2W8JKSkuyUU04hIFupggHZMf9Nq5oB2cypNvKCXtbrzH42+gOvLV8763ZEF0tNbmDkYAMAAAAAAAAAACBSKi0Yq9LDxx13nDVo0MDdzsnJsf/973/2f//3fzZu3Dh75pln7PPPP7fs7Gw3319embSoLJmuZPH2gOxoG9S5ivYhCwAAAAAAAAAAAERZpQVj27Vr58oSiwKuM2fOtA8++MDWrVvn2jIyMuzrr7+2KVOmuGlp2LChHXjggW4alSU0INvOeo0kIAsAAAAAAAAAAACEU2nB2L322sv1Cyu//vqr/fTTT266sL/++svmzp1reXl57naLFi2sbt26bhqVJRiQvePNRZUTkG3ewwbeNt4mvTLdpk/3hskTbMxl3SzJBtpY1zY2MBWqh418Ue2TbaTfL+xxI22yW3aodW2khiTrep23vcAw+bYebrEdBO5/0H0TbPI0b9lpU2zSY8Otb7h9cMnY4DLjCj6aUAPHlXB/TpJ16TPcxk+akv/4pk+ZbBPuG2Q9mnuLAAAAAAAAAAAAIKZUSjBWwVRluYrKE//2229uuii///67bd682U3Xr1/f6tSp46ZRmTJt3pPDCwRkB3b0ZkVTx4E2dvxQ631oqiXXM8vOyg4OdVOs4+nD7YnbUkvf72t2hmV46+fztxcYNG8HyYH7f2qo9do3xWpna7lAW0KiJbfpZv2itg9q24nDxtnt/+hmqY385xxoTkyylH172dDxYytm3wMAAAAAAAAAAGCnVFpmrC83N9e2bt3q3QpPy/iZsYglBQOyvUePsb7enOjoYcNH9LZ29QKTq+fZpOF97ew+ZweHM/vZ+FkrLenQrpYaXLhks8bYQLf+OJuzQQ2ZNme8t73AMPD+2W6x7Wpb5wt7W+ryGTamfy9vuV7W7/E5lq7ZgX1w4oWnuSUjqvmxNvCYBrb4tZHW70z/8QXu9/4ZlqagbL12dtrlA0v/vAEAAAAAAAAAAFAhKiUYGxpcVani2rVru+miaL5f0hixJtO25HiTUZZ0US/rmhyYyF5ok64YYZPnZwZnOOn21r1D7Ik5oW2RlmiJm+fYuCvG2UervaaA9LdH2thZLhxrSXt0sW5uKoIa1ba1b95uQ5/1gr6e9I/H2eDxcwKvQOCRte1mfelOGQAAAAAAAAAAIKZUSoQzOzvb1q1b56YTEhKsffv2broou+++e35p4g0bNtimTZvcdHESExPt4IMPtv79+9tVV11lQ4YMceOLL77YtWs+yq/jJWNt9FntLDEn3WY/frtN9tqj4byDO7oSxJnfTbfJYWOumTZj5rwCActIW/n5BPvImw41Z84iFxS1pKaRz1DNWmAznlzo3Sjkg6n29UpNpFi7Qyuw314AAAAAAAAAAACUqNLSTRcuXGjbtm1z03vttZd17tzZTRfWsmVLO+iggywuLs5l0y5durTEssZa58ILL7QjjzzSGjVq5NYVjdVXrdr79etnbdq0ce0omwKB2EcG2eiZ0cxK7WGpKRpnW9rP4cKhnlkrba03GXmZlvZDmjddSK43TqxtDbzJiPkrzWZ4kzuaZ2npwb5tm6Yc4sYAAAAAAAAAAACIDZUWjFVQVYOoBPFRRx1lxx13nAueikoTKwh75plnWv369V3b2rVrbd68eW66KAqwnnHGGS7oWpykpCQ75ZRTCMiWUcUGYkNttYy/vMmaImdrMOu2COkZxV+cAAAAAAAAAAAAgMpRacHYnJwc++yzzwqUK95///1dWWGVFB48eLB17949v5zwli1bbNasWZaVleVuh1O3bl2X9eqXNFYG7RdffGH//ve/bdy4cW6s235mrbZ97LHH5geAUTr5gVhLtzkVGoj1FPeuTartShnXJKlNg+WJM7KiWaAZAAAAAAAAAAAAO6vSgrGSnp5u06ZNsz///NOVIC6Klnv99ddtyZIlXkt4KnfcrFkzN61+ad9++2376quv8gO4Guu22jVfFIjdb7/93DRKViAQ+/AgG1lhgdh0y3AvY5Kl7lNMr6wnpJqrZhxrmqdaD2+yoFRLqudNFqXIdaW3tW2pcbat+KX4rHEAAAAAAAAAAABUrEoNxsr69evt1VdfdcOvv/6an7Wam5vryhhPnz7dXnjhBVu5cqVrL86ee+6Z3z/sjz/+WGTwVu0KyvoB4NTUVFcWGcWrvECszLM5S4L3l3LEQDsxmAxaSEcbdMI+5ciMrW0NdvUmI2XhysDeCmiUap07upaCDu1nh7hgajEa7WMnnBX2CVvHy060fRTMzV5s818PtgEAAAAAAAAAACA2VHow1rd8+XL74IMPXHBWNm/ebB9++KEtXrzYBWZLohLFfj+x27ZtKzGLVoFelT4WZcf6/dIivAKB2MeHRDUQm9RzuE2aNt2mTxxeIOj60cufmQvJN+pqgx4YYj2au+ag5l1t4Jg7rFdL5YjurEW21j2dREvt3NvChz3LaNY8W+q2nWI9rin4mJM697Mx13ezZO920ZKsy9/H2fBTQ5cMtPW520acnuqCzys/fNomB2cAAAAAAAAAAAAgRsRMMDaS1B9tcX3LijJwSxPkRZhA7NvR7Zv0kG5dLDkhMNG8m532t2Cbs3Cc3f/6IhdsTWx9og2dON2mvDLFDdMnjrTeHbMDj2+GpQWX3glpNnVucK2kzgNtsrfNSSOKLg5cem/ZE++Gf8yTR/e1thkf2ZzFwSWLtHiOzd6QYt0un2TTpwTXnTJtst39j8B+CszOXDjZ7n9kYXBZAAAAAAAAAAAAxIxqGYytVatWfpZsUZQJm5CgiB9KsvClt2z+6ooJxMrXs+dZek5gYvVse+vVYJtv4dNX28D7p9vClZmWHVgmsV6iJSaapS+ZbZOGq3RysMz1zkp7fKxN+CrNMnW/3jYzMiPzXNOevdqGPzvb0tKDObvuMSdkWtqsSXbHkDGlCB6n2egrRtgkPT4LrOvWN8tOT7PZz42wAUMnGaFYAAAAAAAAAACA2BN3z/jn89R36rg7h3lNlUelhs8++2xr3ry5bdq0yV555ZX8ssWlcfrpp7t+Y0V9xs6cOdNNh3P00UfbAQcc4KZXrFhhU6dOze+vtiI0a9bMjdesWePGiJDjRtrk67paUvZCm3T2UEr3AgBiiv/9n5GR4cYAAAAAAAAAKt76jZnWuGFEO67cwSXD7jSLi6tembG//vprfunhjh07WufOnd10YXvvvbftu+++blqBaK1XkYFYRE/qfqnBPl/TV5AtCgAAAAAAAAAAgEpVrYKxP//8s/35559uOj4+3mW/HnfccdakSRPX1qhRI3e7Z8+elqg6tAGrV6+2BQsWuGlUcUm9bVD3FDeZ/stHNs9NAQAAAAAAAAAAAJWjWgVjc3Jy7P33388v/auA7P77729///vfbciQIda/f3932+8rViUCZ8yYYVlZWe42Yt1AGzNprA05q5ulFsocTz5mkI19ZqB1UXvmPJvyyJzgDAAAAAAAAAAAAKCSVKtgrKiP2VdffdV++eUXV4K4KKtWrbLXXnuNPlurmNrJ7ezES4bb+MnTbcorU4LDtOk2aVgva6dAbFaazXh4tE3NDC4PAAAAAAAAAAAAVJZqF4yVLVu22DvvvGMvvPCCLV++3Gs11y/ssmXLbPr06TZ58mQXuEVVMsUmPT3D5i1Lt+xss8R6icHBsi07Pc3mzRxvI/oPtnGfE4kFAAAAAAAAAABA5Yu7Z/zzecogHXfnMK+p8tStW9fOPvtsa968uW3atMleeeWVcgVM27RpY6eccorrHzY3N9fee+89++mnn7y5latZs2ZuTGYuAAA1h//9r64SAAAAAAAAAFSO9RszrXHDQn1iRtglw+40i4urnpmx0qpVK+vZs6cLxMrKlSvtt99+c9MAAAAAAAAAAAAAEG1VLhhbv359a9y4cZHDnnvuaWeddZbLsE1KCka0lX3ywQcfWLZq2+L/2bsXwCjKe///n4iswgoYoUbRiBovQVuiNVKhViOlqYV4CZVGrVHb0Ar2CL0E//2RVoM9pLamVfAoaWtabawaUVLbQC2lGiyiB9NKqJZUG3ow3mLByGWNLgb++52dDZvNJtlcNhfyfumws8/OzM7OzmXzfOf7PAAAAAAAAAAAAAD6wIBvpnj37t1KTU3VJz/5SSUmJiohIcGdOjbWf+yTTz6pbdu2uSUDA80UAwAw9NBMMQAAAAAAAND/aKbYdfTRR+vLX/6y09zwUUcd1aVArAWY33zzTT366KMDLhALAAAAAAAAAAAA4GC23xkGbDB2xIgRuvjii51s2Fg1Nzc7mbSvvvqqHnvsMWdobGx0XwUAAAAAAAAAAACAvpNQdG+ZhWUHXDPF4SzIumXLFlVXV2vXrl1u6eBGM8UAAAw9NFMMAAAAAAAA9L++aaZ48cBvpthYZaX1HfvUU08dNIFYAAAAAAAAAAAAAAe/AR2M9fv9+vOf/6x33nnHLQEAAAAAAAAAAACAwWFABGOtf9gLLrhA1113Xasmivfv36+jjz5ahx12mFsCAAAAAAAAAAAAAINDvwdjJ0yYoC9/+cs666yz2gRd7fmUKVN0/fXX67TTTnNLAQAAAAAAAAAAAGDg69dgrAViv/CFL2jkyJFuibRv3z41NTWpubnZLQkGZTMzMzVp0iS3BAAAAAAAAAAAAAAGtn4Lxo4ePVoXXXSRPB6P8/zDDz9UVVWV7r33Xv3iF7/QPffco5UrV2r37t3O64cccojS09N11FFHOc8BAAAAAAAAAAAAYGBKcIZ+C8aeeeaZTkDW+P1+Pfnkk9q8ebOTGRvy+uuv63e/+5327NnjPD/iiCOc5owBAAAAAAAAAAAAYKDrl2CsZcOeeOKJ7jPplVde0bZt29xnre3YsUPPPfdcS5D2mGOO0eGHH+6MAwAAAAAAAAAAAMBA1S/B2BEjRsjr9TrjH330kerq6pzx9rz99ttOM8bG+pe1PmQBAAAAAAAAAAAAYCDrt2aKQ/bv3+8MHbGs2M6mAQAAAAAAAAAAAIABY//+/gnGWnC1ubnZGR82bJiTKduR4cOH65BD+j1uDAAAAAAAAAAAAAAx65cI5/vvv69du3Y54xZkPe2005ygbHtOPfXUln5ibT6bH33IO1Xz71yu/OnBpqUBAAAAAAAAAAAAdK5fgrGWFbt169aWpocnTJigs88+2xmPdNJJJyktLc19JtXX12vv3r3uM/SFqV/NVcapycq4cVkfBWQzVPhQpSory1U4zS0aFPK0tNLWe2lgDAAAAAAAAAAAAENdv7X9W1tbq+3btzvjlh07ZcoUzZ492wm+jhkzRuPHj9cll1yirKwseTweZzrLin355ZedcfSdDXfnq2Rdg/yeJGXcWKz5U8iQBQAAAAAAAAAAADrTb8HYpqYm/eUvf2lpcjghIUHHHnusE4C97rrrdMUVVziBWSs3fr9fTz/9dEvzxuhLPq25Y74bkE1W5kICsgAAAAAAAAAAAED7LMaZEAzGhgKefe3111/XqlWrtHv3brckOp/Ppz/84Q/atm2bW4K+FwzIFv+xnoAsAAAAAAAAAAAAEIND+isQG/LWW2/p17/+tdatW6fGxkbt27fPKbdHy4J99tlnVVZWRiB2QPA5TRYfCMgWae4kArIAAAAAAAAAAABANIcoYb+coR81NzerpqbGCbr+z//8j5YtW+Y83n///frrX//qNFGMgSI8IJuirEICsgAAAAAAAAAAAEA0/dZnLAazYEB28e/r+iYgOy5Dc39cqvKVlaqsDA4ry5Zr0ew0dfSu3kkzNd/mW3FgvsonVqqsZInmXpjoTtWOwHvm3bJcZStWtpq3vHRpp+8bVWq2lpS5y7l/kTKJXwMAAAAAAAAAABz0CMaim3yq+dmiVgHZvFT3pd6UmKvie/KVdUaShjf75W8KDM2SJzFZU69bopKCzCiBUa/SbliqsqJ5ygzM5x2h4Hw2yKPE49OUtbBMZVHnDbzljEKVleYre3KyEkd4Ws3rTUpx3rfszjzF/HG9mSosyFOaxX8bq7XsG0Va4wu+BAAAAAAAAAAAgIMXwVj0QOuAbHZRsXLcV3rHcE38YrZO3rNBy+fmaNbsWcHh6gKVvdjoTJE4JU8LpzmjLbxXLtatl6TII78aNpapICfrwLyX5ap4bX3gFZt3roq+khycKWRyvopvTFfisMCne7VSxdeHz5ujggdq1GjB4FOzVVCQ4c7UAe9Uzf/JXKW7gdjl3yokEAsAAAAAAAAAADBEEIxFD/n0YbM72us88mqzSuYXadXrYRFMX43Kv79IFVstpOrVpBnhIeB0Lbg4NTCn1LixRPNvK1dNq+Bno6rumqeidQ2BcY9SLp6rmcEXArzK/dJUJQXG/FsrdOu3SlS1PfhKkE81Kwo09+FaN5ibo7kTgq9El6q8H+Yr8/jA2jTWqHRJoVa1Wh4AAAAAAAAAAAAOZgRj0SOpc5aq6PIUeZobteHeW1XulveWhudK28kkrVfphq1OUNQzfqIyg4XStCyljQs8+mu15idr1F4SavW9G1RnI94TlHa+U2QptUpPdcK4qn6wVLXB0jZ8j1Rq8y4bS9bEiKzcA1KVXVSg7JMDy2uqU8WSAlW0t0AAAAAAAAAAAAAclAjGottaBWLvnquitb3d/q5P9Vvq3fEo/vm2nMaKRyeqpbHhkxOD/cDueE1VHa2Or06NTkA1UUmhzl8/laxj7LHpNW3Z6JS0o0r1bobrMcnRmir2KPmWAuVNSpT8dar4/gKVEogFAAAAAAAAAAAYcgjGolviH4h17XMfo3llj5MZG1WTTx2EcQMOBFTb2Ls3GOTtQN32jj5vstInWyexkm/zKj1CIBYAAAAAAAAAAGBIIhiLLmsJxFpzvvEMxHbmU8foKHv079UepyDMCO+BbNmopiopGC+VIvu8HT5coZfak5Lo5N/K3xwtHFynynurnYCuN32+Sgoyg9m6AAAAAAAAAAAAGCL2OwPBWHRJq0DsXXNVGNdArFeJJ7cfxkw+M7mlSeINTknAdjdbduwJyugoAuqd6AZjG1S/ySmR6t4NBnVHnKCJk52SdmQoOcke/Wqoa3nnVvauLtSS39Y565I4Za6WLSQgCwAAAAAAAAAAMNQQjEXM+jYQG5TyqTyFunRtxZupvClORFQNW9YdaJL4txu0xVbLk6rM77QfAE2/capSbKRhi6pedIqkbRV64XUbSVT6Ne28b4D3yixNGh0Y8W/VC78PlkVTe98CLXICsh4lXThXRTekEZAFAAAAAAAAAAAYQgjGIiatArH3zu+TQKzj2EwtLs5VWngUc1yG5v9krtItIOqrUeXPaoLljlUqedLNSJ08V8u+O1PJrSKgicr45nItutACuYHP8vByVQdfCKhXyaMbnOaFPSdnB943T+njgq8EeZU2e4lKrkoNbAe/6lbfp/JONkPtfYtUstFZolIuuVVFc9oL8QIAAAAAAAAAAOBgk/DDkjJrsFhLCxc6BegbY8eOdR537NjhPA5kbQKxqy24GE8ZKnwoX+mjfap57m1NnGLvLfmbgv2zekbYswB/g6oC61PcJjDsVebCZZp7YZIznwnNK49HnmE24lPtI7cq/8Fapzhc6jXFWnxlaksWa9t5/WpYV6L5d6wJLCVcnpZWZitFdarIWqBSt9RZn1sC00+2dpH9qvvtIi24r+37AgAOfqHr/549bXo7BwAAAAAAANBHdu72acyo+LZnOmfhD5xHMmPRqdqHV2nz9r4KxLa297kFyrujUnWNficI6wRi/T41/KNSxV/PixKINT6tuSMvMF+Fqrc1yu8PBnCdwZl3jZYv+mrUQKypfTBfX120XGv+0SBfU9i8zX41bqtWhbPsyEBsRwLrc9sSVbxqQV2PUi4v0lIyZAEAAAAAAAAAAA56ZMb2k8GUGQsAAHoHmbEAAAAAAABA/yMzFgAAAAAAAAAAAAAGOYKxAAAAAAAAAAAAABAHBGMBAAAAAAAAAAAAIA4IxgIAAAAAAAAAAABAHBCMBQAAAAAAAAAAAIA4IBgLAAAAAAAAAAAAAL1qvzMQjAUAAAAAAAAAAACAOHCCsfv3W2QWAAAAAAAAAAAAANBzwfgrmbEAAAAAAAAAAAAAEAeHJOyXbAAAAAAAAAAAAAAA9B4yYwEAAAAAAAAAAAAgDgjGAgAAAAAAAAAAAEAcEIwFAAAAAAAAAAAAgDggGAsAAAAAAAAAAAAAcUAwFgAAAAAAAAAAAADigGAsAAAAAAAAAAAAAMQBwVgAAAAAAAAAAAAAiINDEhIkGwAAAAAAAAAAAAAAvYfMWAAAAAAAAAAAAACIA4KxAAAAAAAAAAAAABAHBGMBAAAAAAAAAAAAIA4IxiImo1Lu1e3XPHZg+PJ9+uJo90UAAAAAAAAAAAAAbRCMRUyOHul1x1wJwzWcvQcAAAAAAAAAAABoF+E0xGSUx+OOhfi0e487CgAAAAAAAAAAAKANgrGIyVEjh7tjrvcb9MZH7ji6wKupNxSrtLxSlZXBYel1VpytwocCz58o06JpwSmHhozg564sV+GQ+twAAAAAAAAAAGAoIBiLGByvERGxWL33jurcUcTKq8xbSrToklQleSV/k98ZZNv2wnRNtD54hyUq7fwMZ2oAAAAAAAAAAAAMbgRjEYOTNOoId9TVtPMN7XbHEaMJucqenBgY8anmV7maNXuWMyy4L1C0rlpbdgUemxtVs77KpgYAAAAAAAAAAMAgRzAWMUjUoYe6o67d7/3NHUPMppyiJHvctUXrHm90ilr4KlR4dZayLstV0VNuGQAAAAAAAAAAAAY1grGIwZEaPdIddfj05o7X3XHE7Ijh8rijfvcRAAAAAAAAAAAABy+CsejcoV4d7o4GvaN33nNHAQAAAAAAAAAAAESV8KOSsv0BumvxzW4R+sLYsWOdxx07djiPA9roRSq49JMa5T7Vrr/pF78rUp37dGDwKu2SPOVe/mmdPM4rz7BgqX9Xg+pfrFTxHRWqDxa5EpXxlQXKmTZJSaM9raffvEa/vLtcNb5g2QEZKnwoX+mjfar+aY4KN2dobkGeMk9ODM7f7Ffj69VaeXeRKmqDc5iMW8qVP9nrPouwq1rFVxeqKnLZbZoqjvL5wt6v8UvB9/BtLFbObe33Oeu9plhlV6bKE/j2KnIWqLTNZwzKLlqpvEke+V5crpzvrwqU5GlpZbZSbL6sBVp54VwVzslUSmIw19ffWKc19xWqZF2w+eXULy7SgsvTley+rqZG1T1dqsJ7q9S6gebOPjcAHFxC1/89e/Y4jwAAAAAAAAD63s7dPo0Z1U7sppfMWbg48G8CmbGIgWe4WnUZ2/j6wArEeqdq/j1lWnJDplKTvPLIL3+TDYFVH52klLPTlOJO6hg3U4X3lyn/i8Fgoac5Yvrzc7Xk/qXKS3WnjyYxT0t/nq+sUxMlf3BeDfMoccJU5RUF5p0QnMz4m/YElx/WNnHw/QKDL/CaW9Y+rzILStp+Pv+B98tonbrcLt+DT2uLE4BNUfp1yU5ZWzn6dKoFUX3613MWiG3NO2epShdmKSXwns56NAe2W2KKshYuU+F0r1IDrxd9ZaqSRx94XSMSlTIjX8sKMoILAQAAAAAAAAAAOIgluAPBWHRuxBEa4Y6a3bvecMcGgmTl/Xe+Mid4JH+Dqh8oUM5lszRrtg1ZyllUpurXw7OP0pX/o3lKHxcY9dWp8o5cZc1qPX3N9sBrI1KUXbBI0UOHwzXpy9lK3lapwuuzWubNvbc6mPXpSVHGVenOlGbDHXnBaVa7Iexd1VrmzBMYvlasDcHSdiV/pUhzpyQGxvyqX1us3Fafr1y1e1OUPinWuzdWacMrwXTY5EkzA1uvLe815+pki8Vur1HF6mDZAcnKmHGMtq4IbOfQZ8hbrg0NFlJOVPp1JSq4PEW+zWUquNp9/bJcLa8O5sMmTsnR3LBANQAAAAAAAAAAwMFsQAdjR4wYoc9//vO69tprddxxx7ml6GujPK0Dfbt3Pu+ODQAz5irzVIscNqr63vkqXFGj8JZ3fZvLVXhzsUIN93qvuVJTkwIj/jpV3LqgpVndEJu+4BtlqnVii1OVc2O0cKVHnsYqFX2rRNUWuHU1ri7U0vVu0PHMTE11xnoqXbkXpgTeUWpYV6R5d7Vu5teCnvm3Vqq+8/TaFqt+XxNcxvFpmtkmMOrVlZOtGWOpfmOZqoOFYTzaW/uIbn0gbDtvX6Win7mB6MREJW7foKWLwpt5btSqO9YEt6mSdMoUpxAAAAAAAAAAAOCgN2CDsaNHj9ZVV12l008/XUceeaRmzZqlGTNmOAFa9K2jR4YHY316573wcGf/ypk2UbZ2vhcfUeHaztbrQKCxcWOZSsP6dW3FV67KTcFlJZ+a6TxGathUHiVQKVXXvhZsdth7VNSs0y47P1MTLYtXddpwb7R3DKgtUfU2dzwWgc/+7Os2kqxzL41Yywm5Sj858Oiv1YYHWveyG+TTlqcqWgW8HRu36DVrqjmg4a9Rgri+Kr3mdI/s0fAjnBIAAAAAAAAAAICD3oANxiYkJOiQQw6snj0/5ZRT9OUvf1mnnXaaW4q+cLTXwpchjXpnpzva7zI0cbytm1/1L7ft27Stc5XsBDb9eq22ncCmq+rNt4MjSclRmir2Bd4vWqAyYNde7bVHz3D1SswxNUnWQLEa6lXdQay5rrErAfJ6lVUHm0xOOitHac5YUPKlgW0UePRvrdHKqIt8W/Vr3dFWGrXX+eCBbbMl2rapl88N1gIAAAAAAAAAAAwVg67P2JEjRzpNF19xxRVKTHTCVIiz3e++rrqt/w4OL/1NtfvdFwaMvdrzjjsak73au8sdbc/WxrbZn/3J16gad7Q3+B6uDjYbnDRRnzs7WCalKecsa8PZsl/Luv/597mPAAAAAAAAAAAAQ9ygCMY2NTVp/fr18vmC4SHLkh0/frxycnJ09tlnt8qgRe976ZWF+sUGd9j0a73plg8oXdoFhmv4aHe0PRMSneaP1ewPNjvc34YND65POzxdPQR8ZXr6ZTuekpT2+fRg2eSZSrNY7PYaVawOFgEAAAAAAAAAAKD7BkUUc//+/aqrq1NZWZk2bdqkffuCqXcej0ef+cxnnKaLk5IsioShpU7vOvF5r1LS3YBih0LTe3RCasfTZyQf4zz6G+q0wRnrJ3v2BoPBRycreu+1Jlmpx3UUqo1u1dNbnOzXxNRM2dbIuDjNaRI5ap+vAAAAAAAAAAAA6LJBlVLq9/v1zDPP6PHHH1djY6NbKqe5Ymu2+IILLnACtOg9I0bN0TXT7tOtsx5WQWaRMkcd6b4yENSr4sVg/6SJk3OVl+qMdiDG6b05yjrLgpt+ba2uDJb1l99vCax1wIiJyrwh+gp7p+fp08e6T7riqUrVbA88jgsse/JMfe5M+8z1euF37fSHCwAAAAAAAAAAgC4ZlO37vvXWW/rNb36j6upqNTc3O2XDhg3TWWedpdzcXE2YMMEpQw+NXKCbLr1YHx9/pEaMHK5RR5+maZcWaeYI9/UBoP6BClVbXN6TouzFSzX3wtb9CCem56jwx/nKcJ/X31uuDS3TFysvvfX03kk5WnJPrlI9kn/rKt33SLBp7H7je0RVm20dPEq+pEBLZqeFNVfsDZQt0rIb0zXcH60x5VTl3blSlZUrtXROtEButco2WuA1USlfukinBBbsr92gsm3BVwEAAAAAAAAAANAzgzIYa6yp4g0bNuihhx7Sm2++6TRlbLxery699FLNmDFDI0YMoKjhYDT2eB2V4I6HJBytCePc8YHAt0aFS8pVa/FKb4qyFpapcuVKrVxhQ6XKCnOVfvwRwWkdVSpqmT5V2YWtpy8vylVa4PP5G6pU8v9KVRucqR/5VLGkVBssg1WJSrtuicpD67uyXMtvmKrE1ytUtmmvM3Vrn9akUy1T3KOU82c5TRFHqn+gWnWBx6TUVHkD77XlqTKn6WIAAAAAAAAAAAB0nxO5TBjEwdgQa674scce01/+8henGWOTkJCgU045Rddee61OP/10pwzd8OFefeSOttj/jt7Y4Y4PFLVlyv9qgZavrVXDrsA+4PHIMyIwePzyNdSq8pelesGd1NHB9P7GelU/Xqy8vGKtGShRSd8aFX2jQGXr69XYFHgeWt+9DapdHVjX+aU60Gh3uGe1+VU7JvyqW78yej+wvkdUXetm1e7aoj+tDo4CAAAAAAAAAACg5xJ+VFK237JK71p8s1s0MIwZM0azZ8/WyJEj9f7772vFihXauXOn+2p0lgl70UUXKSUlxQnIGvts1qzxn//851b9zPa3sWPHOo87dgy0yGY4r044sVC5U07SqGGBp80+/fMvd6js9ZfaBmnRr/KWVSr7ZKlhXYHy7qhxS2PhVW5xmXJSPWpcH/iub48asgUA9JLQ9X/Pnj3OIwAAAAAAAIC+t3O3T2NGHegYMh6+dvNtgX8TBn9mbLimpiatXr1af/zjH+XzBdMaLSg7fvx4XXnllfrkJz+pQw45qD5ynPn02v8t1JKHr9B3HwwMD1+nXxGIHYCydfKx9uhXY31XArEBE3I11TrIVb2efZhALAAAAAAAAAAAQG8IdrG6P5QZK921eGHwlQGiO5mx4Twej8477zxNmjSpVQDWsmPXrl3rZMv2p8GRGdv38u9cqmR3vEM7N+uXhaXqYujxoJR6U6mKP58k+WtVnpuvsi40r5xxS7nyJ3sDs5YrN5/+YgEg3siMBQAAAAAAAPpfX2TGzlm42EkaPcTpOfYgZP3HPvPMM3r88cdbNU+cmJioWbNm6YILLnACthhYkk9NUUosw2nJSnTnOdhlfHe5lv8gT5mnRnxib5pybilVkQViAxqevq9LgdjEGYXKm2wnmgZteJRALAAAAAAAAAAAQG+yhNiEH5U8uH///n0HRZ+x7bHM2HPOOUeTJ0/WsGHW+WmQNWW8bt06/etf/3JL+g6ZsYhVKHvV0eyX3x8c9Yw4cDNB44ulWvL9CtW6z9uXp6UrZyq52ROY3577VffbRVpwX+dzAgB6jsxYAAAAAAAAoP/1SWZsfktm7MFv3759euGFF/TQQw/pzTffdNtolrxer77whS9oxowZGjHCiUwBA84LvyxVxcY6NezyS8MsiBoc1ORTw6vVqrgjV7kxBWJdHjcQ66tX9QOLtYhALAAAAAAAAAAAQK9KcBsndvuM3X9QZ8ZGOvPMM/WZz3ymVTPF1qzxX/7yF7388stuSXyRGQsAwNBDZiwAAAAAAADQ//oiM/ZrCxcH/h0imbGRLOD6wAMPOM0Th7JkLTA7bdo0XXHFFU6/sgAAAAAAAAAAAADQE0MyGGuampq0evVq/eEPf3D6jjXWbvP48eN19dVX69xzz3X6mgUAAAAAAAAAAACA7hjy0UbLji0rK9OmTZucvmXNsGHDNGXKFE2dOtV5DgAAAAAAAAAAAABdRepngPUX+8wzz2jdunVqbm52SwMbh8xYAAAAAAAAAAAAAN00YKONH374oV5//XV99NFHbkn8HHbYYfrCF76gjIwMJys2JJQpCwAAAAAAAAAAAABdNWCDsR988IGefPJJlZaW6sUXX2yVsdqbTjvtNF1zzTU69dRTnT5jjWXK/uUvf9GGDRuc5wAAAAAAAAAAAADQVQO+HV7LkP3rX/+qPXv2uCW9Y8yYMbriiiv0+c9/Xl6v1ynbv3+/3nzzTT388MNOAJjMWAAAAAAAAAAAAADdlXD78rL90n7dtfhmt6hvWVD0vPPO0wknnKDDDz/cKbOs2Ndee03PP/+8du7c6ZT1FusHNi0tTZ/61Kfk8XjcUsnn8znZsK+88opbEl9jx451Hnfs2OE8AgCAg1/o+t/bN5kBAAAAAAAAiN3O3T6NGRVM1oyXOfmFTqu8/ZoZa0FYayL49NNP14gRI5wVssHGrcxemzp1qhNA7Q1WAXr11VfrM5/5TEsg1rJhX331VT344IN9FogFAAAAAAAAAAAAcPDrt2DsBRdcoHPPPVfDhg1zS9qy18455xydf/75bkn3WODV3u/KK6/UUUcd5ZZKjY2Neuyxx/SHP/zBaQ4ZAAAAAAAAAAAAAHpLnwRjrVngCy+8sCXwalmvkyZNcrJgzX/+8x9VVFTonnvucQYbtzJj09i0No+xZdiybJmxmDBhgnJzc3XWWWe1vH9zc7M2bdqk8vJyvfXWW04ZAAAAAAAAAAAAAPSmuAdjLQhqzQJbQHX69OlOE8RWFmp6eOvWrXr00UdVX1/vBEltsHErs9eMTWvz2Ly2DFuWLdPK2mPTzpgxQ5deeqm83mCbz9Yk8ZtvvqmHHnpIzzzzjPx+v1MOAAAAAAAAAAAAAL0trsFYy0RNSkpq6QvWslu/9KUvOX23mt27dztBUQvARrIye82mMTaPzWvLCC3vuOOOa8l2DXfmmWfquuuu0ymnnOJMZyzwun79eq1cudJpnhgAAAAAAAAAAAAA4imuwVgLqK5du1Yvv/yyk5VqxowZo0MPPdQZf/vtt7Vr1y5nPBp7zaYxNo/Na2xZljX75JNPtgrkJiYm6oorrtC0adOcfmKNTfuvf/1LDzzwgF588UXt27fPKQcAAAAAAAAAAACAeIp7M8UWLK2qqtLmzZtbArIhhx12mNP3a0eDTROuvUDs6NGjNWvWLI0fP74lG9bn8+mPf/yjVq9eraamJqcMAAAAAAAAAAAAAPpCwu3Ly/ZL+3XX4pvdoviwfl9nzpypk046yS3pnv/85z9OU8MffvihWxJkWbOzZ8/WyJEjnexXC/4+//zzA7Zf2FBTzTt27HAeB7pRKfeqYMrR7rOA/e/phd/P0ePtJzYDAIAIoev/nj17nEcAAAAAAAAAfW/nbp/GjPK6z+JjTn6hk0Aa98zYkFGjRjn9x/aU1+vV4Ycf7j5ry/qDffzxx53+ZgdqIHYwOnpkxA6ZMFzD+2zvAQAAAAAAAAAAAAaffgmnffTRR3rttdec5oZjGWxam6cje/fudQKwv/nNb/TWW2+5pegto9w+eA/waTdJPQAAAAAAAAAAAEC7+iUYaxmrTz/9tCorK2MabNrOslzff/99vfLKK04Txeh9R40c7o653m/QGx3HxzFQzVkaPLaW5bkFAAAAAAAAAAAAiIe4BmOtH9c5c+Zo/vz5uu6665z+XHvKlmHLsmXasu09EG/Ha0RELFbvvaM6dxQAAAAAAAAAAADAAQmB/+xfev1EDE7SqCPcUVfTzje02x3vd+m5KryzVOXFZHoCAAAAAAAAAABg4Bh0wdj9+/erqanJaZbYHu054i1Rhx7qjrp2v/c3d2wAOCtd6acmyRvZrS0AAAAAAAAAAADQj+IajN25c6fuu+8+LVu2zHl87733nPJDDz1Uo0aNcsa7ypb5m9/8xlmePe7atct9BfFzpEa3amHapzd3vO6OAwAAAAAAAAAAAIimzzJjP/zwQ/l8Pmd8+PDhOvLII53xWBxzzDE6/PDDnXELxlpWLPrQoV4Ft37IO3onGFcHAAAAAAAAAAAA0I4+C8Y2Nzdr69atTrPCCQkJOu200zRs2DD31fbZNGeeeaYOOeQQZ97XXnvNfQV9ZmSiRrijjl2N2uaO9qe8ZZWqrAwMl6cEC07ODj53hqVq04PsuAzl3bJcZStWHpjuiZUqL12qRbPT5HUni86rtEvmq7i0XCufCL1HpVY+VKqlC7OV7E7VxuRFKnOmLVfhNLcsiuSbSoPLLJnrLitDhQ8dmM87KUeFJeUt71tZvlyFYevsnTLXWbeW11eWa/ktOUrr+EMBAAAAAAAAAAAgjvosGGtB1cTERPeZNH78eCfI2hmbxqY1FsQ9/vjj5fHQOWif8gxXqy5jG19XnTvan/wf+OVvCgx+t6DZfe4MexUqNokzClVWmq/syclKHOE5MJ088ialaOp1S1R2Z55S3elb8U7V/HvKtOSGTKUmeQNzhN4jsGlGJynl7DS54eC2NpbpWadFZ68mXjTTKWorTTlnJTlj9ZtXqd4ZC3PqIpX8IFfpRw8Pvm9zoMybrPTrblXRnFR5pxeqpCBLqePc1+2De7xKnpyrW/87r/1AMQAAAAAAAAAAAOKqT4KxFoi98MILncCqBVSNZbp+5jOfUVpamvM8GnvNprFpQ0466SRlZmbGlFWLXjLiiFaZsbt3veGO9a+ym2dp1uzAsNoNDW9bFXzuDPkqC5ZKk/NVfGO6EgO7jO/VShVfn3VgustyVPBAjRqbJc+p2SooyHBnCklW3n/nK3OCR/I3qPqBAuVcFnqPLOUsKlP163vcaaOp16rNwfCq97SpihqOnTxTaRaL9ddqwwORodjhmvT5dPmfW67cWe77Xl2g8lpr8tujlM8VqCTw2byvr1Fxnvv6rMBn+n2dE4z2nJqpuTOcBQEAAAAAAAAAAKCPxT0YGxmItaaGP/jgg5bXLrjgAl155ZVKSUlx+oW1wcatzF4LBV1tHpvXWED24osvJiDbR0Z5Wrd1u3vn8+7YYOBV7pemyol1bq3Qrd8qUdX24CtBPtWsKNDch2ud4GXilBzNnRB8xTFjrjJPtUzsRlXfO1+FK2oCcxzg21yuwpuLVeU+j6b+gQ2qtYV7T9HUKIHRjIvTZDnjvpefVln4wh0eeXZU6Y7bVwXWwOWrUdmtle4yEwPz1qriO8vCPlfgM/2sTNXOc6+OObP9Gx4AAAAAAAAAAAAQP3ENxkYLxL788st6+OGH9Z///MeZxsqPPvpozZw5U1//+tedwcatLJRFa9PaPDZvqM/Zk08+WdOnTycg2weOHhkejPXpnffaRAwHLu+VSk91g6kPlqo2WNqG75FKbd5lY8maGNa3a860iU6/rL4XH1Hh2m5+bl+Znn7Z5vVq4vnZwbIWM/W5M+0dGlXz+1XBogj11VHW21el13YER/21z0YJ4lZry5sWrZWOGHGgeXAAAAAAAAAAAAD0nbgGY5ubm9XU1OQEUEOB2HXr1mn37t1auXKlXn31Vae8PfZaXV2dM63NY/OGArI27Nq1y3kPxNfR3vA+ehv1zk53dDD4VLKOscem17Rlo1PSjirVu5mlxySHmirO0MTx9tn9qn85eqA0Vque3uJk1HpSP62cYFHQ5VM10WKx27doTdT186nh1WhB4Hr5moJjDdvWBEciNH6w1x0DAAAAAAAAAABAf4h7M8XPPfecqqurtXnzZieYGgqefvjhh/rDH/6gFStWaOvWrS1NFxsbtzJ7bdWqVc60xua1ZdiybJm2bMTf7ndfV93WfweHl/6m2vbj5wPX3r0HmvltR9329jJf92rPO+5odz1VqRoL9npO1rlXBotMzvkTZeHe+o1lqg4WdZm/ub31BgAAAAAAAAAAQH+KezDWPP/8860CseHefvttVVZW6uc//7mWLVvmDDZuZfZapFBA1paJvvHSKwv1iw3usOnXetMtH1SGD3f6Ze1ISmKwOWZ/c7B531Z6fKRUq2xjfeDRo5PTc52mj+XN1bkne6ydYW14wF4DAAAAAAAAAADAwaRPgrFAv6l7V3vsccQJmjjZKWlHhpKT7NGvhroNTklgZr3rJJ16lZKe7pT0RP0D1YElWnJsmmZ5A0u9Kl3WnW30Pl8BAAAAAAAAAAAw2BGMRYdGjJqja6bdp1tnPayCzCJljjrSfWUA8iYqzR1tsa1CL7xuI4lKvyZPqU5hW94rszRpdGDEv1Uv/D5YZv2yVrwYzFhNnJyrvPZmjpXvEVXX+p2mitOyU5WbnmKF2rK+Ivg6AAAAAAAAAAAADioEY9G+kQt006UX6+Pjj9SIkcM16ujTNO3SIs0c4b4+UGzfI6dh4aSJurBNwLReJY9ucPqL9ZycrcXFeUofF3wlyKu02UtUclWqPIGl1K2+T+VhWar1D1So2pk5RdmLl2ruha0bO05Mz1Hhj/OV4T5PnbNUKysrtfLOaIFfn8qe2hL416OTz5qjtOMDRdtrVLE6+CoAAAAAAAAAAAAOLgRj0b6xx+uoBHc8JOFoTWgVzBwAfrtBW5wAapIyf7RSK1cEhpVLlee8GPBUkZY8UiubxJuarcL7K4PT2PBEuZZcl6bEYX41rCvRovtqg/OE+NaocEm5ap2ZU5S1sEyVK915V1SqrDBX6ccfEZw24NOTUuQJPHpOzdCsaM0ir/6TtuwKvJ6aquTA0/qNZaoOvgIAAAAAAAAAAICDDMFYtO/DvfrIHW2x/x29scMdHzBWqeiuStU1+qVhHnlGBIa9e4J9xbpqH8zXVxct15p/NMjXpOA0NjT71bitWhV35CnvjjVOwLaN2jLlf7VAy9fWqmGXNTPszuvxy9dQq8pfluoFd9JnN9c5Wbr+V6u0cmOwrLUqVW62VFtTp+oHgs0gAwAAAAAAAAAA4OCTcPvysv3Sft21+Ga3CH1h7NixzuOOHQMushnGqxNOLFTulJM0aljgabNP//zLHSp7/aW2QVrELP27ZSo8P1H+2nLl5pdFDwADAA5Koev/nj3htwwBAAAAAAAA6Es7d/s0ZpTXfRYfX8tfLCUkkBmLjvj02v8t1JKHr9B3HwwMD1+nXxGI7aGZyj7b+p31actTBGIBAAAAAAAAAAAOZmTG9pPBkRnb9/LvXOr0pdqpnZv1y8JS1bhPB4vkOUu19PIUebZvUOH1RfQXCwBDDJmxAAAAAAAAQP8jMxZDVvKpKUqJZTgtWZZfOph4J81V/owUeeRX7ZNLCcQCAAAAAAAAAAAc5MiM7Sdkxg4VGVp0/3yleyXPCI9T0rhxmebetoYmigFgCCIzFgAAAAAAAOh/ZMYCBw2/NMwTDMT6G1W3uljzCcQCAAAAAAAAAAAMCYckJNiD8w+AXrdBRblZysoKDLNyteDeKjW6rwAAAAAAAAAAAODgRmYsAAAAAAAAAAAAAMQBwVgAAAAAAAAAAAAAiAOCsQAAAAAAAAAAAAAQBwRjAQAAAAAAAAAAACAOCMYCAAAAAAAAAAAAQBwQjAUAAAAAAAAAAACAOCAYCwAAAAAAAAAAAABxQDAWAAAAAAAAAAAAAOKAYCwAAAAAAAAAAAAAxAHBWAAAAAAAAAAAAACIA4KxAAAAAAAAAAAAABAHBGMBAAAAAAAAAAAAoDclJNj/BGMBAAAAAAAAAAAAIB4IxgIAAAAAAAAAAABAHByyf787BgAAAAAAAAAAAADoFRaHJTMWsfGM0hFjvBqW4D4HAAAAAAAAAAAA0CGCsejc4cfrxHMmK/nj5+nkU47WoQRkAQAAAAAAAAAAgE4RjEXHDj9eJ5x1uka4e8qhR39CJxGQBQAAAAAAAAAAADpFMBYd+2i3Pvxgn/skaFAGZL3ZKnyoUpVPlGnRNLcsVj2ZFwAAAAAAAAAAAEMWwVhE5zlax6WdriMSdqrhpWr9Z1eUgOzJYwdPH7IXpmvi6MDjsESlnZ8RLItVT+YFAAAAAAAAAADAkEUwFm1ZIHbSJzT6iOOVnHa6vNqt7S+t0yvVG/XWO353IunQY87SyYMlILuuWlt2BR6bG1WzvipY1iJZmTct0fKy0uiZrx3OCwAAAAAAAAAAAERHMBathQKxh7nPDzteJ0w8Xofu36fmD3frvX9t1rt73dcCBk1A1lehwquzlHVZroqecstapGjqlDQlJx4hj1vSSofzAgAAAAAAAAAAANERjMUBw8fqmPBAbMiwQ9QSa93vU1Nkk8WDKUMWAAAAAAAAAAAA6CMEYxFkgdi0s5QYGYg13hQdf/yo4HjCR9r1z41qICALAAAAAAAAAAAAdCjh9uVl+23krsULnQL0jbFjxzqPO3bscB77VUeB2JDd/9S/Nu/QEacerw/+/aqaNEpHnfoJHXXEYRruORDT/+jtTdq6dYeanb0qTsZlKO/GHGV8IlmJI9wyX4NqnyrVrT+bqKLKbKWoThVZC1TqvixlqPChfKWP9qn6pzkqtOaGpxWq/Nvp8gYnaMO3sVg5t1kfsVHmbcWrtEvylHv5p3XyOK88wwJFzX41vl6tlXcXqfFL5cqf7A1bXkieloat6yOTcrTwxlmadGxoGT41/PNplS4u0QZfcI42WrZFUmBbuI0sB97bt71eNU/+UktX1KjNrHOWqvLyFGlrhbLmP6vsWxboynOS5Q28Z+P6IuXevsGdMMCbpplfy9WsKalKCm0of6PqN1Wp/N5SVW13ywAAMQld//fs2eM8AgAAAAAAAOh7O3f7NGZUexGi3vG1hbc5j2TGDnWHJnYeiA034gRN+PipGqHdenfLBv3rhb/o/944EO4LZsgmymKJcZGap6XL85U9ORiI9Tf5g8PhSUq9ZJFKbkmO3u9rNP492uPO3yK0vMBgr3XOq8yCEi25IVOpSd7Ae7vz+z1KnDBVeUVLlXG4O2kHhk8vVElRrtKPHR5YL5s/UDjMq6QzsrSoZJEygpO1kjijUGWloW0ReOfQugfWwpuUoqnXLVHZnXlKdadva7gybylQXmB+C8Qajyds642bqcJ7lmje9GAgNrR8eRKVPDlb+fcUK7f9hQMAAAAAAAAAAAx5BGOHuEPHnhR7INaV4D1BY45wn+gjNW3/T+DfAw49JqVtv7O9IkOLCrKVYtmw22tUtihHs2bPCg6X5Wr5+gZ5J6crOThx59YXK8+Zf5mqd1mBT9XL3eUFhrw7wjJE25H8lSLNnZIYGPOrfm2xci8LzZ+lnEXlqt2bovRJnd1ZkazMG9Oljcs172p3/lk5Kvh9XWCpAYnpyromYhmT81UcmCdxWGCtX61U8fVZLes967LAvA/UqLFZ8pyarYKCaKHcgBFpyj7Ho7rVyzQvJ0tZWYF1bsncTdX8H85T+ri2y8+6vlhrXg+smTdV2XNy2s0sBgAAAAAAAAAAGOoIxg5xH+3Ypvf2uk+6YORotw/ZgMOP+pgOdcfNR2/XadeH7pNe5L0mS+lO3LNWZd8oUPnm8AZ4G7Xq9vkqqW6vPd94SFfuhSlOJm7DuiLNu6sqsBYH+DaXKf/WStV3mmAbWMLWMs29bZXqW1bfp5qfLVJFrc3sUeo5VwaLHV7lfmmqkgJj/q0VuvVbJRHNBQfmXVGguQ/XOsHcxCk5mjsh+EorxybLs/ZWLbh3Tdj7BnmvmaOMYwMjb61pu/ztVVr2w8A8gVFPaqbyoi0bAAAAAAAAAAAABGOHvI926K2/v6qmfe7zGB2WPFmp507VKedepJOSD+RGBvuMbVSz+7w3XXlOqhP49G2qVHnUmKtPa9bWtAqIxtX5mZo4zkbqtOHeaqeojdoSVW9zx9vl15b15W37dg2UVG1zP83oRKUFxyTvlUpPtS3RqOoHS1UbLG3D90ilNjsZv8maOM0pihBY719Gm9urKycHt3Xd/7az/G3Pqa7BRhJ1whSnBAAAAAAAAAAAABEIxkJqek3/t6njgOz+piZ9pGbtbz4wUYJnhIZ7DuxCwUDsDjXvdwt6VYaSLRXUmgN+JdSUbhTrG/SuOxp3qUmyRF011KujhNy6xg5edNRr62/d0Qj1TXuCIyOOCL6X+VSyjrHHwPe2ZaNT0o4q1bsZrcckR2mquN31PlfJTpBZSrm8XJWVlVGGJcpwvg+Phrc0WQ0AAAAAAAAAAIBwBGMR1FFA9v06/ftfO7Rffr33zy3a7RaHi28gNtxe7XnHHR0ofI2qcUf71N69nWYB123vIBAcy3o3+eXvZAisBgAAAAAAAAAAAKIgGIsD2gvI+v0HgqzNe9s0Qdx3gVhXR3utd7jTvG6fGjZcBxpqbissebh3DR9+IFu2HSmJwTXzN3facW0UPlX/bJZmze54yH/AnRwAAAAAAAAAAACtEIxFa9ECskemKOljXg0bPkLeCSka4xabvgvENmpPkz16lTwx2SmJ6nPJclrP7Qt79soJcR6drEynIJpkpR7XUai2G+reldN48YgTNHGyU9KOA007N9RtcEpiU6d3nYTawLY+u6WnWgAAAAAAAAAAAHQRwVi01SYg69Ho087TaZOn6oTjRinBLe3bjNgaVW8LNrmbNCVPmVHjm6ma+7mJPciMHa4jjnZHY/H7Laq3xxETlXlDqlMUyTs9T58+1n3SW7ZV6IXXbSRR6dfkBT51dN4rszRpdGDEv1Uv/D5YFpt6rXulwRlLSv+Ssns5lgwAAAAAAAAAADBUEIxFdO01WeyKZyDWO32Ryp6oVOX9i1oFXasefVZOiHB0uub+ZL4yxjnFQePSlVe8WFnHWh5oV4UyQT1KnpTdYZPDrfgeUdVmmzEw3yUFWjI7LWxeb6BskZbdmK7h/u40EdyRepU8usHpL9ZzcrYWF+cpPXxbBN47bfYSlVyVGlgzv+pW36fyDrqOjabm3jWqtdX2pil3WaFyJkVslcD2zv7mUi3/boZbAAAAAAAAAAAAgEgJP1pe5oTT7ly80Ck4GEyZMkXnnHOODjmk67Hm/fv368UXX9T69evdkvgYO3as87hjxw7ncaAadsSJSv5EikaEbcp4Z8Rm3FKu/MnB4F/diiwtCOuTNHXOUhVdntKS/epvCgY6PSOspFHVdz2rxG9mKUV1qshaoFLnVZOhwofylT7ap+qf5qjwKbfYlXzjci2f4TZ/HFimLdW3aZlyl1QFxjqY15upRffM19RQMNQfmNc61R3mkSewSv6tFSrbnqm8wOfxbSxWzm22vJA8La3MjrKuYQKftzLwebWrWsVXFyp87tRrirX4ytSWAHBoW9gbe4bZiF8N60o0/441ahWLDS0zsG5Z86O+q8OC4iU3TVWis6wAd7tY8NkzwhlR43NFgW3UlSaQAWBoC13/9+xxGpwHAAAAAAAA0A927vZpzKiY0/O65esLb5OF0g66zNj09PRuB2JNQkKCzj77bJ1//vluydDWvOf/WmXIfvTO3/XvODdN/MKGGjVaQHP7Bq16LFgWUnvfAuXdUanaBp8T9LQgrAU9G7dtUNmiuSpcu9edsmvq712q0o318tn7usvc47Pc00741qjoGwUqW1+vRuvT1gKhNv/eBtWuLlbe/FIngzUeah/M11cXLdeafzTIF3hv531taPYHtke1Ku7IC2yriEBsF/jWFik3r1iVtnyLwoaW7/HL11Cn6seLNZ9ALAAAAAAAAAAAQLsOqsxYC8Sed9553Q7Ehot3huxgyYxtMdwr70jpg12+PuojtpumFar82+ny+mtVNitf5W5xf8pbVqnsk6WGdQXKu6PGLQUADEVkxgIAAAAAAAD9ry8zYw+aYOyYMWM0e/ZsjRw5Uu+//75WrFihnTt3uq/GrreW05lBF4wdJJJvKtXyzydJDVUqyCtW/4c+s7VkRZ7SRvhV++As5T/iFgMAhiSCsQAAAAAAAED/o5lioDu82Zp7fpIz2vhq1QAIxEqpN2UpzfpX9W9Vze+DZQAAAAAAAAAAABgaCMZiEMlTcdlSzb98qpIjblZIvHCulv4yT2lW7qvRyrurgy/EWcZ3l2v5D/KUeWqiW+LypinnllIVWZZuQMPT96msu523AgAAAAAAAAAAYFAiGItBZXhiijLnLNLy8kqtXLEyODxRqbKFWUqxQGxTvdbcVaSKvgp8eo5S8tnZmn9nmSqfcNcnMFSWL1Hu5CR5ApM0vliqO+6uDU4PAAAAAAAAAACAIYNgLAaRlSq7b41qXm+U3y95RniCg/zyN9arZu1yFVw/T8ue67sU1Bd+WaqKjXVq2BVYoWHu+gQGNfnU8Gq1Ku7IVe73K0QoFgAAAAAAAAAAYOhJ+NHyMus7VncuXugUDFZjxozR7NmzNXLkSL3//vtasWKFdu7c6b4au95aTmfGjh3rPO7YscN5BAAAB7/Q9X/Pnj3OIwAAAAAAAIC+t3O3T2NGRfSJ2cu+vvA2WRA2GIzdv1933nZz8JU4ueCCC5SWlqaEhAS3JHb7A+v3yiuvaO3atWpubnZLWyMYCwAABjqCsQAAAAAAAED/64tg7NcWLg78m9A3zRT3JBBrbL7TTjtNn/70p90SAAAAAAAAAAAAABjY4h6M7WkgNsTmt+XY8gAAAAAAAAAAAABgoItrM8V92XQwzRQDAICBjmaKAQAAAAAAgP530DVTDAAAAAAAAAAAAABDDcFYAAAAAAAAAAAAAIgDgrEAAAAAAAAAAAAAEAcEYwEAAAAAAAAAAACglyUEBoKxAAAAAAAAAAAAABAHCT9aXrZf+/frzttudot6z5gxYzR79myNHDlS77//vlasWKGdO3e6r8Yu1uWcddZZOv/883XIIT2PMe/bt09//etf9dxzz7klvWvs2LHO444dO5xHAABw8Atd//fs2eM8AgAAAAAAAOh7O3f7NGaU130WH19buFgJgf8OqszYTZs2af369U4gtSds/ueffz5ugVgAAAAAAAAAAAAAB7+DrpningZkQ4HY6upqtwQAAAAAAAAAAAAAuu6gaqZ4MKGZYgAAhh6aKQYAAAAAAAD6H80UAwAAAAAAAAAAAMAgRzAWAAAAAAAAAAAAAOLACcbud0YBAAAAAAAAAAAAAL2FPmP7ycDoM/aTOuvET+po91n3+LTt9Yf1z4/cpwAAoF30GQsAAAAAAAD0v77sM5ZgbD8ZGMHYa3XjNZfqBPdZ9/i06XfX6ZFd7lMAANAugrEAAAAAAABA/+vTYOyPSx7cH6A7Fy90X+o94UHUgcA+54svvqj169e7Jf1noAVjP2raq73daq+6UZv+dKOe2O0+7RUZKnwoX+mjfar+aY4Kn3KLAQAY5AjGAgAAAAAAAP2PYGwc2Wd9+eWXtW7dOjU3N7ulfW9gBWMHWnYrwVgAwMEpdP0HAAAAAAAAcHC7at5CJxh7iPt8yEhISNCZZ56p6dOna9iwYW4pAAAAAAAAAAAAAPSuPsuMHQh9xg6kvmcHamZsyun36pozE93Xe+LfWrNykZ5zn3UNmbEAgIPTwLj+AwAAAAAAAIi3//re7UMzMxad8Hj1nxeu0uKVPRnu1T8/Gq4R7iIBAAAAAAAAAACAoYhgLHom4eP6+PFzlHnsZzUqwS0DAAAAAAAAAAAAQDAWPfEZfXFGoa7JuFjTPjtPBdMXaLz7Srx5J83U/B+XqnxFpSor3eGJlSorWaK5F3bczHLihXkqvKdMK584MG95abHmTvFKc5YGy5bluVNHSlTGVwq1vGxlq/lXPlSqpd/NUVpgEbHL01Jn/qWBMftMOVoUvl6Bz+OsV9TPY00523TlKpwWeDouQ3PvbD1v2T2LlJ0anDqqwDx5tyxXWfg2LC9V8Q1T5Y1YNwAAAAAAAAAAAHQdwVh03+jPKDU8Tpj0CU0Z5Y7HjVdpNyxVWdE8ZZ6RJO8Iyd/kDw7yKPH4NGUtLFNZQWZgyrZS5yxV6cJspU9IDEztzhcYvEmpyiooUeHxHnfKKMbNVOH9Zcr/YrqSEz3yNIfmlzyjk5Ryfq6W3L9UeR0FQNsxfHq+lhXmampgveQPLlfDPMH1WliqpXM6WGhinpb+PF9Zp4bmDZQF5k2cMFV5RYH1mRCcrJXUwDzL85U9OVmJ4dvw8CSlXrJIJbckB7YPAAAAAAAAAAAAeoJgLLpvr0973VHH/j3abYHAOPJeuVi3XpLiBFIbNpapICdLs2bPCg6X5ap4bX3gFSlxylwVfSU5OFPItEUquNzmlRpfDMx7tTtfYMi6frk2NHiVnh4xT4t05f9ontLHBUZ9daq8I1dZs0LzZylnUZlqtgdeG5Gi7IJFynDmidUxuuirGTpia4UKrz/webKuL9aabfZpPEqZMS96UFXDNenL2UreVhk2b5Zy761Wo73sSVHGVenOlAdkaFFBtlKsU9/tNSpblNPynrYNl69vkHdyutrbEgAAAAAAAAAAAIgNwVh0btiRsrhdG0336ZH1/9bujwLjH76nfz59r9bYeNyka8HFqcFg6sYSzb+tXDW+4CtBjaq6a56K1jUExj1KuXiuZgZfCPAqd0a6LJHXX1umud+PmHf7KhXNL1H1Lvd5BO81V2pqUmDEX6eKWxeoZJ0T6mzh21yugm+UqdaJBE9Vzo1dCWV6NbyxUrfml6raAroh26u07BvLguvkSdHUL6UFy1vxyNNYpaJvBdY9bN7G1YVauj64jolnZmqqMxbkvSZL6cENobJvFKh8c/iGaNSq2+erpLrVhgUAAAAAAAAAAEA3EIxFxxI+qysvvk/f/sRndahbdIBPr/3fQi155Ap9d8Uc/erNV9zyOJmWpTTLTPXXas1P1gTePbrqezeozka8JyjtfKco4Eqlp1oY16fNq8ujz+tbozUvtw6yBnl15eRQELhMpbXB0jZ85arcFFxy8qmZzmNs/NrypxJFX2yVKl604LKUdOKUqE0vN2wqV7U7Hq669jUnS1jeo1pluV55TvCz+DZVqjz6htCatTXBzFoAAAAAAAAAAAB0G8HYIW2vmt63waem/W5RK6dp2vlzdFaiNCptnv6/qAHZPnRyYjAYueM1VXWUuOmrU6OT4ZqopFBXq9OSdYw9+uu15SmnJKoNDe+6Y+HOVbIFgeXXa7XRwp4HVL35dnAkKbkLTRU3qP5P7mgUNfWNwaBq4jGBNYnkU/3L9e54hF17g81Ie4brCKfAZCjZMnwDS6x/pcopiWp9g6JtCQAAAAAAAAAAAMSOYOyQ9rB+tfIqLV55o57Y7Ra18Or0T9yszAnD3ecWkJ2jG1M+1SYge9T4OZpiqZZ9pcmndsKPrirVhzf3G+6DPQrmmXbHXu1tpxnjFlsb283YbZ/fut9t3/Y9rfvm7RV7tecddxQAAAAAAAAAAABxQTAWUR06Ll9Xph3pPgsZrvFTvqmvJ5/mPg9Md+QizbvoYl32haK+C8iO8LZqdretqUqyPlFNs/sYpqPV9A7r6NXhGj7aHW3PBDd7t9kfzGbtDSe6y2za07tNB3d09HuHd7idAAAAAAAAAAAA0DmCsWjrsGv19Ys+oRHu09aG64QLFutGC8h6AtN97pMalRAoHnWaLvvcIp1u4/GyfU8wwDn2BGVE6zw1xDvRDcY2qH6TUyI17tEeexydrNQJTklUmROcNnwj1OldJ3PVoxNS052S9mQkO40hy99Qpw3OWCyOUfI0dzSK7JODoWdbZo0z1hON2tNkj14lT+wgpP25ZEXbEgAAAAAAAAAAAIgdwVi0ccKnLtUJh7lPokmwgGyBCr4QMV3iJ5V7/rU6yn3a6367QVssKOpJVeZ3MoPZolGk3zhVKTbSsEVVLzpF0ovVqneaGE7Sp7/Szrypc5WZGi0ftF4VLwYbRk6cnKu8UD+0kbw5yjrLluzX1urKYFlMvJo4PbuTdQos88WKYFmP1Kh6W7BN5KQpecqM/qaa+7mJZMYCAAAAAAAAAAD0EMFYtBVLdmuCV6NGueNhDp1wqeZ94nT3WW9bpZIn65zs2MTJc7XsuzOV3CqYmKiMby7Xogstp7NR1Q8vV3XwhYAqPfJcsLdYb/pcFX8zIzD1AYnpeSpenKWkdhoXrr+3XBusjWBPirIXFysvPXzuwDIn5WjJPbmyuKl/6yrd98iBTmC90xep7IlKVd6/qJ3gp82f63ye8KU6yyzIUrJFRd+q0n0rguU9VfXos8F+c0ena+5P5itjnFMcNC5decWLlXWshX8BAAAAAAAAAADQEwRj0etGpV2ss6IEantD/a8WqWRdg/zyKOn8eVpeXqmVK1YGhyfKlD89OfCKT7WPLFHh2gMBUVN79x2qeNVCjB4lT89X2RPufCsqVVaYrVR/tUr+GMyAbatKRUvKVWuL9KYqu7BMlSsPzF9elKu0cdaUcJVK/l+paoMzOc6dmqbEYYGRcVM184pgWWt1qn6qUYmBzxO+Ts4yLTrrq1X5T5a1WmaP1C7THb8NBrU9x2cq//4D27Dy/kJlp/pVfe8atbclAAAAAAAAAAAAEJuEH5c8uD9Ady5e6Bb1rvPPP19nn322EhLi2Zlo19jnramp0TPPPOOW9L2xY8c6jzt27HAeB4pRR16lKUe2k77ZJe/opf/7nd50n3VNhgofylf6aJ+qf5qjwqfc4jCJF+ZpwZcyNOnYRHlC7ek2+dTw72e18sFSrdrcOhB7QKIybixQ7vknK2m0O6O/UfUbK1Vyd7lqrlqqystTpK0VyppfGnw9nDdNM7+Wq1mTw+Zv9su/q0GbnyrX0l9VyRJow1lmbMlNU5XYuEHLvlGkNS2rlqelldlKUZ0qshapevZCzc2epOTQcpsC6/VXd73afJzOt5GmFar82+nyOstfoMhPk3jhXBVce5FOHueVx4LFgc/R+Hq1Kn+2VOWbrwxbt7bzAgC6Z6Be/wEAAAAAAAD0rv/63u1KsP/iHYw1AykgOxACsYbK2IEp45Zy5U/2yl9bpln55W5pvIQHYwdYwDMUyPXXqmxWvuK9JQBgqOD6DwAAAAAAAAwNoWBsnzRTvH79er344otOILQ/DZRALAaqZE1yO6FtbOi1RoEHpeQzk+Vsica3e695ZAAAcNDxer2aMGGCzjrrLOcGzOnTp+viiy92Bhu3MnvNprFpAQAAAAAAhpo+yYxFW2TGDDzey5fol3PS5FWjNtyWq6KN7gtxM0AzY73ZWvLLPKV5pcb1hcq9vdp9AQDQU1z/cbA47rjjlJycrMRE6+A+do2Njaqvr9cbb7zhlgAAAAAAABycburLzFhgQPhKscrunK/sKW7WZwvrR3apG4iVfJtXamncA7H9KU/FZUs1//KpchOBW1g/skvdQKx8NVp5N4FYAABwQFJSkpPtOmnSpC4HYo3NY/PaMmxZAAAAAAAAB7uEH5eUuZmxN7tF6AtkxvSDOUtVeXlKcLzZL78/OOoZ4QmOBPi3rVHxzcu0wecWxFV/ZcaG3jfI3xTaEB55hgVH1VSvNT/N17Ln+mRDAMCQwfUfg9nHP/5xJxu2N1mW7EsvveQ+AwAAAAAAOHiEMmMJxvYTKmP7wbh0ZV+TrcxzJippdFjg0e9X4ztb9MKqR1X6+xr1Xfixv4KxiUq/PFfZF5+riUcnWgw2yALUuxq05a+VevQXq1RDHBYAeh3XfwxGhx12mM4+++xuZcLGwpoufvHFF/Xhhx+6JQAAAEDnZs6cqWuvvVZeb0TTb72ooaFBRUVFqqurc0swGC1dulQpKSmqqKhQaemA6SyuX11++eXO8eNpqRzuPQPluDn33HN14403aty4cUpISHBLD2hubnZuDr7jjjv03nvvuaVA7yIY28+ojAUAYOjh+o/BxgKx9gfsqFGj3JL42L17t1544QUCsgAAAIjJZZddptzcXB1++OFuSfwQkB38CMa2Fs9AbMhAOG6WLFmitLQ091l0FhtbuXKlfvWrX7klQO8iGNvPqIwFAGDo4fqPwea8886LW0ZsJMuQff75591nAAAAQPv6KrhGEO/gwPfYWle3R7ynj5fO1oP9An0hFIw9xH0OAAAAAC2sj9i+CsQaey97TwAAAAAAgIMJwVgAAAAArSQlJSk5Odl91nfsPe29AQAAAACIhWW4VlZWthks69VkZ2d36/W8vDzndaAjof7LO0MwFgAAAEArp556qjvW9/rzvQEAAAAAAGJh/S9b0P6LX/yibrjhBrc0OoKxAAAAAFocd9xxGjVqlPssNmeccYZuvvlm547k5cuX695779WPfvQjXXHFFTr88MPdqWJj723rAAAAAKBr7Pd4eXm5zj77bLcEOPgtWLBAWVlZqqurc55bH7D2vKtD5Pz0I4vOVFVV6d///rcOOeQQfeELX9DXv/5195W2En5cUrY/QHcuvtktQl8YO3as87hjxw7nEQAAHPwG0/X/qKOOcu7qO+KII9ySIL/fr//7v//TU089pfr6erc06Prrr2+T1Wi/M/fs2aO//e1vWrdunT788EP3ldbsh6tVGEyePFnHHHOMDj300JZ5//73vzs/cH0+nzv1Aaeccoq+/OUvy+PxuCVBNm11dXXU97QmZKZOner8gWXTtKe9ZYe8+uqruv/++53x8O318ssv6+GHH3bWvyP2GW2bnXTSSa2WFWLbxLbHeeed5yx/2LBh+uijj/TWW29p9erVeu2119wpe5e9X1f7ir3llluc5oXfffddZ3vbZ7P93T7Dxo0b9cADD7hTxqaxsVHPP/+8+2zwSkhI0Gmnnabzzz9fxx9/fMu+1NTUpFdeeUVr1651tlmk0L5n++eqVavc0rYi9+XQ887YcfWzn/3Mee9o89i++9577znf3f/+7/+2Oob6ct0Gu/Y+s51Hd+7cqb/+9a/OtrH9IVJ75+AQOw9Y5VBo3mjn3+bmZr355ptRzxfp6elOc2ydnQdtuRMmTNBvfvMb/etf/3JLD4h27jYffPCBtm/f7uxDL774ovbt2+eUx8KWefrpp+vCCy90zit23HR2LfF6vbrgggt05pln6sgjj3SOPfv8dr1dv359u+sQ+o5sO5aVlWnbtm3uK62NGDGipZm68O1u7L3shhR7/9A2CL23HeP/+Mc/ol4P7DvOyMhwzhH2PdtyQuf4p59+2jlHRJuvs+8kpCvXsMHMgg6hJgY78s4776iwsNA5FjqaZ+/evfrVr36l3/3ud87z73//+/rUpz7ljIezfcC24S9+8QunAi7cpZdeqq985SsaPny4/vKXvzg3J3Vm4sSJ+n//7/85+4Wdd3/wgx+4rxxYBztewyuFQ5/Dztc//vGPtXnzZveV1uwY/e53v6u3337bqaxuj2V05ObmOueoZcuWOcdONKHl2W+t0DY9WLV3bu3s3NLd67+J9p7RzoGdHePhws/1dr7MzMx0zrOhc4+tV21trf7whz9E/b09UIWOgchjo7d1932inWts/7HfufY92t8Ldr3sbfa+dj26/fbbnX0UQX21vwwWXd0e8Z6+t/T0fdlP+pf9jre6BfsONmzYoOLiYue8OdDZetvvNbv22/ra318///nP3Velm753uxIC/5EZCwAAgHaFKo22bNniVDpa5Y9VEM2ZMydq5aRVSFlltk1vg1XQWSW2VapfddVVOuyww9wpD7CKx3nz5mnWrFk69thjnQqK0Lw2vVWUf+tb39InPvEJd462du/e3fKe9v42n72n9dsR7T27InzZ4UN7lfYnnnhiTP2eWiWaVdBFYxVlFoi55JJLNGbMGL3++uv65z//6ayLzTNt2jR3yt5l79vVQKyximC7A9/+APnv//5vp3LWKrKtUtu+t09+8pPulLGxdbB1Gcxsv7f9zyq2LeBulZv2HW7dutV5PS0tzakUtwCOVYT2BgviRO6jdkxG7sN2LFtle7g33nij5XVbjmUof/7zn9dXv/rVXvkuerJug134trXPZxWvdt67+OKLtXDhQicw2t4+EH4ODh9sP4qsmAg//9q+ZhX3dr6wIKLtb73NznM33XSTc+62Sl8Ldtl7h86N9t5W4W+VE7EKXQ+uueYajR8/3gla2zJD1wM7r0+fPt2dOsjOMXaNsKCH7as2rc1jgQ67KcTWz5Zpy26PHa+f+9znWoLJsbLpr776auf6Fr4NQu990UUXtWkdwL5rO+7t+D/nnHOcZVgwL/wcb+cNO3/YevVUV69hg419DjtGQoMFHI19B+HllukSHvSw48WureHT2GDHaLSb5my5oWnsPe0GqUmTJunWW291AqntsUC9VSh2xq7r3bn+GjvGZs+e7axTT9h5wq5Vthwy6g6I/G0bOr7thhY79iPPG71x/Y98z2i/p+3YtuWGprF9064Z9tvLbtQIldsQCvzab3g7X9q5x9h0ofWy77yjfXkwsWPupz/9qdNCS3+LPNfYb2Y71u3atGTJki5dIwF0nQVXw/t+7ew5+o/9bWG/qyygab9F7Le93fzV0983fcHO7XYjnZ3nbX0tQ/YrX/mK++oBw6bPzC60kefX/ckpQN8YOXKk82g/lAAAwNAwmK7/VuFjAYJdu3bpwQcfdO7E37Rpk5599lmnQsd+IFvg1LJAQxlKZ511lkaPHu0E4SyT1TI0LPPL5rVKkRNOOEHvv/9+q4xaqzi3yipbllUW2d2nlkUSmtfGLaBg75eamuoEdMIrSa1y3SpDLdjx61//umW+F154wXlPa+7WKscbGhrcOeQsKzk52ckAsKyx9kRbdvhgGcIhoe1lmQuWCWPbJFS5FY1VvlmQYty4cc5zC0Db9g2x16wC17JDbZtYNkNNTY1zd6hlClvlfmQmTm+w4MfHPvYx91nsLIsnsmLftq1V9tk+YdvfKri7wiovLRAzGFnF7Je+9CVnn7X93bLPLAvGvkPLULD92irmbF+0wc4J9jwktO/ZNuxou0Xuy3Z8hO+jtv0+/vGPt9mHLVMvFPAMLePPf/6znnzySed1O35ssOPSMvBs2tD+3pfrNthF27ah86gd21ZBazdv2H4SuQ9EOweHtpENtu3Dg7GR51/b1+x97Jxr62GVvTZfaB471q3SvbPzoC3X5rXzTqgy35x88slOsMHO4X/605+cLE07D9h72Dn4mWeecb5Lm9cq+2PJ/LEKGMsIsyCHLcv2C8s8Cy3TjhvLtrXzrAUmjH02C0JZNu2aNWuc9bDzpc1j29gGq/S264Fta1snC1SE2PwWRLXtbO9v30Nkqw/Gzuuhm0rsGLYMVnPuuec6NwxZxUtJSYmee+65lve2rGA7V9u6hqY31vqA3ehg14mVK1fq8ccfd77f0Dnelm/XLltnOx/bOtu+EtLedxKpK9ewwcy2+R//+MeWwbaZ7dv2GQsKClrKbf8JZfxZBZkdLytWrHAyQMPnt/05fB+w4JcFyK3cssxsGst2sOPMrtN2jNu13LKZQyzj0AJb9h3bjS32vvb9tsf2PQvq23Fv7Ji0YygktA52vIZnudnnsMxGO87tmLbjzKaJZOdyq9C031N2LorGssovu+yylvO6Lc/24dA2Cxdanh1Lth0G67U6FtF+29rx/dJLLzmBVvtta79x7Lem6en138T6e9p+N9t6hI5pOw/ZPmmVwOHnZBvsd6btX3a+tL9HLCPzt7/9rXNNCq2XnV9tfexxsLBjwM51kcfG1772NecYtP3azt+2DXqivffpTLRzjW13+xvB1s3O9XaesO+xq+xmqBtvvNG5vth3Hy50brBraOgGFXT/ezxYdXV7xHv63hL5vj19jr5hv4Us8Go3Ddk5zVopsd+x9jeH/Ya338jRWowZSOx3mP12Cv19YZ/Frrl2rf3UBcGbScmMBQAAQMzsB7BVKFnlulUuWOVgZ6yS25o1tiCAVSCFWEDSKqStUs8qUx966KE2lX5WAW2VSY888khLADNUWdkRW45VyFsFfSzr2FusYtwqO62CpaNsQvtjw/6osApXq/gKZ5X39pplPFgwJbwS3vznP/9xtmc8dDcrJxr7Y8T2F/veo1XmdqY316WvTZkyxamIDd1gYN9ZONsuls1ir9m2sYr27gTB48nWy/YzC4xaFndk5g96xo57C+5YRrkdIxbYiMc+bxXQVrFuy26vyeOusnObNe9r+4Stv1XihwcbQ6wC2M7dFgTojC3LWgKw64oFuixDIfLcaOdCu/6Emk61aW09jAUWrDzyfGnLsHW04IkFl6xZ4Ej23lbhZhXin/70p1tukomFVbZYQMrO1TZ/ODuGLBAfHoi2dfjsZz/rXCfs+LeAamTFkm0vq4CyiigL6oUy2DCwWADOgum2j1mF29FHH+2+coCd+23/sBsrOuqL3Y5/uwZY8C78JotY2bXGfu/Y8RD+O6srbB3t94cF/Gx5dlOEBQURnX23ds6x36Z2nIbE8/rf3u/pWNnvbQsw2M18ds4LF/p9H1k+WFnTkBZEsUCsZaBaawsDiVXWW6Dd9h+7Ma077LeZtZ5jxz4GHjsP2N97XWFZ83aDDzDUhAdi7aYw697BzpF3332385vZbmQcTBmytv52k03o75vwaxBnbAAAAHSJVdhYFoT9uAxl+3bGAjpWSR7eZLD96LY/VC3T1SrzIyukw1mltP0wD80Ti1CFZl9nbFgWlFViWiV9e6xZTevjyyq+Ij+3VcyEhr7+g6O3gjXGMhJsefYHVGTWbCx6c136kgWqLHhiFfRWaRotSBVilflW8W1BpYFY6W03BFggwY5bq9BE77MKe6uYt0xHy2jqbXZ+sXOvBQTDM0J7wipE7FxsmVq9VXFvN7BYcMHO8x31YRvOzqN2rrXKjlA2XzS2DSxYapUjto0jg952rrXAsX0eq9juStPhdo62aWOtDLe+de2GIrsBKbzFhkh23rBKKPvOLCO3p83tIz7s+mbHl/0eimyO2thrdtOVZb9F6z/a2D5kATz7nWRZ0F1l+5+1UmI3ydlxadmtXWXrYPuZ/V6y7A0b7DeU3ZyA9tk10o7VUKC9L67/0X5Px8rOU6HzVaznuMHKzvfWTHEoIGv9IUdrLrI/2Y03dpwN1t+7aJ915bN48WIneGTn5VjYzTSLFi1ysp07uqEXONjYDQjf+973WgKx1gpJ6DeyZcOGB2Stb/3BFJANvykohGAsAAAAuswqcqwyKNbKfav8th+i4U3/WfOn9semVaTb3f4dscp0qxy094wlGGuVTKHm36I1ORlPFmC17WLBSKugjWTbwu58tj8yQk1thrN1tgC1Vc7YHx19ecd7tMrkrrLMixkzZignJ8f5zi3o0J0mlXtjXfqDVbpbYM0+szXN2xnb/625QWt60AL0A0mowtYqlLuTrYXO2bnNsle7m+nUGcvWs0wo2xetIqOnbB+1yhLbZy142VssSGrnd2seu6MARkjoHG+BCVuPyJtaIlmltzULaYGP9razNQtr52UL8nZ0M004u77YNrFgWmfBEbt5yd7bAl6xNElpzQvb92aZurFW5qJvWQWiff+WfR7tem77tN1cYL8F2gtsWh/I1hqGzd9Rk+Edsd8clqVrmZb2Pl0Notr+a9duay7X1sN+b1lGp/1Os2sTogtdI0NZ8X1x/Y/2ezpW9p3a+9n3Gp7Ne7AKD8jaMXjppZcOqIBs6Pe97T/WUpAdw7/4xS+inu8tc91aebDX//u//9tpPcL2G9sXvv71rzvP7XX72yOcBS1uuOEGp/WI3//+93riiSd0zz33tJkuxPpO/9nPfuY0pWzLtOmtqe0rr7yyTQDEtmdFRYW+//3vO8uzbW3z2fvY+9m2jnfQJNTXZ6xD6Hxm/T1He729oat9iVqrTtY0tR1rsQRkLRBrXT/Y33/33Xefcy4H7CYu66rEjqni4mLn+hJN+HQ/+clPOpyurKzMme6uu+4aEL8t7XfUzTff7DT7b9dOO49E3qwYHpC1Gx0GU0A2/KagEOfMf7DfEQUAAIDeY5XZ1jSW/aFolcWdsWYZL7roIqcC2gKVIRYksEr3WJZhrD8uq7CwzKWOKq1CTWhaRZNV0kerII0n+zz2x4Q1j2wVc5Es6GCfwQIw4c1XhrOMCgtQWzDW+r3qqyarogWPY3XLLbdo+fLlzmNWVpaTMWL9FK5atcqdomt6si79KVRRavtdZwEiY8eFbSvLrImlCe6+ZP0uWgDJKn0t6IX4sKxMOxdY0LS3bkKwSl7rY8mygazy3fqzjGV/7Iyd/209rVK/t/oVtP3eMlztWIj1emDz2DFjx05H/aaGs0CTbZf2miG2a5qde61+xJoSjuV4tOaPLYBmNwlZNotdd9qrX7FjyW6yscoZW+/O2PXR9g273kVm86L/2XduWah2XIX37xrJjj07Vux3k92IFckCp3a9sxuXenKMWva3DfYbyDIwOmoWOZIFUmw/C/1Gs/3TsvZtv7NALdqy49yal7XvzrKSTbyv/+39no6VzWct0dg6X3XVVc7+e7Bn4A3UgKwFEiyL2tbJWsewYINd/+z6ZMGGSFZm1xD726Gurs5pMciuWXbDh13b7Lnth+E3Xdk+ajdGWqDXfsfZzU62v1mA8Bvf+EarG5Nsff6//+//03/91385f59ZizZ2PbS+xe1vli9/+cvtBkBsv1+4cKHzaM0v299Atj9ffvnlTl/YQ9Vjjz3mdMHTWUA2PBBrgTT7fgFj+4YFVu1YtpsE7e/raKwv8PDp7GaDaOyYtOPUprMbE+zm6f4UGYj98Y9/3O6NRpEB2YKCgkF343aC+x+ZsQAAAIiJVRjYD3e7O9gqzq0iKLIy3qaZNm2a0y+GDd/61recCmqrlLI7tsOnt2VYJUKsQR6b1pZj7xFZGWCZWkuWLHEGa+LJmoK0Jh7XrFnTo8pNE77s0HDrrbc6FavRWAW6VXhYpX/kneeWOTVp0iQn0NpRc4R2R6jdGW0VevaHit3VPmfOnAHXr2g4W2erSLLBKr+s0tAqvKwCZygJBXraC7RHsv3T9u1o+3V/sYo3+4PfMras8tbu8Ef8WeWIDeEsW82a7oo8B1mWTCQLptgxZ6//4Ac/cM7Vdn61myIi7zLvLqvssWCDZeLFksEai1BgtSvLtAoYCyJ0ZZ5QdndHlTd2Xraml+381V6zsuGsMvyXv/ylk+Fm17Tc3FwtWLAgavZtd7adnRvsWhJ+R31XdfUaNlTYNg1llIUPlmkVjQUlLahjg/X3ac3P2bnSKtxtvvbYddxuDLN93PqGDWfBWfseQv2P9tSjjz7qXINtmVbpGgsLENjvEjvXW0ZsiAVjbV+1JnQHyrVpILBztB3rliloTTvbzRihTPfevP535fd0V9gNJLaf2E069lvZgmhWIX8wN4UeGZC1ILR9f/3BvmcLwloznHZs2bXZ+o+3IKlde2z9Im/asHOH3fxhLefYZ7A+xb/97W87N+vYdc36WbfnFpwIb7Lfgrd2Y6hl1FnA47bbbnPO/Xa+sX3VbvgMsfOFnePs5iabzq5jts3s0Z7b/ma/O6KdV+x8Yy0A2N8pRUVFmj9/vvP3lx0rto915caQrrL1s9+rsQ6hQKdl9EZ7vb3BzvndYdcH+w3WXkDWfmfb7wYCsRhqrE7JbvCIJRAbEh6QPffcc53z2kAOyNrvfjs3W32Q/Z4KIRgLAACAdoUHAqzvm69+9avOD0vLAvnjH//oTnWAVRrbH5yWUWeD/bFvQds777wzrhmqoSwOG6wpSgtA2B+4dod3qHKsu8KXHRrsLnYrb4/9UWEVLJYFe8wxx7ilcv7gsD/ErbLEms3siFWIWHNkVulmlaQ2r32ezMxMZzvHQ0+CK9asmTWdZoMFxB944AGnss/uXrWKjK7qrUAPYmN3UYcCNfbHbahSziqRulvpi56zylfLeIk8B0XLBrVKfctmCU1jFa6W4WIZMHY+jAz09jYLqto5KrQfhYZogeOBygIda9eudc65VlFtQdnO2HdkTTL+/Oc/d44Vu+ZYkM8yFQZCgKM717ChwI6XUEZZ+NBeH+d2LbeMExvsOm5BTwtkWeZTZyzQatvbAhOhZjKNBWctUGFB0N64YcKWYYFhC9BYc6P2O6wzFhCy4KJti/BAgGXgWYDAbghrr0nToSL8Rhf7jWOVq9bPtWUNWtOQdg7obfH8PW3BY2ui0jKpjWVnf/Ob34y5efbByI6/UCZptBuf4in8xg9r9tf+nrLgqn2PFigNfZ+h84QFN8PPE/Y72q5FNp1l0McqdD2zAEaIHePWx7QFfUOBQQsQhzLgn3zySSfgG86e2w2utk9Gy9q1885vfvObVt1ZrFu3zvksdsOK/S05lFnTzdECsva7zALY9nuOQCyisdal7GYSO5bt90l7N35Zk9jh09nNBtHYvmj1Dzad7W92I0d/sPPbd77zHefGRTuv2fUo1qb3B0tA1urLrLWBUCDWmqEPIRiLDozUIROmK/GCeTrhy9/VSc7wHR1zwRUaNWHgZmUAAIDeEx4IsIwh+yPd/mC0O56tQiOSBUHtjm27O9t+KNsPbLvD25rIiqz4sCaHrayrgUWbL/zuQmN3h1uFmA1297JVmNkfMFbBaM109qRCPHzZoeGRRx7psOLU1tEqMu2udOt/0NhntSwK226RFR3tsT+W/v73vzvb3CpwbLkXXHCBvvCFL8SlIinWbI5YWFNlliFslTyhbdAVvbkufSm03l3NJLL5IvfrvmSBhVCgxjIc7Di2Y7g3AgTomJ2f7DxoFcWR+71VrlgWU+Q5yG46iWQ3MFizgqFprHLDKnotKGvnDct+6yk7x7dXmW0VsbZeof3IAjmxsPls3W0bxHpe6848IRZo7YgFVC1IYZU7FtCySutY2PXOsiqtPy6rXLUglwVkQ/N3tO06Yp/Tbmzpru5cw4YC24dCGWXhg2WDRRPKpLIArGWwWZDypptucircOmNBNGtC1JoHDGXHWoW87SMWsOiNrNiQP/zhD05w15oTt/2vs2uRBeLsOIps9ta6hrDff/Y7JloAZiix4zb8RherDC4pKXF+b1pLJyG9ef3vyu/p7rDfk7b/33HHHc5vNWtpwLJFD8aArH0f+fn5La0dWNPhdl3tK7b/hN/4YdnJFlS3DFI7l4SEzhMWwOmuux4AAOyOSURBVLRzQ4hl0tpnsEBseMCzM7ZP2fk/Uuhm0NC5y7pUsfOF7cvt/X1ifwPafmp/V0V2wWLLi7ye2HnN9jH7fXOwN4UdCwuC2U2qdt2wgOzFF1/stF5iv89++MMfEohFVHatsZYRLrnkEuccZn8TRBM+nQU5O5rOMrFtOrsBp79+B9pvazuP2HWtOzcihAdk7bporUgMJKFArHVlYL/hf//73zu/vUMIxqKtw9OUOPt2nVVYok/lXavU6VN03Oln6BhnSNNJ0y/Vx/N+oimB11NnX6URR3a/ySQAADCwhQcC7K5n62sqvOKpI6EKYPuhbxUJ1n9hOLsD0u4WtzuFY2FZKVY5bpXc9sO2IxbEtEoL+3FvFZ7R+m6NN6u4sEp/y56wigi7+9PudresWQt8dYVV5FhwM1TxZ0Fd+4O+t4X3NdUb3nrrLacyqDtNbPb2uvQV+8y2f9pdv7FUmNofbFbxZp83MrsmlmapbfvGekx2xPavUKDGgg5WIWj7XXv6ct0OdtaMoGWVWqWEnbt6k21/u4nGKnCjBWNDGRodse8xVLFj5zSrkLUsLes/NpwFD6xyP7QfWfZlLGy/D2XQxNqSgQWubZ3s+Im1+Xa71tixGS2rOJIdDxZ8seO4K1mB9v3Z57aWAqz5UutD1q4Bxiqs7Ti3zxhLAM+CuJYNZdu1s5YU0HcsGGfZkXbjge0fdsNXLCzAb/ufZYpbNqxVxtvxZ8uLDIT2hB3rliUTuiHAbt5qj62/HRe2r1mfhZZ1Ez5kZGQ41zHbh+PZ1OhAZ99b+I0udrOfBdciz9e9ef0P19nv6Z6wc6kFiuzcbfuBVWpbJvDBIlog1irxuxLU7KnIGz/s/GH7U7R1CJ0L7He+sXOE/e1g197wZsRjYdduuw51xgKs9neK7buRN4SF2Gu2v9t+HXmzgV2/0Tm7qdZu1rK/36wVEbvxK5amWYGDjbX89etf/7pHGeEWkLXjx248tfPrQGHX9e9///stgdjf/e53zo1V4QjGIszH5J1xuz753e8o9RPjNUJ7tbu+WnUVy/W3n35fL7jDpvLfqa56m3bvG6nET3xBZ33zbp0+40LFdr8wAAAYSqySx5o0tgoea44pPEPV/vi0u6ZDwcqO2B//VqloFQHWvFYsbFr7Q9fm7Wr2bW+wynNrjtgqOSzTwCr0bT0sA8F+nHeHVcTZ57egtDU/2tt6u8LfmiazQGx3mvAbrMEHq4y1itUTTzwxpkCX/bFmgTgL3of2CwsyWSWafc/tVYrafm37gFXmtVd5Fg8Ded0GIzsnWqWrBdwsAB4PFpSx5YdXoFqQ1r7HyIBqOMuIs9dtOhuMzWc3k1i5NbPYG2zdrDLG9qlYs+jtWLEmQm37xRIstYxEC2DYeaW9ZmjD2fKtHz9bN8tk7Gg7RWPXPutr2c75Fmw3dl6wc7gFX6wJ+87YTUR2DrVzimXPYOCw86BV/tlxcdFFF8WUdW4Vh3bs2PdqmeoWlLXzowWHepsFeG3/tWPegrF2jYnGmia1Y8POEaGsvcjB9mW7GS6WPpSHut64/reno9/TvcGCgJYNbfvDEUcc4ZYObgMhENtVliVv53sL2NnfDnb9sRuObB+JV/akXRet9QXbt+w63BHbT/ld130WkLXWFx5//HECsRiy7Bxsx0BPz2mWyW+JAgNFKBBr5277jNZSSWQg1hCMRdAhaRp3w+2adN54Hab39e7zv1Z1UZ5e+sUyvfPic/rwvW36yB2aXn5M7/zu+3rptrn62+p/yKeROuq8PJ11w7U6jD0KAABEsOChZXxZhXR4s1tWKWk/wi1LKJR90R77UXvqqac6FV2WWRoLq1SwrCLL7rMK9f5gfyRYwNn6ibM+X60iPtb174gFmjvKWuyu7vQNatk9X/nKV5wKvHDWbJBlcNh6hjfDFqvurMtAYJVa1h+bBbKswtT2w/ZYZa0F4qxi3yraQizLwJZjr1tGdTQWpLH926bry0DNQF63wcbOebaPWKWrBT3sPBkPoVYF7FwUYt+LVe7bd9heZqmds6zpQqugD2U427nHgowWhLrwwgtjCjjEwjJ+7D3snBFrM5l2frVjxwJhHc1j29maYrUgqDX7bp87Fha0/etf/+rcUPOZz3ymw2tUR0IV/6FtZ9cjW5+Otp2dN+y6aI+2Dp0FatD3rC9GC3pa5dtll13mlrbPzp2WcW0Bos9+9rPO92/HfFf6gOwKy3a0Gzzs/GL7UiRbD/tNZtdoy4INb6o5fLAbyOzGm/Dfb4iuN67/HWnv93Rvsv3BzlWDXWQg9o9//OOAD8Qa+zvBrod2vbK/Hey3tF0zQv37xoMFBO36azcdtXdDlF1n7cYBy9K23wToPrsxxwI0BGKBg0dkINZu2Pv5z3/uvtoaoTMEfExjcufr1OOGSx9s06sl39Y/V6/V3k7rLN/Xh8/frs1Fy1T3xl4NP266PvE1ArLoGxm3lDt/NJbf0vYPSwDAwGKVyFVVVc6jVWiHgnb23CozrQLAsjOsMjMye8OyiuyucOvHyiqHbPrwgEJ7rNLcKjGsEtIqDaxyoz9YpZk1ZWgBD6vQt35kO1t/2wbWl4vNE1n5bwEuyyS2O9hjaXqsqyxIYZWJXWGZr1ahWFhYqFtuuUXf+973nPE5c+Y4lUmhDJ2usHWINWAyEFn2it04YJmD1odPZFadfa9W4WX9RVlW+Lp161ptd9tHrELXtq1lNUUGy2x5M2fOdPYVy2bpTuZxdw3kdRtMbLvZTQx27rN9xfoTikcFuH0f1uyk7XPhFf4WALCbYex16wczsnUCCxRkZmY649aHcPi62TnNAoQ2r+3Dti9Hnqvs3N2V5sktOGzHgQUv7Hwf6scynD2383qoz027YcPuiLd5vvSlLznnoch57HNdffXVOu+885xzplWCdoUdy3b9sM9o5/BIM2bM0MSJE9u8r20be08LWlsGb0j4trNmYS1bN3Lb2b5h29UqdKzJ41hbg0Dfsso2+3vUgqyhvjw7Y/3t228S+24twNnVPiC7wtZr5cqVzu+Fc889t03Gm2WU228k+w3WUfOn9pqd9y2b25rfRcd6ev3vSHu/p2NlGbt2A120dbL9wVq0sHOx7TuD3YIFC1oFYq3p+PBjzfr3DjXHHW2w76e/2G8nO+asr2b7zmx/inbThk1jQefI77OrbLvYdd72A/s9ENnahO3Lls0f76AwAAxW1g+u3cRqNzRZRmx7gVgzLPOSWYU28lxV1ypI0DN2p5zp/8qJ4TpsRpE+PmmkEj74l/6xrFCN7waboGpxxHSdcGOBUi+eoZGH1Ovdf0dUZja/Kd+L/9D7J03V0cmn6oiRW/XOKz2r8MxbVqkffONq5w/nNkP2ZfrsuePV3PCSXm2IWFczrVDld+fr+mjztgyX6bS3H1NVR4kpE+Zq+W8KNS8w/WUTd+qxp191X2hHJ+97RWC9MzPO1omeD/Sm3XkWZdWDMlT40P8o/ys23xX65CGVWrO53YnbClvvq7NO05uPV+nAn/+dbNvQcN4IPfSH6B33DxQnXjhbU4/zaO8bG/TYuvBPCAAD18C5/nfOAinWhJ794W3ZR1bx0xm7S9/uCrTMo8g++ayiybKzQv3DWvO9xgJulilqWa9WyWcV8BZstIpKq2iyYI9VAth0jzzyiFORHc6ytkJ3a1uFhY1bpaNVkFvFoTUX99hjj7Wq6LJlWwWkVV5Yf342T/hgFftW8RFt2eGDLceCrbaNOtpeVhlv62KVW1YhFN68V2g+W89QZagFMKzZQ8tksYok+/xW2W8BFdsmVoFrFbrdyTaNhQVdupLtZp/PvncLvFrFoG1Xq/TdsWOHEzy37y2W/Sec7R+DuTLQtokFUeyPMtt3bL+2ynrr98sCNLZ/2vFi29r6krHgTCQLHNkxY8uwfTo0v+0D9gefbWsLdFt/oO1lSYf24Y76GgsdD7Y/xRrg76t1G+yinWvs+7fzmgUUbTtZgPThhx92AibhQucGu27YMqzyPnTuscHOKaHsVmP7k7UyYAFDO1/YNHbOsAw86+vRstssEBn+fdj5K9RnpAWF7dxr62nzWdarBQqsAjhaJbBl3FkA0oKJ9l7h56rQudtuKLF93IKJlk3TGWstwSqFbZ1sPWwb2WNomRbkt89tywo16Wzz2DnVprMmP+1Ys33Rtpfti/b5LcBg1xnr9zxyO3e2/9uxbNvY3tfOzXauDj/H2/vZ+drW1d7f1iN0HNj3bpmwzz//vDNtSKhJZltPCyBbhbt9ZvsOLaBnld52PrXjwppxizx/RvuuwwdbR7vmdeUadjCxbWrbxfYNC4xFY/unbR87j9n+bts9fLAbn0LnJTsWLBPR9hH77sPZe9h50L4/W54dY7Y9bT+wgIad3+w8GGL7kh0X9t1bUPb+++9vOYZNaD77DRK+7u2tg32O0L4SrY9my7yylgrsN5Ydr7ZfhNYnOzvb2U52vbU+Zttj5xk7P9hNArbOdm63Zdo+b/uW7fd240b49rN92N47lv6ZB7qOfttG0xvX/47es73f08bOUbb/WxPGttzIvzfsvGH7jH0/du22/cLeywK0dv633122Lwym31+hYzny2LDrgn0mC3aXlJS0uqHIhOZrT7RjLdr7dKazYzQaO6/YjUe2z9h3af3LRntPO4fbd2jXYdvHLr30Uuf6aDcQ2ftac9PW7HHk9TfaOdKu07YcW6Zdw+z4tuuo3ehk/WLbbxE7dzz66KPO9Ka985Wxz2x/x9jfLNHWob9093s8WHV1e8R7+t4S+b49fQ50xv6es9/fdgPmL3/5S7e0tU9dMN15JIdxqBs/R6eeN0aH7Nupf5f9UDv3uOUtxuionGt13FHDAz/eR2pcxjyNP8l9Kdy+f+ndXz2sNz+QRk2eo2PGu+XxMMKrpDMyNe8HJVo0veP+5Xoi/apPK9kd9555kXLc8e7y2HpPSFPmnEVafn+pCmenqfO19yj1/NyW9YjFzDkXdWl6AAD6glWC/PnPf3YyMOwP91AlkrEKcGs6zO4itEonqzi3SgILCFolpQUw77rrrjaB2HAWbLB5bLDKBKt0tD+e/ud//sepbIjG+m0LzRM+WCVjuPBlhw9WAdJen5nhLAhgFSNWYRYeFG6PVSBZJql9XttuVnFr72frYZX4v/jFL9pU7vcm215dqYizz3fvvfc6zcHdeOONmjdvnm666SYnO9aCxl1l793edzaY2L5uFYCWmWSfxypW7Xu079Mq663S/ic/+Yn+9re/uXO0ZgGYhx56yMnQsGVZpYDNb8eFHScVFRVOEK+rge7eMJDXbSAKP9fY928BUavgsUwd244d3aBjwQ6rHA3NHxqsEtTOCeHsvGfn1tA0VvFu34d9F5Z5G/l92Pn1vvvucyqrLUhp5z6bz4LEdl4uKytzKl8jK7GNldnNFpZdZFk8FkQNnavsHG4VElYBa32ixVqRZcu0Cl1bpgUSLOsnfJlWmWvHU/h5xeaxYHFoHju2LAhi28eCyaHPYRUj4UGvrrAKFvu+orHrmgWn7H1D28+2u1VO2/taM2WR28++/1WrVjnfv81r35tdT0LXFLtW2Gt2I1F7x1Dkdx0+2PEYrqfXsIOVbUMLcNrxFTlYeawsOGEBS/vtcfnll7ul7bPjIpSN2hetdtj6RV5TbZ+wQJXtm7YPdsSuyTaN3ahmNw6Es5sKLBAduf0siHSw9DvaHT29/nfEvrP2fk93xgLkNq+1KmDfnZ0D7LsKnUfvueeefmtJprfZdedb3/qWcy6NxjJnLQu0vaG0tNSdsu/Z9dSaNLdHa8XCzhnR2A1G9veAncdDAXzbv7rD3uuHP/yhs0y7icT2VQva2/5lN+0sW7asw0wvYCALHe+h47qz50B32G/7X//61+6z9iX8uKTM+cvgp4ULnQL0jVATR5Yx0H/G6Ki8u3V64Ldb04vLtakiWl8lEzTuv36gU492nwa8/fi1+neN+yTSJ76rc2efoUO2/U4vlD6m7vZkZtmb2SdLvo3Fyrmtyi01iUq/PE95X85QsrVi6KvR8pwCrQq+GGQZqt9Ol1d1qshaoO6dSmdqSfk8pXkb1PBWkpKO9av2kVzlP9jBH/Advm+iUs7P0OemZeqic5LlHWZlfjWsK9H8O9ao9VItMzZf6aP9gR9SnsAPK5+qf5qjwqfclzvizVVxWY5SQ39T76pW8dWFCt+C7W/bwcWaKc6f7B30nwPA0DIwrv9A5yyoZnfO9wernDxYKgMBAAAQH3Yjjt0QYDeBxTOQ0lfvE3Ldddc5GanWLPCPfvQjtxQ91dff40DX1e0R7+l7S0/fl/0E8TD/e7c7j2TGDmWHz9BYu4lu35t67U/RArFmm959ukY+N6q6b/s6vfn34HhUf39Y27YHdqwJU3TUkW5Zr2pU9W+LNW95dTCA6Z2oi650XuhdM6bqFEtbbdiilU6Ty13PUG2tUXXrK1Ry2zzl5BVrzet2t5pHSRfmadHl7efHNu6wT+nVpBm5MWTRSuk3ZTqBWN/r9REBXgAAgNhZMNQyKPqavSeBWAAAAAxFlrlu3RRYywih5tKBeHj66aedbGprtj68z+T2BgtQmq5Mb3/XWV/Xfekvf/lLlz5X5GDrbS2c0Ecy4oFg7FA26QyNs8c3avRem+aJD9j38k+0ueg7euGn39H/LivVhx2mu27Tuy/9J/D4MSV+fEywKB6e2qAtu2zEo+G93vqNV7nTJjrBz4ZN5Vr16AtyqiKPP1c5rfux757tVVr2nRJVO60UepV2yTylOy9E8mhPXY1sMk/qVOV22vrMTGWfnRh4bFRNrU/Dg4UAAADd8tJLL8XUrHJvsfey9wQAAACGIutX2Poy37Ztm9OkNRAvv/3tb51mVbvbvHVnLBBbVFTkdLPTl6ybhwceeMDp+qc7rGnu22+/vd0uKoCeoJnifjIQmikckV2is84eqd3rb9dLa/7hloY5ZIwOHR2Z3voxDR/1qprqd7rPo0iZr09el65hL/9aL5SvdQu7pvOmdHNUvDLXyQKtezxLC37lFpueNlPszdPS8mylqF6V35inkm3JmluyXFnHS43rC5V7e7U7YYQuvq/3mmKVXZkqjxpU9f08Fbd0pRRqpjjw2X47T5snLQ1sC0+nzfEm37hcy2ckS69Xal71RC2/PCXOzRQHtlOlbafg51154VwVzslUSmKwjWR/Y53W3FeoknXBStzULy7SgsvTley+rqZG1T1dqsJ7q5yAczSJgWUWXHuRTh7nlceadm72q/H1aq28u0iNX6KZYgCDD80UY7A57LDDdO6557bpm7K3WZ90L7zwgtNHJAAAANCZmTNn6tprr3X6CI83y5SzAE08AktpaWmaM2eOhg0bpvHjxzt9yd99990EYwHgIEEzxZBn9Ejn0bcjSiDWnDlHk+beorO/+QOd++3QMF8pnzjOnaAdO97T+4GHQ0cGlx8PqTdk6GSL6flrVf1osKy3JF+XLqfhha3VKttmI/UqW18ru08o8exszbSiXuB78AVtdW4+SlLK5PZ+ONar9MktTpPD3rOylNvu78t05U62RpR9qvldSTCTtw955yxV6cIspRwe+Eqa/PI3B/avxBRlLVymwulepQZeL/rKVCWPPvC6RiQqZUa+lhVkBBfSileZC0udZaYmeeUJbH1nPr9HiROmKq9oqTIC7wUAAOLLgqMWJI1nhqwtm0AsAAAAumLVqlVOZp/PF9+OuizDL16BWLN//36NGzfOyYi1m3b/53/+h0AsAByECMaifX//if52e55eWO1EJGP33ntyqtISj9NhTkEvGpeu7G8u1eJLkp0AXd3q+1TWq7+5QkFNv2o3PtLS76qvoiYYOO3VPmpr9bZbr3lU0rnBkWhWV+gFp9vaVE29Lnqvtd4rr1S6tTm9vUYVq4NlfSdZGTOO0dYVBcqZPUuzbMhbrg0NTvha6deVqODyFPk2l6ngavf1y3K1PNhOsxKn5GhuRBPM3isXa+6FSc53XL+2WLmXufPNzlLOojLV+FKUPin+dz4CAIBgQPb555+PSx+ytkxbNoFYAAAAdJUFZHNycpSVlRW3IS8vL65NrW7evFlXXXWVLrnkEue96KsSAA5OBGPRuea97kiMjv6Y09+q9vnVYfeyMfBOzm/dkfb9hcqbniJvU4OqH1isRfd11H57irLD5w0fluW500SYlqU0C2r6t6qmIizK6yvTC0401qOT03ODn6/HatQYUyC5WsufDmbmJp+fp7Z5pMnKzbDmjv2qW18WmDo2bbZty1CuwmnuRDHxaG/tI7r1gZqW4LW2r1LRz6qDzQ8nJipx+wYtXVSumpYJGrXqjjWqdTODT5niFLrSteBi+zxSw7oizburdTPGvs3lKlhSqXpnXgAA0FesP9e//e1vTpPCPWXLsGXRRywAAAAAADjYEYwdwvy7rDFhyTv2DOex13zsYxphj43/URfDuDHxv1WlZdfnqXBFWPCvl8y8aKITaPXXPtsm47b8qWBzwZ7UqcqNyOSMN9+DT2uLvfnoScq6JiIUPGOuLjo+8OjbojX39XUDxcanLU9VtP0uNm7Ra03B0Ya/RgkS+6r0mtNlokfDj3BKgs7P1EQnIF6rqnvbCS3Xlqi6iwnbAACg56yZtvXr1zt38Hen6WKbx+a1ZdiyAAAAAAAADnYEY4ewpjf+4zyOmpDWqzvCiJQTdWjgsbG+JljQA76NxW6zIDmad1el6nyS59gMzb9nUZQM0Uh1qohoWqRlmF/qThPGm6uLzrRAp09b1lcEy8Kt3qB/ORHHZJ37pTSnqGcylGxBx4A9TZ1VZq5SyToLtHqUen5uYA1CvMqdFgwgN1RXBKaK3YFtGznkqPApd6KYvK36te5oK43a60TjfarfEi1IXC+fG6xtJTVJifa44zVVtYnwHlAXW1oxAACIgzfeeMNpXviZZ57RP/7xD7311ltOtuvewMXf+r2ywcatzF6zaWxam8fmBQAAAAAAGCoIxg5lm/+h7fZ43Bk68nCnpOcOmaKjUkcGRnbqvdreTF30qX5tiRbcWqE6a5523FTlFXQeju0K71XpSrW2ceVV2o3Rmu+dpzQ3KTXpzJlKD45234RJSh5tI369/Wrngev6BzYEm/U9/iLNnREs0+R5yrCV7iiLdCDoTnvVTYHv3B0FAAADk8/n07Zt27Rp0yYn23Xt2rV68sknncHGrcxes2lsWgAAAAAAgKGGYOxQ9sFq7bB46SETNH5a7zRVfOjUy3S8NTm7fZN2vBks61W1pVr0aLD/1MQpucqfHCzuuWTlpqe44zEYl6bsUEC0m9KvOldJNuLbog2/dYo65ivTIxstg9aridOC/dbOvCS4DN/LT7dpVnnQGzbc+Yzt8XD2AgAAAAAAAAAAAxzhjCFtp979w3PaHRgbNXmejkkeHiyONKx1+SGHtDPdEZdqQsb4wE61V2/++ddx6S/W+B65T2u2WTg2SRlfm6/UYHHPTM7Vp63fVTVqw23Rmu4NDfNU+bpNZwHRHBvpFu/5izTvfKcx3i41L1z98LNOtqjTb21qqFnlBj37m640UDzA7dnrBNt1dLIynYJokpV6XEehWgAAAAAAAAAAgP6X8OOSsv028tPChU4B+sbYsWOdxx07djiP/We4Dsv6qT45eYz27fqH/lFyu3bvcV8aP08fnztFo9ynre3Uv0tu0tuh7FdPusbfOF8TjpL21j2mTQ/8Th+5L3VH3rJKZZ8sp1/TnNuq3NIwk/NVekuGkuRX3eMLtOBXYQ3aTitU+bfT5XX6jF2gKL3DtpFxS7nyJ3ulhioV5BWro0aDk29cruUzkp2mgctz8w9kpMb4vokXzlfRgkwlW5PIgfcrDLxf6waGM1T4UL7SR0t1v83SgvvcYodXOcVlyk31yNfYKG9iYmA1ypWbX6ZWibFzlqry8hRpV7WKry5U+BbsdNvGLE9LK7OV0u7nDX0On6p/Gr0f2tC6tPqc3sByy225ftX/fpHm/azWfeEA7/RC/fKbtq1743MAQN8ZONd/AACAweft69e6YxhMjrl/ujsGAAAwtMz/3u3OI5mxQ95efbj6Pv373cDOMPoMnTH3uxpzpJv5+uZyvXTLtXou6hAWiD3yC5owPxiI3ffuc/p7Wc8CsTHZuFyVmy386FHKJQuU06MkyZn6nJNhKjVsKu8wEGta+m71pGrqdcnBws6MS9HUy+eq8J5ylS10A7HbN2jZ/MhAbGd8Kn+0Wk5jxYmWWevT5tURgdje5s3UovsrVflEmRZN74NsVN8jqnK/2+RLCrRkdpoTdA3yBsoWadmN6Rrud/JnAQAAAAAAAAAABiwyY/vJgMuMCcts1b739e7Gh1X35Dp9tC/4clSHjNFhk+fp9IvPkPeQwGyRmbU9EFP2pjdHxWW5SvUEpqtepq8WrgkGJVsyVDsWWrb3mmKVXZkqj+pV+Y15KrF+dDuRU7zSyU5tlUkb4/tKfjVsLNeyn5SrJmoUtaPMWJOsuSXLlWXNKr9eqXlzS5ymi1uJITO2Y2HZruGf69VyZX2rzMYC4pQZaywAfM98TR3nPvf75W8OPA7zyBPY7P6tFSrbnqm8yV4yYwEMKmTGAgAAAAAAAEMDmbFozV+tN5fdpn/++33tO2SkjjovT+feUqLU2dcq8cx0HXrkhJZhxJlX6OjZt+usW+7WJ2cEA7EfvrFOm5f1TiA2Zr5y3fd0gzPqTc/VgmnOaBd5Neusk2WJqnq9RqtiCMSa8qe2BAO/SWmaOdkp6pjfL19DvWrWlqrw+lnKu629QGws6lXyu5rA+/tVW1XWNhDb2/53g2q2Bx6bG7Vh1cpgWbz51qjoGwUqW1+vxqbAc49HnhGBYW+DalcXK29+qZMdDAAAAAAAAAAAMJA5mbEBunPxzW4R+sLAzYwZrkNPukLHXTZdxxw1vNNo/b4921T/p4f15ov/cEsAAEB7yIwFAAAAAAAAhoabCn6ohIQEDftc1qxCK3h+3Z+cF9A3Ro4c6Tw2NVna30CyT/vee0k7n/+d3nju72rcvlcfeg7XoYcP0/69e9Vsw843tf0f1fq/P9yjrasrtfvt/7jzAgCAjgzc6z8AAAAAAACA3vSpC6Y7wVgyY/sJmTEAAAw9XP8BAAAAAACAoSGUGUufsQAAAAAAAAAAAAAQBwRjAQAAAAAAAAAAACAOCMYCAAAAAAAAAAAAQBwQjAUAAAAAAAAAAACAOCAYCwAAAAAAAAAAAABxQDAWAAAAAAAAAAAAAOIg4cclZfsDdOfim92igWHMmDGaPXu2Ro4c6ZZ0z/vvv68VK1Zo586dbsnAMHbsWOdxx44dziMAADj4cf0HAAAAAAAAhoabCn6ohIQEMmMBAAAAAAAAAAAAIB6cYGxCgjMOAAAAAAAAAAAAAOglTjPF0n79tHBgNVMcLrzJ4vaaHY5lmoGEZgoBABh6uP4DAAAAAAAAQwPNFAMAAAAAAAAAAABAHBGMBQAAAAAAAAAAAIDe5HYTSzAWAAAAAAAAAAAAAOKAYCwAAAAAAAAAAAAAxAHBWAAAAAAAAAAAAADoTfuDDwRjAQAAAAAAAAAAACAOCMYCAAAAAAAAAAAAQG9KCD4QjAUAAAAAAAAAAACAOCAYCwAAAAAAAAAAAABxQDAWAAAAAAAAAAAAAOKAYCwAAAAAAAAAAAAAxMGgCMaOGzdOHo/HGW9ubta+ffuc8XD79+93BnP44Ydr/Pjxzji676jTz9bZ6d0fzjjhCHdJAAAAAAAAAAAAwNCT8OOSsv3Sfv208Ga3aGAZNmyYLrvsMh1//PHO802bNumZZ55xxiNNnz5dZ5xxhjPe0NCgiooK+f1+5/lAM3bsWOdxx44dzuNAdMMvntLsU9wn3bBnwxJdXvBn99kQN3muli/MUrLqVJG/QKXb3HIAwJAyGK7/AAAAAAAAAHrupoIfKiEhYeBnxp5yyiktWa579uzRSy+95IxHs3nzZjU1NTnjH/vYx5SSkuKMA/0tKT1NySMCIyNSNOlzwTIAAAAAAAAAAAAc3AZ0Zqw1TWxZsccee6zzvKOs2JBp06bp4x//uDO+fft2rVy5Uh988IHzfCAhM2aIITO2h5KVedNcZU8+RvW/ylPRU25xb0vPVeGXMzSxeYNy8kvdwp5Jv6ZQuRdN1N71Ocr/lVsIYMji+g8AAAAAAAAMDTd974dKCPw3oDNjLbM1KSnJGe8sKzYkPDv2qKOO0mmnneaMA/1qY4nmzc5S1mwCsd2ToqlT0pSceISCvUfHyVnpSj81Sd5efJO0yelKSfJq+DC3AAAAAAAAAAAADBkDNhh7+OGH6+yzz9YhhwRX8V//+pfeffddZ7wjlg1bV1fnjNu8liVry0LXHXX62To7vePhlI+5EwMAAAAAAAAAAABoZcAGYy2j1TJbTaxZsSHh2bHWHODEiROdcXTN7Pyf6I47Oh7yZ7sTAwAAAAAAAAAAAGhlQPYZO2LECH3xi19sCcbG0ldspPC+Yy2j9vHHH28J0A4Eg6HPuBt+8ZRmn+I+ace/VkzT3HvdJ70mQ4UP5St9tE/VP83RHU1zVXRjllISAy8116n8sgUqC04YkKiMryxQzrRJSk5025Zt9qnhn89q5YOlWrXZFyyL5E1Tzk1zlXVOshJHuGW+BtWuK9OSe1NUWJmtFOvfNWuBWnoOnVao8m+ny7urWsVXF6rKLQ6XcUu58id7pa0Vypof3udonpZGW2Y8P+ucpaq8PMVdl5XKuLFQedNT5Mza7Ffj1jUqXVKiqu02caqyv7tAsyYHtoe7aH9jndbcV6iSdY3BgjZ6sj6PKG32Qs3NDsw72p3Xtv9Tpbr1ZxvUMmdom7tPI/k2FivnttA3EVifG/OVM2Vi2Pr45dter6d/s0AlHfQzm7esUtknu0/asO9suYbfU6SsCYHlvrVG+V9bplr31ZCMgjLlTwl8cY0bVJzboGzn+25Hm/0DwFBBn7EAAAAAAADA0DCg+4y1TNbERItGdT0rNsQCuDavsWWlpqY644jdz742TdMv6njo/UBshMQ8FS10g5NmmA70GepN09w7S5X/xXQn+OZv8gcHeZV0RqbmFS5T/vQoYbzUXBX/colyzw8GYlvmOzxJqTPyteyW5Pj2S9qeeHxWh1d5Nu+MFHmbg/NpmEeJp2Yp/85CZXpTlbesSHm2PUKvB3gSU5S1cJkWTXOettaj9RmuzFtKtOS6wLyHu9u/OVDsDWz/SxappCAjOJnx79Eed9ktQu8VGOw1hzdTi+4vC3xG61c2fH08gcWmaGK7gdYg/wfu9KG3cbdDcNgbWE6tSu5eo3p7/dgMzbky4rOlzleuBWLVqA2/KlJVYI69ofnts5nAwluWGXg/AAAAAAAAAABw8BtwwdgjjjhCZ555phISEpznsfYVG8nmsXmNLcuyZG3ZGFySPpep5MZqlRXmKisrKzCEskq9yi5YpKxTPfI3BF5flKNZs2cFh6sLVLa5UfIkKeOqeUp3pg9JV/7CHKVaLG17Tev5LsvV8vUN8k5OV3Jw4j7V+5/VdXyGZo7fqvKw+XLv3aAGiwcmpiv3ngJln+xTzQMFynFfz7p+uaqdhNhETf3S3Ijt0dP1ydTcc6Tqn81TzqwD81VuDQYoE8/JUm4o1rm+WHnOspepepcV+FS93J0nMOTdscGZLO2GHE0dFxgJbL/l12e1vG7faeF9Vdqy05msXWU3u9OvDvY3rW2rDixjdn4wO7m2REufbgiMeJR66UJltsRjk5V3Y4aSAmONz5WqyMnALVO+O/+qbfZcqlsdWl5guPlAvjMAAAAAAAAAADhIJQzAYKwFTY888khnvLtZsSE2byg71pZp/dBiMPEqOfFfKptfqPJgZPCAyQs0a5JX8tUEXw9vEjdQVr7oEdVYUdJUZV8eLDbea67UVIua+WtV9o2C1vOpUatun6+y9po2jqve/6wtPHu15eFbW32uxtVFWr4x+D6J4xLVuH6pClbUHGgeePsq3fHHWjnh0aNP0VSn0NXj9ZG2PjxXhb+vP/B+gflK/l+Fau0NPalK/1KwOFbpJ9qXGljMq1Va5TS7HNKo6t8Wq2SF+7SHau9eriqLx45OV86NwVCz98oFmnly4EM1blDpkmiNVwMAAAAAAAAAgKFqQAVjR48e7TQn3NOs2JDI7FjLuCU7NnbWZ+zap7s//HbJZ90ldZ/v5T+pIizWF5JxcZqsUdj2XpdWabPTpqxHx5yaFiwKuPKcVKfp38aNj6g86nw+VayuUUQ4tE/09mdtsWuL1v227YzVta8Fg61q0AsPVztj4Xx/eS24HTzDFX7U9Hh9mrbo2UeizOir0mtuF4pHjIsyXwfqtgeX5z01QzMtQzZuqlX8s6rAFpOSpuQqLzVTCy+1fSrUPDEAAAAAAAAAAMABAyoYe9ZZZzkB2RB7Pn/+/B4NtowQy461zFsMFn7VvxI9vJUyLthGrHdyviorK6MOuanBHlePGBHqhDVDyU4CpV+v1bYNPrZY36Du3wLQXb39WcNsr9cad7SVXXu113msV63blG4r23wK5pW31uP1eWurKtzR1urlawqORZ2vA1WPrlGdxX8T0zWvtFylP56v7PSuLSNmG4tV9lyj5EnRzB/MVXrglHWgeWIAAAAAAHpXtL+7Yx0AAAAQXcP2nXEfQgZMMPaoo47SKaec4j6LD8uOtczb8IAv2vezr03T9Iu6P1xe8Gd3Sd21V3vecUfb4/fL39TxsCcwtLZXe53+RweSeH3W2HRrrjiuT5fVlmrB14tV+WqjNMyrpDMylVdYppX3F2vuhb0flK26q1K1TZJnhEdqqlXlXeTEAgAAAAAAAAAwmCSNGxPXIWTABGMtg7UvmhAeNWqUzjjjDPcZBrv6P+Zq1uxZHQ55d2xwpw7T0Z7vHe40ZTzQdPuzxslAWx9tr1LJt3KVdX2hStfWqtGCpeNSlbWwREsuD2bz9pbUq6bq5BHukxEnK+OaVPcJAAAAAADxkZWVFfMAAACAgWNABGOPPvpopaSkOOP79u1TVVWVli1b1quDLdOWTXbsweHdPcGMy6RTu/IHRqP2OM3gepU8MdkpiepzyXJaM27P6EQF99a2Eg8f7o71nu591vgZaOvTxvZqVdyVr9zrC1S51dbVq7RL5qlrvdB2IHWuFsxIkcdfr8p7rf9Yj5IvWaj5xGMBAAAAAAAAAECEARGMnTRpkkaMCKaZ/ec//1Ftba0z3ptsmbZsY4HYM8880xlH+274xVNa+3TsQ8mN7ox9oGLzVqdpXU9qZheCYDWq3uZzxpKm5CkzarJkquZ+bmL0zNin6vW2M5Ksk78YZWZvrj7t9pXam7r3WeOnf9dnuI442h3tjK9GJb/bLOcbH3GEutRYsTexneBtuvIXZik58DU3PL1UJauLVbbR3iFJmd+ZH9h72ndEYq+FgwEAAAAAAAAAwCDR78HYY489tlVW7ObNm+X3BzPvepMt05Zt72HIjh3kHnlEGxpsJEmZi5e27RfUm6zMryxRaVGeWxBU9eizcmYbna65P5mvjHFOcdC4dOUVL1bWuL3BAF4ba7TldXv0KO3yRcqZFBaQHTdTi5ZlKw6x2G5/1rjpl/Wp07vOl+JR8qRsRYbCZ94Y+D6mJEeUJ2rmhRODZbveDizB5c3UovsrVflEmRZNj1jS9j3B/nOTJurCKJHVjIIFyrC06YYqLb87eNNI1U8eUY2t27GZWnhT25laMolPu7DDYC0AAAAAAAAAADj49HswNi0tTYcddpgzbpmrdXUtIZNeZ8sOZcda37Fkx3ZsRfF3tHBh7EPxCnfGPlGt4jsqVGfNDntTlLWwTJUrV2rliuBQWb5c87+YpqRQv54htct0xyO1TrDVc3ym8u+vPDDP/YXKTvWr+hdPuxmwkepV8ugGNdpoYppyi8rD5p2nqUdsVdXm6GHcnunmZ42b/lifelW8WO+MeSflqdx9r7KCDKfsmNSpyi1YrvInDqzHyifKNO9sr2TNCd9XEliC61NTlWZB+GGJmjpzVrAs5LcbtMX5CpOU+SN3OSuXysLK3umFyptigedGbfhNcWAruHwVKqqodYK4SZ9v21xxxfotweD+sZkqDm2nO/socA4AAAAAAAAAAPpVvwZjx48frxNPPNEZt4zVTZs2xSUrNsSWbe8Ryo6dOHGijjrqKGccbb37zxf1YnXsw7+Cce6+U1uqBdcXqGx9vRotMOjxyDMiMHgC33VjvWrWLlfB90qD04apfTBfc++oUM3rPvmbA7O58zRu26CyRXNVuHavO2UUTxVp7pJK1TaEz7tXDf+oVPE38lX9gTtdb+vmZ42bflif+nuXqnRjvXyB7S73vfb4nNC4ajZWq77RL7/c9bDB36j6FwPfy9fnqaQlchrwvxtUsz3w2NyoDatWBstarFLRXZWqCyxLw9zl7N2jPd5MLbwu3Wnq2FddpqVPBacO8T1yn9Zsc8KxbZsrXl2kpb+vky0ytJ327tkTfA0AAAxKR37ma1pcvEw/vPEzbgkAYCDg/AwAAICBKOHHJWX7pf36aeHNblHfGDZsmGbMmKGTTjrJef7WW2/piSeeiGsw1ng8Hl122WVO88jGgrPPPPOMM96Xxo4d6zzu2LHDecRAkqelldlKUZ0qshaoD0OcAID/n707AYyivP8//k0gQUg4Ikg8QARUUIwoeAAV9Cd4gBQqBbFWqpZiFf8ebakVbatYlWqpB/4EL1ox6g+LYkEq9cADKGAVPBAFFRCDRxAMSAISjvz38+xM2Gw2ye5mNxfvlw6ZmZ3dnZ3zmef7HA0c9/+G65JJs2xE13QrXjvbhl3ziDcXiVYntnO7sTb1wUHW3pvMXzDeRt+1wptKpL42YcbvrGemWeGyO+3Cmxd685OP4zkGfSfYjN/1tMBuKmft7MFWLzffmMk2d2inwEihLbvzQkvUocdxhaSrsetzzZs7d677O3jwYPc3GvG8BwAAYH+Sv2mrZbdp6U0lx9W/n2gpKSm1VzP2sMMOs3bt2rnxZPYVGy6879gjjzyS2rEAAADlKBA012XklR9m2azcqTbxuiHWo5W3eAXa9R9jEyZPsxmzyn7GrFmzbMa0qTZhTI63ZOK16jHErpsU4btnTLPJE8ZY3yrWPRbT5682tXuQ3qmf3dQjOC8afSfM8NZrso3x5kUS7XINXfW3c2D/T7rEm1tWxiWTbJa3zNwZEwJnQAXaZZUJvGVkJPBAqiMSsZ3DB513UydeZ0OqumjUN7uKrCjwjKnnzODgzUc58R5XDUJGjg2/aarN8M+JyTFcyWvrvfXRfnB9BgAAQP1UK8FY1Yrt2bOnpaWluen8/Hxbt26dG68J+i59p2RmZtoJJ5zgxgEAABCNdEvPam85Ay63W/82za7vn+HND5GRY2Mnz7IHfzXUenbKtsx0b75HrZVkZre3Lu2Sk1E6ZGKuPXHr5Taga4Tvzsy2Tj2H2u9uTWCm9LzxttQlL7MsZ8RANwtJkIDtnN4pxy6JcMhe1LNr4Mj2ZGaV7XYg1NLb7ZVVXpcDhats3lM1V2O1xiTheNZ51z5ngF1+6xOWO3GIN7cBWHqXjR42zIb5wz3LXMAREeyn18m+Yydb7tMT7dLe7SPWoK5Mbb233tofrs8AAACol2olGKsAqN9M3+7du2358uU1UivWp+/Sd+q7RTV0mzVr5sYBAAAQZu1s18SdP1x89T02e0W+udRberb1u2qijeniliw15Pc32aBOwdBW4dpX7OHbri7zGVePv80enr3Alm/Y4pZJpDGTZ9nlOerpWwotb9kLge8fb+PHB4bbHrbZryxzfY0n2iMLVrltktmlf8RgHxIjnu2cpc7mA9wzR3pX63lR2BvbjbUeapU1StPHXRg8li8cZ9NXezMbmOodz2ttdsj5PvKK39g9jy2wtV6MJCvncpvV0GvoIaL96TrZd8xEmzZrrv1uUCfLCvzq/GUrLFgkvGq19d6GYH+4PgMAAKD+qZVgbElJiRukcePGdt5559k111xTo4O+U98tqqmrAQAAAFXbsm6+PTJ+tI2fvdZlqlt6J+t/aUgtp3ZjbWBOsB5O4YqH7cJr7rU5S8u2grJuxVKb88hddtcjie3Lrd2YyTbQCwIX5y+xBy6+0K68eUrg+1fYihWBYekce+Tem+3KUcPs4j/OdMslStH0+bbatcHZ1XpdEuyOA4kXz3bOzggeE/kbNri/nXqUbao456Kero/BglWrqNXoSeTxXLRhtc1/5i675sLBNnutu2oELhsDbdJwSi3sb/ab62TGJTZ0YI5l69JTuNZeuPPnNvrmtVYUfLVytfVexCyj/wTLnTHJLsnhWgYAAIDK1Uow9rvvvrP169d7U7UvLy/Ptm3b5k0BAAAgGqsfmWkrvMhVZrse1is4atark2V7oxvXzvHGasJAu6p/p2BTs8Vrbd7Nt9u8SirebtlSea3cSyZ5/V/OmFyu5m9k82zmigI31r73JVaTXSJm5AyM2D/u3Fnq33eSVdo1b6u+Njb8vbNybepNw63C/OUxk71lvT5svX4Jc0M+Y1buZBtbSce88a9z/Nt519pVlqeR9jk2tjQO1MOG5OiILbBVCzZ6QYsMywiNE/WdsK/PxbAhtu4bI/zmwO/NnTrBxkTRiXHfsZNsWkhfzuq7+aYhFR+c7XoNsesmTg28J7BN/e9z3znDpk26zgZWGkBIzvH8yPjZtipYisO69o/cf2+rvmNswtTcsHUOHJMTx5br6znn+mnB12dMsP7evMqU9mtb2i/wvv6x/X1ZbjvPmGoThiexf+sYfm+o6u3fAJ37gfeHnreuT/CBVVcTr9nzt6J9NGvf986YZhMvqXwfxbbOA22ifwzk3lTpera7zjsG586wiX65pKLpNntZvuUve8zGj77GpiyMoRWI2npv3Pz9M9XGBg65LpdMslxv287wd1iXS2xSrrc9A+dTpO4N4j6e474+V/PcbzvcJlzV07Iyu9qIiQ/ahIHJ6XYBAAAADYMLxnqVVGvUwoUL7eOPP7Y9e/Z4c2qevlvroHUB9plm17om1a4NjAEAgIottA0bvdG0dEvzRq2gKFhjNqBtu2jCIwkypJ918TrGK1j2mD0SrAQZn+GTbGhX78MyO9nQ68YGx6uwfPqSYLAvK8dqqkvELmMmW+7EqyL2j2vp6t+3nVXUNW+rgRMs94nf2SDvvWrG1/Uekp5l7XtfahNzqw5Ep/W6zqbmBvslzAr5/vSsTjbod/fbhAiZ7tVZZ4l7OxfNsRXBaKz1HO5FW/sONdeqdcEqmzenoDQYm9XRjSRM/+unRf7Ngd+b1b6nDb3qV15wMJIs1/z27wZ1teyQzh/Vd3Pvyyfa5DGRahiOset/f7kNyGkfeE9gm3pznfRMy+46wK6a+KDdFKnPZ09Sjuei6bZgtXeFUFA87OsHTsi1J3431Hq2zwpb58AxmTPIfvdEbpmgx4rA9cbJzLJoWprumuVtwI0bAlewMGn97aZcNe8atp0zA8fLpRMq2M7VE+vv3ad6+1cBsxk69wPvDz1vA2/WIVmpWjt/A9LSBtr10/xzIeTLM7MtZ8REy70p8lkU+zrPswXrvNJGgfUcWvHJacNdYY6AghU2c15wVBbePtpG3/yMrYijWmptvbd6siz7kgn2+xFdA2NBmaoBf0l/m/D7EYFzz5/Z3vpddFVYgLv616tqiefc3/iMjRv/cOAapIks63nV32zqdaXF0gAAAIAgL/5aKzVjZefOnfbvf//bHnjgAZs8eXKtDPpurYPWBQAAAAkyf6n5ediZPa+yaTfVTFSyV047LwM331bMWe7G4pZVPjM4qnpxG6bYUlftL9O6VFDrL6HajbXrhgZrAxfnL7PHwvrm/c34e+yxFxbYskiVo7pcZ39VrZ7AaHHeK3bnxYNt2LBhgWGwXXznK5bngrKdbOj111dSK6ydDbh+gLUPrEDh2hfsnqsvdt97xQNLLN/F27Ks5/Cw7VCddfbFtJ17WVs/CGAbbE4wGmvZORe5fTpwUJfApwSOmmXTrcKjZuHNdmHIOg6+c1lMzRkrEHRVv+zgMVW41l55+LbSz7r46vF2z+zK+zHO7Hm5DVXz2wUrAtvriuD7/H0U+NRO/cdEDOQWF+bbqgWz7eHbfrNv3S++2u55Jc8rMJFlvS+6quJjO0nH8/w8vwfLbGsfUl6jx/XT7KqewZ3l+pr+Y/B4cuv8wlpvmweOqTETbaxfSGBVgTe/rbWrJGDmy/BiOYUFa4MjIToN+pX1Dny9Oy69777inqq3c7zi+r0h4t2/alpVATMXc1JTtvfsOwev+M1t9vCyYM3ViGr8/C2r/aCrrJ/a4A1Z74v/+JgXEAv84t6X2nXh2yrOdZ43c4UFPzawnoMquI/lXG9+LDZ/xZyKryH7hXTLGRC4pxSusId/M9IeXqF9nG7tBo6xnlnFtnb2b2zkwyuCx2Z2F+sXFt+M+3pVzeuzxH3ur55j468YbzNX6RvTrf2A39uMSZdU3KoEAAAA9lu1FowFAABAfTfEOvmZqWVqmc2z2x5Z5mVip1t276tck5uTrhtiPSqpLVVdOdlexK24wNZWtyvap2bbktJ4RKGtmveURfuR0+evdhnB6V37lQ8KJNrArq6vU63jisdutmfC+uZdvWK+PTNlis2JsPKXjOkXbE66cIU9Nu5eC23NcsvCe23cYyuCGdrZveyiSyrKWVYtumJb+8J4u/CaKTZ/XfBDNsy73WaX1n7sGmzK2FeNdQ4V/XZOs/TSatuBdZu+NNhMbnYXG5gzxPq56tR5tuyZ6lSlrkS7MXbVQK/57IJlds/oa+zeOUvdS7Jl3Qqb/8jNduWVt5evqRmiOH+B3XPF+MD2Cq6n9tHtC7ygZmY7610uQvGIjbtwtI276xGbs3S1Ny9gyzqbf++V9pjfxnhgO/SvpMJnMo7notUbg8dWYKtk+G2aB7bTpb2CE8VrZwf7ml7uHZRa5ynX2Oh7vCBLenvr5/dTvXCDBSvoh3xWQMYYryntMu2U9rUs71AuKgjZJiGK175gN18TOC69794wv6rtHKd4f2+pePdvD7vqomAhDP94nDJ/3zm4YfVSm7OhkmBsjZ+/5blzIWS9tyx/xsbfs8S752Rbz+FhxUfiXeflt9uSYNkNy+zS34YHR8vIGdjFa5Y/cA15Ktq7REMVvB+seuY2m7O6yJbne6HszEwrXjXbrnlktRXNWWvBK1h46wOJuV5VR9znftEKmz7uQntgSb4LGmd2HWETH5xolbQgDwAAgP0QwVgAAADEpcvYgdbFRZiKbdWCp9w8X9H8m+2K216wtV7+qZrc7Drgcrv1iblR948Zt+Ii8+vdxa1ovt0+arBdPX68XX3xhTYulkDdvJleLa1s61UugJJgBcVejaF0a5sTQ5So3Vjr1dXtPMtf+oDNidCcZdGcV2x1MBJknbpW1Nx0seW9MN6umVI+CDFnbQXbLN51Dhfzdi5US8SBHzbdVqx10VjL8Y/htcttSpnVzbSsrt5oNeVc1MtUqdUFgp662ebH03RowTJ74Jq7yr13w7INLqClwEZGjKfUnLV+G+NVNMmcjOM5eACU0W64v50KbNljj7h54XRdWVAaHOtnQ9zYWivwjtOMtvsKDQzv4kVsOuXYmNLZXS3YSnGxFWyIcHxqO4+fUq551+ps54rE/3ujU+H+7THQq8kZuG6/Uv6YqlKtnb+eCs4FWz7HVngX/qxO/YIjvmqs8/TlXg3q9E7Wq1yhFL+/6cDWXLU07Bqyn8pfELhfBnfOhiJ/J+Xb0qeme+Pxifp6Fa8EnPvzbh9t4x/2alNn5djlE6fadb0qKsgEAACA/Q3BWAAAAMSkXa8hdt2kXJs4qL0pllC8dl5p5muooqVT7JoL1dTfbFuRF8zOFNc/5u+esBmTx1pdz6dct2KFeZU9Y7DcpnvVqVSbqsJKpYkwb0FpwLT9oIk2Y9oku25IFH3W9epkwRBCoctsjmx+aZ/A6W0r6o2z2DauiFzD0B65xms28horE2qKd53LiXY7Z6lLyDKmL1jtgjNZ7XUMF9uqZWULEyRS347BLW2Fq+2VkP4kY6EmbOMK4iZEzRzPvdp5NdsL19qCStp6XbjOi7ilt7J2bl3mm1cBz7Ky/RqRwy0nGOkM6GQ5F3krHXhDcKzICiIc9jW5neP/vdWT0atdsFas5dvaCNftKtX4+VtWxftoha31m/rOyCrbpGw11rnoqWXBmvSB93bteZGbV6rHQK8f1GJbu7R6wcaGonDDMm8sROEGW1LH229O1Lm/es54u2L8TAu2WtzeBvx+mk26pBqFFgAAANBgEIwFAABA5ToNDTb36Q0P/v5yG9A1yxTqKFw1024eH7lWl2/D/Eds/JUX2sgrbrPHluR5tUzMMjsNst8/eFNC+2B00jO8QGPt2TBljrlWFdO7Wq9LktSmohTNsdtu9zJ+AzKzu9qAy3/v9lMw4BDWXKevtE/cTOv5q1k2a1bkYaAfgw0PblRHvOscQXTbOdsywoKxNscPzgQUr7Wl0/1c+FVeLctE6Wt+69lqynu+N1qTegwZaxMmTbapuWH7t3TnVi3hx3P4/gjI8iPmZZo8L29Fgb+vssyPvW7YEgzCZfrVmb1ap8XFwfmdcrwgWscsLxhbYBv3tRRdK6rze0PFun97lB6Qu2xXPMGnGj9/o5df5AVjw+8B1Vnnouk2379YdOphY0NWs8fArsHAduFqm/+Mm9Uw+E18VzTMmJD4+7YnEder2la0YrqNu+Lh4LEduMd2HTHBJl/S1r0GAACA/RfBWAAAAMSmuNgK8pbZ7DsvtgvHTS/XrF9FijYstWduv9IuvPhOeyXPyzTP6m0XheZuV8O+jPgstUxay+bZzGAbnNa+9yUWfXgidi7j98LBdufsZbY23wsaBAQDDrfa3Nwq+q5LVz9/FQzeIlZUZDFXEK5Etde5VLzbeZ694AVYClfPt0hxlIyMxByXtabLEJuYO9duvXyQ9ezaydorAF9m/3rLRSWxx3O7nHbmWgu2AstPQDeb6wq8qrEZWaZTf0jPYB+9GxYsCDZZ7jdV3DUr+L2FBaYWq+u1hO7f2NT++VuF4qJgU7EhqrPO82Z6Tc9ae+t5kX9z6WtDc4KB7YIVMwO/BNVSi8dzwum33H+55QQvNrZq5s12zXS/mWUAAADsrwjGAgAAoHJrZ3vNzXrDsGE26sqb7ZGFcYbntiy0e8e9Yl5XiJbdKZ4mLsubn+f3FJttHfvWfiBt+fQlwd+YlWMjqtnVZmk+dCVBpIWP3GzXjL7Q7aN7Hltga/1ohPquu26sNxGu0JbdGbJvKxpG32UJiJmVE986lxXvdl54c/B7LxwfOYySkZCOCbcojh3kBQprynXXX27BWFGhrX3hHvvNFSPL7tPZXl+YUUrk8Tywk1dvsTjfVofXUG3brtJadzlZfnu2G22DV6W0tPZoRoa1tYHWu6POmDxb9cx8Wx2MxrqmitsFXneqqI1ao+L4vRLv/t1VvMsbq77aPH8j6RrsEFg/0ioqIxTXOi+fZ6u85bJzhgSDxn0HWBf3dfm2Yk4db4M3VqVNzFcwXHhzws+fRF+vakurgTfZtInebynOs1duG23jpifj7gkAAID6JjUlJcUbBQAAAGpI0UYrrciaHqxdVF1Fc1YEM/UD2vcbY/39GEY1dMzJsY6tvIlYbZhiS11ng5nWpf8lwXlh1pU2QZqhWECFctp5QYaigqgywec/c5ddM2qwPRbs7DCwQbramOBY0Ip8r6ZXpmV1TcCGSoAq17kiVW3nvu2s9hqIXGGrNnq/J7uL9a+pMgI511uOF+8sWBLYrlPm2+oNUVZhr0gUx3NU+k6w/l6Lo6G1kpdu8ApTZLaznpVsp9I+ePM3WGkcd1WBubqOmVnWqW8v66jTJW+FTdmwwuYFo7GuqeIuXmCzsKD2AzvV+r3V2L9LN/rRx7bWroIo8HW9Ym8SNmnnb9SGWCdvOxYH9ns0rVBHv877+rfVhXpoYLsNHNQlsMYBecvsLmJt1ZOM61Ut6HXdVPvbVb0tW2VBClbYw+OvtHuX1r/fAQAAgOSgZiwAAABqXMaQntbOq+6ZvzZBDTxumGLz/Uz1zJ521cSxllNJnLFVq0qirBn97abcuXb/xIl2/xO5NiHOyO70+atdkCi9a68yfQ36NizbEAwiWbb1GN7fjYXL6D/BenkZ1XnLYuuYcHVp4CXM0n01vTr1uz4hgetEqXCdK1HVdg4qW7OwpsxZEFw37eN+10cVnqq+Vhle36gKPK72xkK06mvX9agkAliB6LZzJdR85+U9g0Gs4jxb8Ni+c3/FK2u9AgLZ1uuqIW4sXMaQidavfXA8b9lT+2prL9wQ2LuSZV2GdnKfn796jpuzYt7q0qaKh7YNFmooirRNali1fm919u+8tcHtoeDngPLR2EsmzbAB3vUmHsk7fyvXZexA6+LuKYW24oXgvo9WNOu8YfpSC95eMgPXzDHWz0X8i23V0umaiepI0vWqxmTkuPPm9wPau1Ys1Jf++CvG25zav8wAAACgDkktKSnxRgEAAIDq63XdJJs84Tob3j/HcsKqlbbq2MuGXDfZpl2e4wVkVtm8Rza41xLhmXvn2VovHpveaZBNzM21SdePsSG9AuuSExj6D7ex10+0qbmz7IlbRwQXjOSioda7tMJulvW86Kr4mpidN9OCXSK2t96XROgRceHNttSvINfzKps2Ybj1arcvMtpr+ASbfJUXvCpcZs9ML7utcsZMsIne7+sS8r7Ahnbvva40irvKHgmOeZbb9AVrzW2qrJ72q2mT7bohvcrUAu6Y09+Gu201KboablGKf50rUdV2jtpC2+B17ZeZ1TU4Ul3zxtt876BM7zTUZk2baGP672sCOaNdF+sf2CZTp95UaXO1MVnuBycDW6T37214j+COzWgXPP9mPPE7G9DeKw0Rizi3c7su/W3MhKk2469+U6TFtnbevTYlNFix/Hab7RWmyMy53GZMHmv9/QMycGz0Hxty3ShYYk9NCT0X1lqBi3hnWKdO+oJ8W/GM9/qKeV5Txe2snTu0iq1gQ+KuOXGrzu+tzv7dcK8t9Y5HXXMmjQnux1Y9htuEabNsRNdMK17rB2zLq+3zNz1wXno/t1SPMZNswqBgIKx41TN2c1ihi4Ssc9H00u2W1XNgsIni4rW2dHrFNR9bdfTuO6VDhqV5r1laRtnXyt0rQ15zQ828t1Yk63pVE1TA5MGJ7rzRtSXvldti6ksfAAAA+wfFYVPuejA38LfE7plwvTcbNaF169bu7+bNm91fAADQ8NWv+39fmzDjd9ZT+YvqM/aaqLPVre+EGfY798YqqD+1u8Ylvhm/LpfYpAkjzOWNVqay3zV8ks26tOu+vlrzXrDBV07xJmLTbuxUe3BQe0UJbOaocVYu7z6a9S1eay/cPN6mhOXwRrWtCwPfe3PgeyPU0ul//TS7ql/2vt8Z0VqbPfiaskGKMZNt7lA1Zao+Zy8sF/yoTHXXuSIVbufSfRnhd0QwZvJccz8t5PgonReFtbMHW7nDKqO/XT/5Kuvn2q+sQOEyu7NMX4z7zsHCZXfahZE2ct8JNuN3CtaX3w/9J+Tar3pW3AR44apVVtS1q2XHuA8rO56j2rfF+bbssbvs5kjVxqLZTmr+87bytc6umzZ3X43O/AU2PqSf4x435dqtpaUrCmzJbaPs9tJ2bKu3nat1bFTj91Zr/3YZY5MnDrVOkb62YIndc8VGG/p04PUI763x89cJuR/5iouDhUnS00uvX8VrX7Cbx08pFwhL2DoPnGgzrvIC5AGFKx6osM9pieXYCL8f1dZ741PBOeTfJ8pc2wLH3tzyx1Z1juf4z8HqnfvWdrhNevBS6+oOwAJb9sDVdvO8OPvSj8LcuXPdX/WhG6143gMAALA/yd+01bLbtPSmkuPqmyaapajP2MAEvcYCAAAgUdYtW26r8vKtUJnlwYpE+wRmFOStsmWz77HBw5LUn9rq6TbuwsF25+xltja/MJhhXyqwTgV5tuKVh+2Pf6wkA/qZcTZ7VbBxWStca69Mj78pytLmLdO7Wq9LIjS1qPUdPd4eeGWV5ReGrW1hvq1d8piNH3VNuUCsbNmw2vL0G8tvaO93PmDjR1ccYJh/12j7+Z2zbdla7S9vpuO9f8Fjds8V46Ov4RaF6q5zRSrczln7gjW1pmi+3TV6WORjsrjQ8tcus9kP3BNVf8DRmn/zKLvzhfBjSudf4LvuvNguHLfa4jn7qjyeI3Hn/Qpb8NidgfN+dORArIRsp7yCsseHOzZeCFw3RkVu/nNDyPL5q+fta9I3YPm8VV6TwFJgG6PpULQmVOP3Vmv/rn7Ext/8mC3L865xUlxgebrWXHG7za/kwKjx87ciCsK6QGzw2HrlgfE27JrygVhJ2DqX1uCVfFs+M0FN7CNp16uk2viM3fzAMitQIH/8FUkNxAIAAKD+S/mLVzP2bmrG1ihqxgIAsP/h/r//Gjhxhl2Vk+lqnf1x1O223JuPxGI71wy2M5Kh4uMqihqMNSFjiE2cdrlpFYtXPWbDxsXWhzdQHdSMBQAASLwarRnrTQMAAABIknkPLLA8jWTl2IiBbhaSgO1cM9jOSIa6flyNmXipC8S6JvYfIRALAAAAIHoEYwEAAIBk2zDFlro2ODOtS/9LgvOQeGznmsF2RjLU0eOqXa/hNmHaLBvqOtkttrXz7rUpMTbDDAAAAGD/RjPFtaTuNVPYzJp0G2TNmnuT0dr2oRWs/NCbAAAAlaGZYgAAYlULzRT3nWAzftfTVBF2n2LLe+Uuu/LeutLpMPYnNFMMAACQeDRTjBp2kLW85H7rMXKIdR0U4zDyBjvpkiHW2PskAAAAAAAajOJCy1+7xB4bP4pALAAAAIC4UDO2ltSpmjGHXmnHXdHbYq0Uu89WW/e/V9vXG71JAAAQETVjAQAAECu/lms8qBkLAAAQmWrG9u1zsjeVHOeMuIyasfAcclA1ArEeqsbuk3G+3fLUXJs7O9duPNObV++MtvsCD3tz594XGAMAAAAAAAAAAEA8qBlbS+pUzZief7TeQ4/0JgK+X2/rXn3PdnqT5R1kbc7sbW0O8CZVM/bBq+3rL73J/d2g2+3psd0tIzBa9N9JNvLW14Pz6xUFY8+3zrbGnht8rU3z5gIAqoeasQAAAAAAAEDtq5GasRdcZimB/6gZi/K+eMu+XvqMFVQ4TLWNX3jLJkuHs+2aP0213Gk32hnerNpw0sW32H3TnrZJl3kzovHG2/bRd4G/ewrsvUX1MRALAAAAAAAAAACARCAYi3J2f7/dG4tNy0set1OvG21NvOlq6dzHfnBie8tqmu7NqB3dTznJOmdnWFojb0Y0ip6zWy4abIOHjrI7XvXmAQAAAAAAAAAAYL9DMBblNO7Qx9r2Gm5ZFQ5XWtvDvIXDpB54mJW2XgwAAAAAAAAAAADsxwjGorzMI63zoCHWtcIhtL/YMMXFttcbBQAAAAAAAAAAAPZnKX95MLckwO6ecL03CzWhdevW7u/mzZvd31rV84/We+iR3kQ8ttq6B6+2zRnD7YBtL9i2r+Nr5ljO+OPTNu6UDG8qXJG9ffdIuyW06d+M7nbemFE2rHdXy/bfVlxgee++bk9PmWavb/Lmhcg4fqRde9nZ1r1DtmX4rSDv0Hvm2h23P215Ntrum3u+dfZeKmftczb4mmneRCRn2C1PjbOTWpRfX//3Ff13ko289T07Y+xNNuq0TpbdwlsRrceyufbg/U/be0XBWXbKjZb7xz6WFen3h2h/9TSbek622Ya5duUVDwZ+R9h6vH+GXXHTaDu7U5alq9nlPcVWsOFtm3X/HfbcquBn7ONvgzX23OBrbYa22S8H20nt9r23aNNae+3x2+3BNwqCbwEAVKlO3f8BAAAAAACA/VT+pq3Wt8/J3lRynHPBZZYS+I+asUiYxocdaVnHdq/WQVW8ozAwFAcGb0ZAcFpDoRUWezOlzXl2ywO325UDgoFYfzlLz7L2p5xv4x6YZKO6est6uv7iPsu9Y5T1OSrbMsz/3MALTQPv6XaMF4Attl3+d+5xMwKz/GUDw/ehKxGvLBs16UEbNyiw7gd4666P1XqcNspuf+BGO9sPLv831/6zQSMZdsz/nOdmldfdRp6Q7cby3v+X5bmxEFmj7b6Hx9ngo7K83xKY1yjdsjr0sdF33GejOwQXiyRtwDibfEtgm3Xw3xtY0cB7M7K72uDfTrP7fhG2kQEAAAAAAAAAAOAQjEXCpHc41g474yxr7k3HY/FfRtuwEcNs2NS3zVUM/e5tm6xpN4y2SYvcYgFd7ZqJV9pJbcyKPplrky4d7C0zzAZfOsle2lBsltHVzv/FSNtXz3ak/WJQZ0u3Ylvz/E02cpj/uYNt5BWT7bm38wKvSK6N8z7rX+vdDFvzgr9sYLg+NzizGtK6Xmjndyq0xQ9duW89ho20m6a/ZwUKALfpY6N/c0ZwYcuzf70fDK9mHN3HIoZjTznPuisWW7zKFk8PD8Wm2fE/Pd/ar59rt5Rup8E2asrb5uq0pne2M35ykluyvIPtf35+hmWufS7kvd42Xq+tlW6dB11ZaTAXAAAAAAAAAABgf0UwFvVSxsW/sDMOCYx89ZLd/KsHyzZHvOl1mzzxJVc7NL3r2fsChWceY+1da8B59v5D7wWDvZ6iDS/ZtLun2WJvOtnSW5i9P+Uau+P5vJD1KLL3Zt5kNz6/xgWFM04YbCODL1je9MW2ys080voMCs4Ldca53S0r8Ldo5WuWG/rDnHRLL3jd7ghsp7dDtlPBC7fYfYuCTQxndTvb+rixcBmWVjDXbh43rcx73Ta+arK9/V1gPL2z9bmge3A+AAAAAAAAAAAAShGMRcIUr//Qvl682LZ508mTYRee0tUUV13z5jQr192prF9ia/I1kmWH93ZzzN7Ms6/dSHs7/pfdQ2rM1oKv/mPTXikXNXXyHl1sa12l0/Z2zIDgPCvKtddWavkMO+a084PzSp1nZ3XTrymw957/V3BWmPx3n7a3vfFQb6/6PFgbOOPAwFaJpNg+evnByNvYXrfn3nEb2bKP6F272xMAAAAAAAAAAKAOIhiLhNnx9v9Z3utv2F5vOnlOtvZtgmOdf/S0zZ07N8Jwu53hulBNt7RMt6hZ0Qz7139VEzTdOv/wdns6d6rdctnZ1r4WoohFX6wq369rqVX2tauwmmFZR7gZzr9e+8jVok3v+oPSGrPOj/rYMfoNmz6yl/4bnFVWkeWtrODbvttlu/Q3Pc38zVRWvuW97I1G8F5eQTCYm3VwYK8AAAAAAAAAAAAgFMFYJEzLH//JTh73m2r1GRuzHcVWXMWwy0UbpcheuvUKu2n625anqGZWezvpx9fY1Keetqk3jLTuNRmU3etCmBX41Aq/90ZDvTrX3lNTwemd7OQLg7Nk5GnHuFrCef/NjVj7tXoC2y9yBd6gTYXBYC4AAAAAAAAAAADKIRiLxEpPr8GDqsjefmiYDRtR+TBuure4o35Zb7ErR460K+99zt5eX2TWKMPanzbKbv7rFXaSt1TtOtkOVgewCoQWuhmety33v64nXOt00qhgs8AZo+zkTumBRVfZ4ukV17VNmiOyguuxo9CCvc8CAAAAAAAAAADARzAWiVW4JdhsbVKtsW9dbc0Ma39idzcndkWW98o0u+WqkTZqytsukJje7my7MKTGaTJltOlccR+rHY639i00UmCfL3FzSuVNfzvw61U5trsNC3xAxk9Osq4uFvsfy62sBmvcDrb2Z3qjEZzfKdjTbHH+GnvPjQEAAAAAAAAAAMBHMBYJs3X6z2zJXZNthzedEAdkmuv6tYw8e+PjfDeWfdIFdn41mxcueOEv9p/1GgvpXzZMZla8Qd8KdOpjo7t642Vk2NmX/SD4m/M/sjfceoUommFvrypWNNa6n9/VRp3UWTPto0XPBV9PuAw7ZsD5kQPHXa+wsxUJtmJb+06yvh8AAAAAAAAAAKD+IhiLumnNt+Za6E1vb8f/qHwo8L0pL5likpbR3UZNvsVGHh+2TJuT7Pzr7rOpN5zhzQg4cbSNG3u2dW7jTXsyjh9l3Q/RWJEVfulmlfq2MFjPN/vo061c7DTjbLvxsbk2d3au3Tgg1ohwtp09YZKNKrPeWXbGdZPsipM0r8jee35qhNqmRZb76keBf9Ot0wm/sO7tArM2vWfPvRB8NRm0fSbfcF5g7fbJOH6k3X7TYGuvWOxXr9ujM4PzAQAAAAAAAAAAsA/BWJh99Y1t80bjttv7myjrn7O3Nmgkw7r/4mmbNXNWYMi1G/0mc4uetpunLLaCPWbp2SfZqDuetrluGQ1zbe5jt9joAZ0ts1FIo8lZ7e3kQdfYfY/N9ZYLDk/fEQwqFrwzwx4MC2o+t0iBz4BDzrZJs7z33DPavWan9rHuCuw2yrI+5w0LzotS0fuv2yrraiND13t2ro0b0N7Srdjy35hmd/yzgnaHX3jZPvou8Lu7djU1Epz331x7O/hKEqyxtxcVWfZpV1rubG89A9v36TtGWXdFZ4tW2dN/nRz4LQAAAAAAAAAAAAhHMBZmXz5jeWt2eROx27XmZdu00ZtImDx78N5p9vaGYEAyvWm6pTcqtEJ17uopeuUOGzV6ks39MN+KFHPVMhrSi60of429/ewku+b2xcGFZc1i+4+W3eF9nls28DmBZRdPv8mu+MNzgW8N88Iddt/za6xAnx9YWO/ZVejq7Jq9udje2xT4u6fAFv9rVnBetL5/28ZdFVj3Twqs2PtcBWGL8lfZ3L+MttF/eSkYBI7odZv7vr8hAr9zerm1Tqi8P19hN01/2/ICKxTcboGZOwosb1Gu3fTzcZZLJBYAAAAAAAAAACCilL88mFsSYHdPuN6bhZrQunVr93fz5s3ub+1rZk26DbJmzb3JaG370ApWfuhNoCpn/PFpG3dKhhX9d5KNvPV1b27sTroh1245LcuKVz1to8blVhK4BQDUJXXv/g8AAAAAAADsf/I3bbW+fU72ppLjnAsus5TAf9SMhWe77Vz5jBUsjXEgEFsLzrPzT3RtBNtHrxKIBQAAAAAAAAAAqKsIxgL1TPtfnG3HZARGNr1nz4X1cQsAAAAAAAAAAIC6g2AsUI9kHH+FjRvU2fUvu+rf99nb3nwAAAAAAAAAAADUPQRjgTrvDLvxsVk2a+Yse/qOwdY53azgvw/azTNooBgAAAAAAAAAAKAuIxgL1HnFZo3SLb1pemC0wNa8MMmuufUl+ooFAAAAAAAAAACo41L+8mBuSYDdPeF6bxZqQuvWrd3fzZs3u78AAKDh4/4PAAAAAAAA1L78TVutb5+TvankOOeCyywl8B81YwEAAAAAAAAAAAAgCQjGAgAAAAAAAAAAAEASEIwFAAAAAAAAAAAAgCQgGAsAAAAAAAAAAAAASUAwFgAAAAAAAAAAAACSIOUvD+aWBNjdE673ZqEmtG7d2v3NzDzQ/QUAAA1fYeG37u/mzZvdXwAAAAAAAAA1L3/TVuvb52RvKjnOueAySwn8R81YAAAAAAAAAAAAAEgCLxibEvwDAAAAAAAAAAAAAEgIasYCAAAAAAAAAAAAQBIQjAUAAAAAAAAAAACAJCAYCwAAAAAAAAAAAABJQDAWAAAAAAAAAAAAAJKAYCwAAAAAAAAAAAAAJAHBWAAAAAAAAAAAAABIAoKxAAAAAAAAAAAAAJAEBGMBAAAAAAAAAAAAIIFSSoJ/U0tKvDGgjMaW0raXZZx7tWVf+gc7dPS+4eALr7QWvXtZozRvUQAAAAAAAAAAAABllZRQMxaRpXYfYwef19eaKOCaEpznS81oY5nHnmVtfzTYGnnzAAAAAAAAAAAAAJRFMBYRpR3SxlK+WmLfPn+/bVpd6M0tK6XFUXZAG28CAAAAAAAAAAAAQBkEY1Gxg3Is86QR1rJzpjcDAAAAAAAAAAAAQLQIxiKiXZ98YEVfF1qjrANsz9efWdHnn9n3O7wXa8KhveynV99gE2+9zE72ZtWGboPH2A233mHjzvdmAAAAAAAAAAAAAFEiGIug1HbWpPdPrOVZo9zQvFMMtWGbHmypmYGh6QHejARol2Mnds22Fk0aezNqR5ecY61966bWmDMFAAAAAAAAAAAAMSLEhIAjLOPHl1nrY4+0jMMD4xUMBzT1Fi8j8NqQMXbwyMBw0W8t+6zTOKgAAAAAAAAAAACAgFSzFG8U+60u/2MtWnjjsdrj/fU0OryvZXas3dqsAAAAAAAAAAAAQF2QctfU3BKN3D3ht24Gakbr1q3d38zMA93f2pR+5nhrE08AtfADy3/6HTtg5ChrGdKq8d518+zrV9/2pmJz8hV32KU5EavgBuywldNvtCn/9Sal6VHW78eDbMAJR1hr/227ttnXq5bZv2fMtre2ePNCND36LLv4/FOtyyGtrWmaN3On3rPQHnn4ZfvahtoND5xh7b2Xytnwul01cbY3EUkPG3vnKOuW6a3vxz3sgp8PslMO3/d9u77Lt5WvP2tPvPhJ4FcFNR18rU0ceISl2QabP+6vNquCPnr7X3uXDTs6zXasetbG3b/ImwsAqA8KC791fzdv3uz+AgAAAAAAAKh5+Zu2Wt8+J3tTyXHuiMvcX1qU3e8dbI1aVRyI3Vv8ve35PnwotO8/f8e+mfOc7UltY42aeAt7UlsdFPeBtWvn9sCwKzB4MwKC0xq22/bd3kxpdZqN/f1YG9k7GIj1l7O05nZwzhl26e+vtR929Jb1dPzxb2zitYPsBAVGzf/cwAtNAu/pfIQXgN1lu73P2rXXzQjM8pcNDlFrMcjG/X6Und65tTXeu+8z01pk2wlDxtofL+8VWI+gHXOX2VoXgG1n3YZmu3nlnWUndlREd4d9/i6BWAAAAAAAAAAAgLqMmrG1pO7UjD3CMsJqtsre/KX2zYsv257K4o5pR1jTc35iWdlhwVxXY/a58BaMY3PKGJt0ybHWtPBDe+x3j9hb3ux9jrCf3nKt9TnIbMfni+zph57dVwu2VQ/76TUXWp/sNNu17gUbP+llr/bpWTbu3kHWMW2X5b3+iN03M6RWanYvG3hutq2dPtve9ebJsPH3WP92Znmv/sr+/Kw3s0p+zdhdtqPQrPHOj2zWAzNsQb73bU2PsnN/Mcp+2LV5YKJsbd9+V99hI7s2NctfZH+69Vn7Oji7VGnt2S3v25Sb/m4rvfkAgPqBmrEAAAAAAABA7aNmLGrQBtuzzRv17frMvn3hZdvT+ARrdtaVdtBPf2vZ4cOo8XbIz0aVD8TKru/NRfiTqOngoXbyQYGRb5baA3eGBGJly3J78tE3XSAzreOpNuzQ4Gw75Qg72DUTnG8fhwRiZUf+UpsVFoitvjRrap/YPyb+fV8gVnZ8Yv++/wGbv0GR7qZ2dL+zgvMDFrz+iX2nkeyjrJ+/3qWa2sAcNWNs9vWKFwjEAgAAAAAAAAAA1HEEY/d7u23v96Ft/wbsLLQ9e4+wjCE/tFaHt7G0Aw6wRuFDemNL8RYPt3fLN+a37psc+4KSeSvm2LrgzLK+fN/yXKWjFnZIdzfHbMVG2+RGsu3oEUeVNg+cTJvfm2OLQ6O+pfJt1rtfmMKxaQcdYX2CMwPr+IK9k6+RbDvujLCmig8dZN3aBf7u+szene0WAgAAAAAAAAAAQB1GMBZWvG5D+eBp1nHWNKzp4mjt+CKx9UvLO8YObhUca3/mHfbAA/dEGMbaya4l6DRr3MwtGlixl2zBClUDTrP2Z4y1SRNvsLHn97KDkxaV3WFfr6skaLru22At2MwWdrCbIfn2/MoNbqx117OtixsLOviMwO8O/N214RN7JWKAFwAAAAAAAAAAAHUJwViYrXveCj4Pa1q4kWvPN2Yl371jhavDatom085dtquKYXdpv7c7bPGDE23ynA/tawUzW2RbtwEj7Q933WF/GH2WdUlGULayjnPXb3c1Y8PteOEjW6cXWnew3l2D88yOsnO7Krq8w9a++UKZJpYBAAAAAAAAAABQNxGMRcAW2/nyX+yrpx6xr58ODHPmRY4h7thkRZ9/VuGw7cOXLf/ZuZXGHxNrh62ceb1d9+vKh0lzvMWdHbb6xUfsT+NutD898bqt/HJH4Cxoagf3GGRX/vbH1s1bqkbkHGgt9XfXbtvuZnh2vGD/XaNwa2vr8oNjgvNyTrMuisVu+cTmLwzOAgAAAAAAAAAAQN1GMBb77Pja9hYGhh3fezOqtnvt87b15Vw3bFuy1PYmt7NYzxe21VUNbWoHdz3KzYndDvt6yWybcvuNNn7Gh6654LTsU23gwOCridHUWrSvuLrtwUdmB/ut3fK1hTfsvODNda72a4tOvVyA+OQfHGUtAn83r3zBVmoBAAAAAAAAAAAA1HkEYxG9pm0s4/AjLOPgTNtT8L01OvgIa3nUcd6LSdKkmbmuX8vIt7fXb3ZjrbudZf2r2bzwdwufsHe+1FhI/7JhmrWIL+jbPmeIdfTGy2jay4Z1D/6yzeuW29duLMR/F9nqLYG/rTpan5zTrPeR+pH59sHrlfRBCwAAAAAAAAAAgDqFYCxitmvNy1b49kwr+sabkQwbvgs23ZuWbUefWT7aunrGm8F+VZseZT8cP8bOPTpsmVbHWP+Lf2N/GN3DmxHQdahdemEva9/Km/Y0PXqQdTlIYzts+0Y3q9TW7cFeXVt36FE+qNq0l425/R574P5bbUzvCiLCB/Wyq8YFPj/05VY97Ke/HWbdMgPjOz6xN/7xSXB+GR/Z8ysUeG1u7c/paYcH3r9r3fv2vAsaAwAAAAAAAAAAoD5IuWtqbolG7p7wWzcDNaN162CtyMzMA93fuucIyxgxylqqbdxwe7+37zd9b2ltWtmu5Y/Yt++Vq9eZANl2wR9vsNOzg1O7dioo+r2tnPFHe+S/wXlNe19mf7zoeGvhFykILBMMnaZZWhM3Yt+993cb//D7wYlTxtikS451TQMHPy8orUma+/vdqtl23/2vl62l2nesTbrwqGBzwrsCn69mmPP/Y9fdObvM59nnL9tVd76gsYAeNvbOUdYtc4etfjvfDj/piDLf6X+f7dpsbz39V3tsiWtzubymQ+2GSWdYezcR+KwZN9rkhW4CAFBPFRZ+6/5u3hxs4QEAAAAAAABAzcvftNX69jnZm0qOc0dc5v5SMxYV+MyK/plrmz/8zL4v2l2mL9iSksaWsmuDbfnXPUkKxEq+/SN3tq3MDwYqFcBMS91u29W5q2fHkr/b+D/k2htrNtsOxTm1jIa0XbZj8wZb+UquTfQDsbJhhb2jZXd6n+eWDXxOYNl350yxW8MDsbLw7/bE6xvsO31+YGG9Z/d2V2fXbMWKYFPCe7fZuwteC84Ls3vlfXbr3xdZXuAD/O+0XTts85pF9tgtt1UciJUdL9lKV/03oHCdLSEQCwAAAAAAAAAAUK9QM7aW1P2asYjfvpqxK6ffaFO8mryxa2o/HDfBzu2YZt8tf9jGT/vImw8AqK+oGQsAAAAAAADUvhqpGXvBz91fasYCddWhg+yEjmrSON/emUcgFgAAAAAAAAAAoL4hGAvUUScP6WkHB/7uWve+Pf9lcB4AAAAAAAAAAADqD4KxQB3Uou8YG5bTNDC22d598QWrpGdZAAAAAAAAAAAA1FEEY4E6Y6jdcO9ddu/d99jEC4+1FrbL8l59wh5b4b0MAAAAAAAAAACAeoVgLFCXpKVZWpPA3x35tnLOI3bfs58F5wMAAAAAAAAAAKDeSblram6JRu6e8Fs3AzWjdevW7m9m5oHuLwAAaPgKC791fzdv3uz+AgAAAAAAAKh5+Zu2Wt8+J3tTyXHuBT93f6kZCwAAAAAAAAAAAABJQDAWAAAAAAAAAAAAAJLAC8a6looBAAAAAAAAAAAAAAlCzVgAAAAAAAAAAAAASAKCsQAAAAAAAAAAAACQBCl3Tc0tUTPFd0+43puFmtC6dWv3d/Pmze4vAABo+Lj/AwAAAAAAALUvf9NW69vnZG8qOc694OfuLzVjAQAAAAAAAAAAACAJCMYCAAAAAAAAAAAAQBIQjAUAAAAAAAAAAACAJCAYCwAAAAAAAAAAAABJkGpW4o0CAAAAAAAAAAAAABIl1SzFGwUAAAAAAAAAAAAAJArNFAMAAAAAAAAAAABAIpUEWycmGAsAAAAAAAAAAAAASUAwFgAAAAAAAAAAAACSgGAsAAAAAAAAAAAAACQBwVgAAAAAAAAAAAAASAKCsQAAAAAAAAAAAACQBARjAQAAAAAAAAAAACAJUlNSSgJ/NAAAAAAAAAAAAAAAEoWasQAAAAAAAAAAAACQBARjAQAAAAAAAAAAACAJCMYCAAAAAAAAAAAAQBIQjAUAAAAAAAAAAACAJCAYCwAAAAAAAAAAAABJQDAWAAAAAAAAAAAAAJKAYCwAAAAAAAAAAAAAJAHBWAAAAAAAAAAAAABIAoKxAAAAAAAAAAAAAJAEBGMBAAAAAAAAAAAAIAkIxgIAAAAAAAAAAABAEhCMBQAAAAAAAAAAAIAkIBgLAAAAAAAAAAAAAElAMBYAAAAAAAAAAAAAkoBgLAAAAAAAAAAAAAAkQcqkqY+XlFiJ/XXC77xZdU9mZqZ16NDBjjjiCGvTpo0dcMAB1qRJE+/VoJ07d9r3339vmzZtss8++8zWr19vhYWF3qt1T+vWrd3fzZs3u78AAKDh4/4PAAAAAAAA1L78TVutb5+TvankOHfEZWYpqcFg7N7AjLsnXB98pY5QALZHjx7WpUsXa9q0qTc3Njt27LDVq1fb8uXL61xglsxYAAD2P9z/AQAAAAAAgNpXk8HY1MC/3qy6ISsry4YOHWqXXXaZnXDCCXEHYkXv1Wfos/SZ+mwAAAAAAAAAAAAASL4S1YzNLdkbGKntmrHp6enWq1cvy8nJsUaNGnlzg0pKSmzr1q2u+eGvvvrKNm7cWNossaSlpVmzZs2sbdu2dsghh7jmjFu2bGkpKWUDzXv27LEVK1bY0qVLrbi42JtbO6gZAwDA/of7PwAAAAAAAFD7aq5mbIql/GVqbomCnXffWnvBWPUHO2DAAMvIyPDmBG3ZssU1Maymhnft2uXNjY4CtGriWE0dt2rVypsbVFRUZK+88orrV7a2kBkLAMD+h/s/AAAAAAAAUPtqJhh7qd9Mce3q2bOnDR48uEwgtqCgwObMmWOPP/64ffDBBzEHYkXv0Xv1GfosfaZP36Xv1HcDAAAAAAAAAAAAQDKkWoma8q35fmNTU1OtX79+1qdPn9JmiRVAXbRokT355JOuSeJE0WfpM/XZfmBX36nv1jpoXQAAAAAAAAAAAAAgcUosNRiKLQlO16DTTjvNunfvXtqvq5ok/sc//uGaJd67d6+bl0j6TH22vkPfJfpurYPWBQAAAAAAAAAAAAASKVUR2Zp2/PHHu8EPxG7cuNGeffbZqPpPU1+w6mP2hBNOsLPPPtv69+/vAqqHHHJIaQ3byug79F36TtE6+OsDAAAAAAAAAAAAAInS6Ozzht2ikSVvvOxmJJsCqWeeeaY1btzYTX/zzTc2e/Zs2759u5uuyBFHHGHnnHOOnX766da1a1f3OW3atLG2bdu617p162YnnXSSC8pu3brVCgsLvXeWp6aK16xZY+3atbPMzEwXkD300EPduui9NaFZs2bu744dO9xfAADQ8HH/BwAAAAAAAGpf0fad1qH9Yd5UchzZ7QTVCrVU12VsDdWOVeBTfbSmp6e7aQU///nPf1aaIdmkSRMbOnSo/fCHP7Ts7OzS2rSRqO9XBWlHjBjhArf+90Si75wzZ45bB9GyWjetIwAAAAAAAAAAAADELxjTTC1JKbG9gaEm9OrVy7Kystx4cXGxLV68uNJAbMuWLW348OEuwBoahC0pKbGdO3e6QKoGjWueT8t26dLFzj//fGvatKk3tzx996JFi9y6iNZN6wgAAAAAAAAAAAAA1dWo/w9/dEuKldjS1+d7s5JDzQf37t3bNU+swOny5ctt5cqV3qvlKYiq2rBqiti3Z88e++STT1yN1iVLltgHH3zghmXLltl7773nPvuggw5yNWRFtVwVYFWTxKHB2lDfffede5+aKVYQt0WLFvbll19W2sxxItBMIQAA+x/u/wAAAAAAAEDtq5lmik90lWNTS0w1Y725SXTiiSe6JodFtVnfffddN16Rnj17lgnEFhUVuSaNX3zxxYiBUtWOXbBggc2aNcu2bdvmzTXr2LGjCwJXRuviN1esddS6AgAAAAAAAAAAAEB8FIB1fcYqHJvcZopV6/Twww9343v37rV33nnHvv/+ezcdSdu2be2YY44pbZpYwVcFYr/44gs3XZmvvvrK1Zz1A7b6DH2WPrMiWhetk9ZNtK5aZwAAAAAAAAAAAACIl2vPN9kVY4888khLT09346qBum7dOjdekeOOO660r1cFSP/zn//Y5s2b3XQ0tKze4wdX9Vn6zMponfzasVpXrTMAAAAAAAAAAAAAxM6rGZtakmqNgjHZpDjggAOsXbt2blz9tn788cdWXFzspiNRX2r+8qLasJ9++qk3FT29J7QmrT7T76ctEq2T1s3vW1bLa90BAAAAAAAAAAAAIBYpJSmBIdVSraTEUoIVSJNCzQO3bNnSjas54Ly8PDdekQMPPLA0aKrA6CeffGJ79uxx07HQe/ReP7iq2rH+elRE6+Y3n6xlK2vaGAAAAAAAAAAAAAAiUYRS3ammpiS5keI2bdpYWlqaG//222+toKDAjVekefPmpcurtmoszROH03v9Wripqamln1sRrZvWUbSs1h0AAAAAAAAAAAAAYqVKo6muteKU5AVks7OzvbFgcLSqWq4Kmvrro2W3b9/uxuOh98ZSq1bLhgZ/Q9cdAAAAAAAAAAAAAKKSUmIlJXuCncXudRVlE0+1S1XT1ffNN994Y9FxVXdTk9efbSSh6xhaSxcAAAAAAAAAAAAAorG3ZLdZ6l5Ltb179X9SNGrUyBo3buzGd+3aZdu2bXPjlSksLLTduwMrF5Cenu76kI1Xq1at3GfEQuuodRWtu34DAAAAAAAAAAAAAESrJGWvpaSWWOB/11BxcG6CNWnSxJo1a+bG9+7dWxrkrIz6bN2xY4cbVyC0Q4cObjwenTt3Lg0Gq+/YLVu2uPHKaD3VfrNo3fUbAAAAAAAAAAAAACBaKY1TbW+KmilOSbWS1GDAMpmi7f9VNVPz8/O9qWBAtW3btt5U9Fq3bm0dO3b0poJB3qKiIm+qYvp+v2YuAAAAAAAAAAAAAMSqUeM021OimrEpqaqC6s2uGz766KPSgGjTpk3tlFNOiam5YC3bu3dvy8jIcNOq7frhhx+6gDAAAAAAAAAAAAAAJNOevWmW2qippZakNjJVkE02NRfcvHlzb6pyn3/+uX399dfelLkarueee25UAVkto2VDa8V++eWX9umnn3pTlVPTxLEEfgEAAAAAAAAAAAAg1N6SA+yAjFZeMDYlOX3G7ty5s7Rp4tTU1KiDnKrB+sYbb1hhYaGbTgmsn5orHjZsmGVlZbl5kRxyyCF20UUXuWX1HtFn6LOirRWblpbm1lW07voNAAAAAAAAAAAAABCtj1ZvsPXrv7XUvY0a2Z7U5NQE3bVrV2kwUzVjMzMz3Xg0Nm/ebPPnz7fi4mJvTjDYevHFF7uAa69evax79+5u0PjPfvYzGz58eJlgrd6rz9BnRUu1dxWQFa27fgMAAAAAAAAAAAAAROurr7fZ53kKxqak2t4kBWNVG/W7777zpswOPfRQbyw669evt3nz5pWpnaoar23atHH9yJ5++ulu0HirVq1Ka8NKUVGRzZ07131GLA466CBvzNy6088sAAAAAAAAAAAAgFhsK9pjG7741lL3pDSy3d7MZMjPz/fGzNVa9WudRkPNBaum6u7dsa9hkyZNXL+x6enp3pyqqRnl1q1be1Nl1x0AAAAAAAAAAAAAopHaqKk1TmthqXsDEzt3JS8c+80335TWbFUwVrVao6GgqJojPvPMMy0jI8ObGz01i3ziiSfaqFGjrEOHDt7cymn9DjzwQDeudda6AwAAAAAAAAAAAEAs9pQE/klJs0Y/+NFPbincuctWvTEv+EqCqd9W1VBVf7EKkG7fvt02bNjgvRrZ0Ucfbeedd56rFRtKTQ9/9NFHtmjRIlu6dKktXLjQ3nzzTVu5cqV9/vnnLoCq94TWhtX4UUcdZXv37rWvvvrKmxtZly5drFOnTq65Y/Uzu3z58qQ1U9ysWTP3d8eOHe4vAABo+Lj/AwAAAAAAALWvaPtO69D+MG8qOXZndjNLaWSpO3bttZ27vLlJoGDsZ5995k2Zde7c2Zo2bepNlXf88cfbWWed5ZoZ9hUUFNizzz5r06ZNszfeeMO+/PJLKyws9F41N66+YfWaltGyeo9PzQ/37t3bDRVR0FZBYL/fWa2z1h0AAAAAAAAAAAAAYrEnpcT2WImlFu/aa7vVVnESrVmzprQGSKtWrVxN1UjUnHCfPn1c8FRKSkpsxYoV9tRTT9kXX3zh5kVDyz755JO2ZMmS0pqt6n+2Z8+eLtgbSfv27Uv7i9W6ap0BAAAAAAAAAAAAIFYKv3rB2N22J8nR2E2bNpUGNxUU7d69u2u2OJSm+/XrV9rEsJoVfvvtt+21116Lq6lgvf+tt95y79+1K1j1V9996qmnWtu2bd20T9/Zo0cP14yyaF21zgAAAAAAAAAAAAAQK7XFqyG1uHi37XE9yCbXBx98UKZ2rIKfoTSdlZXlxlUj9v3333c1W6vrww8/tP/85z8uOCtqIlkBWb/2rRx33HF28MEHu3Gto9YVAAAAAAAAAAAAAOKRmppiKamBvwrE7k1+LNY2btzomhxWoFX9sh577LGuWWJp06aNdenSxY3L119/bUuXLvWmqm/lypW2bt06byrYJPHhhx/uxrUOp5xyilsnrdtHH33k1hUAAAAAAAAAAAAA4tGoUao1Sm1kqSWWGphUJdnke/fdd+2bb75x42oauH///q6fVvUhqxqroiaF33zzTSsuLnbTiaBmjtVksV8zV80RH3nkke67tQ5+08hqmnjZsmVuHAAAAAAAAAAAAADikZri1YwNBmM1JN/3339vb7zxhu3cudNNq5/Y8847z7p27eqmRbViv/jiC28qcVTbNfRzVTN28ODBpX3XKvi7ePHi0oAtAAAAAAAAAAAAAMSjxIJdqKZaivpOrZlgrHz11VeuL1i/D1f1H9u8eXM3rmaCP/nkE1eTNRnWrFlT+r0ZGRnWsmVLN655CsSuX7/eTQMAAAAAAAAAAABAvEpKFJMssVTFJktKaqaZYt/7779vixYtKg2M+lQ7dfPmzd5U4uXn57vauaEUANb6aAAAAAAAAAAAAACA6lIMUkPq3hLFZGs2GCvqP3bhwoVlasGq79ZjjjmmtA/XREpNTXV90zZp0sSbE9wI77zzji1YsMCbAwAAAAAAAAAAAADVpQhsifqMTdF4rXjvvffsxRdftO3bt7vplJQUO+6442zUqFHurwKoiXDEEUfYT3/6U+vdu7c1aqRmmc127drlgsGqoQsAAAAAAAAAAAAAiaK4p4KwjY7tP/KWwKR9/t9/BV+pYd9++63ry/Wwww5z/biKasZ27NjRunXr5oKnaro41n5k09LS7Nhjj7Vzzz3Xunfvbk2bNvVeCX7n7Nmzbd26dd6cmtesWTP3d8eOHe4vAABo+Lj/AwAAAAAAALWvaPtO69D+MG8qOXa36KqIrKUMv+O5EitJsUX3X+G9VDtUC7ZXr1524oknltZe9ak54W3bttkXX3xhn332mW3cuNF27txZ2v/rAQcc4Jofbtu2rR1yyCGuJmzLli29iPM+CuiqWeKlS5eW66+2prVu3dr9TWYfuQAAoG7h/g8AAAAAAADUvvxNW61vn5O9qeTYcdiPgsHYEROfKynZW/vBWJ9qsPbr18+OPPLIckHZeCkI++mnn7q+YetKTRQyYwEA2P9w/wcAAAAAAABqX00GYxPTKWsCKViqfmQfffRRW7x4sasRq5qxsfJr0+oz9Fn6TJoEBAAAAAAAAAAAAJBsLr4Z+L/ONFNcGdWW7dSpk2t+uE2bNqXNEofymy3etGmTa8p47dq1dTr4Ss0YAAD2P9z/AQAAAAAAgNpXEzVjtx/6I1WMtZQLJj5XsrfEbNHkK72XUBPIjAUAYP/D/R8AAAAAAACofTXSTPEh57tgbJ1rphgAAAAAAAAAAAAA6rWSksD/KZaaYoH/AiMAAAAAAAAAAAAAgMRIsRIFY1MDIwAAAAAAAAAAAACARCkpoZliAAAAAAAAAAAAAEiK1JLAPyXqPRYAAAAAAAAAAAAAUH2qFhsQDMa6UQAAAAAAAAAAAABAYpRYakmqasZ60wAAAAAAAAAAAACA6ikJVo5NLWlkttf2eHMBAAAAAAAAAAAAAImQWqLqsY1SvUkAAAAAAAAAAAAAQHUoBiupVrLbGjWinWIAAAAAAAAAAAAASIwU11RxampJiaWU7PVmAgAAAAAAAAAAAACqQ/3Fuj5jG6fstVSCsQAAAAAAAAAAAACQIGqmuMRS01NTrbHXZjEAAAAAAAAAAAAAoHpUK1ZSG6ekWKPgOAAAAAAAAAAAAACgmkpSzPaqZmyqmimmZiwAAAAAAAAAAAAAJEZJiaWoz9iS1N1WkrLHmwsAAAAAAAAAAAAAqBbXZWyJpaY1aWSN0lODMwEAAAAAAAAAAAAA1ZLi/U1t0qyJpR1Ar7EAAAAAAAAAAAAAkEipjdJSLL1ZY28SAAAAAAAAAAAAAFAdJa6dYrPUPYG/jdLdOAAAAAAAAAAAAAAgARSOTd387U4r2LonOAcAAAAAAAAAAAAAkBCp2wv32rbvdnmTAAAAAAAAAAAAAIBESN35/R7buZ2asQAAAAAAAAAAAACQSKklu0uskdFpLAAAAAAAAAAAAAAkhDqMLSmx1NS9e21v8e7gTAAAAAAAAAAAAABAQqQ2Sd1rJbt2epMAAAAAAAAAAAAAgERIzTwg1dJS6DMWAAAAAAAAAAAAABKipMQ1VZzaKiPNMpt4MwEAAAAAAAAAAAAACZGa2aSxNW+W7k0CAAAAAAAAAAAAABIh9YC0VIKxAAAAAAAAAAAAAJBgqekpJZbRpJE3CQAAAAAAAAAAAACojhLvb8rdj84o2ZPS2P560//zZqEmtG7d2hsDAAD7m82bN3tjAAAAAAAAAGpa/qat1rfPyd5UcnyXNchSAv+l2t49+sebDQAAAAAAAAAAAACorpLAfyl/eejxkpRGaTbp97/yZqMm+DVjqRkDAMD+g/s/AAAAAAAAUPtqqmaspO7du8dK9u52EwAAAAAAAAAAAACAxEi1kr2mgCwAAAAAAAAAAAAAIHFSU1JTA39KglMAAAAAAAAAAAAAgIRITUlJCfzjTQEAAAAAAAAAAAAAEiI1xQL/pah2LAAAAAAAAAAAAAAgUVL37ClRt7EAAAAAAAAAAAAAgAQoKSkJDGapZiluBAAAAAAAAAAAAACQOC4Y6/4AAAAAAAAAAAAAABImNTWlkXqN9SYBAAAAAAAAAAAAAImQaikEYgEAAAAAAAAAAAAg0VJTXH+xBGTro/bt29vEiRPtvPPO8+YAAAAAAAAAAAAAqCtcZ7GEYuunH//4x3bsscfaz372MwKyAAAAAAAAAAAAQB2TmupCsYRj66P777/fFi9ebAcccICNGjXKBgwY4L0CAAAAAAAAAAAAoLal/HXqjJKSkr026dZfe7PqpoyMDFcTtFWrVt6cyLZs2WLPPvusFRUVeXPqptatW7u/mzdvdn/j1ahRIxs3bpz16dPHduzYYY8++qi98sor3quJ17FjR7vooovsmGOOsebNm7vv37Nnj23bts1WrFhhTz31lOXl5XlL73PfffdZ586d3fjGjRvtlltusc8//9xN+0aPHm3nn3++G9+1a5f9/e9/d+OXXXaZpaWlufGqaL//+c9/dttV39G2bVs3f82aNXbttde68Uj+8Ic/2KmnnurG/c9455133HToa7J+/Xq76aab3LEW6vDDDy/znW+++ab96U9/cuOhv60iVa0jAKD+S9T9HwAAAAAAAED88jdttb59TvamkmNrq4GBf1P8Zopdx7F1WosWLaxp06beVMW0jJbdXygQOmnSJHvttdfcb//FL36RtBqyCsL+5S9/sd69e7uguAKxor+a7tu3r1uXH/3oR25+Q6W+erUtAAAAAAAAAAAAgMqkmu21lHrQSrGCfenp6d5UxbRMVbVnGxoFZNVksR+QVS3M008/3Xs1MS6//HK74IILXJPIlVENZvVh25ADsqmpqXbaaafZyScnt8QEAAAAAAAAAAAA6rfUVFcrdm9wqpaoZuVhhx3mglwVyc7OthQvarx7927XxO3atWvdoGZjd+7c6V7TMlq2IvoOfZdfq7OhCA3INmvWzK644oqEBWQVdDzjjDOscePGblrftXz5cvvtb39rgwcPdk32rlq1ykpKgjWsFRAfNmyYa8q4uubMmeOa99X3aBg7dqxr5tinpoD91zSMHDmytHnhZFLt6xEjRsR1HKkJ5ocffrjMemugiWIAAAAAAAAAAICGJdVSFIitvWCsX8tQwTsNWVlZ3iv7qL9Qvx9OKSwstJdfftnmzp1bOmzatMl71dyykfoY1Wf736PgYkMNyL744osJDcj+8Ic/LG36WQHXt956yyZMmGAfffSRm/fee+/ZbbfdZp988ombFm3rM88805tqOFQQYO/e4Ply9NFH2/Dhw904AAAAAAAAAAAAEC7V1WZMqZ0+YxWIVT+jxx9/vKvReuihh7qajSeccEJpLVhR07uZmZnelNl3331n27dv96aCQcjNmzd7U+aWDe1fVp+lz9Rn6zs0feyxxzbYgOxDDz1UJiDbp08f79XYHX744dauXTtvymzbtm32/PPPu+8JtWXLFvedxcXFblrbWMHKhrZ9VQN7w4YNblw1hc866yy3jQAAAAAAAAAAAIBwrl1gr3XZGqVgnWrE+oFYn5q4VYBWTdP6AVjVsgztq1S1YP0mcX35+fml87SsX8NWn6HP0meG9jm7PwVk1bRvvE0Gd+jQwZo3b+5NBbezasJGsm7dOldr2af3qUnohuall15yBQJETWKrL91YqNa2+uANrdmtQX39AgAAAAAAAAAAoOFINStxvcbWJAVCFRzt3r17mUCsT/NUG/OnP/2pdenSxVq3bl3aX6maiP3mm2/ceCjVzPRrZWpZvUfv1Wfosyr6noYckA2vvRoPBbX9bS/ffvutN1be999/75rx9SkQ7AfFGxL1Ubxo0SJ3LOoYOvXUUxPWPy8AAAAAAAAAAAAajlQFkyLEKZNG36casaGBWNVoff/9911NztDmh5s0aWJnn312mWZ2d+3aVVorMZSaz/WDsaL36L36DJ+Ck++++669+uqrZZrTbYgB2V/+8pc2aNAgt71mzpxZ2r9rTdL2Dg3ONiRPPfWU5eXluXE1ia1+iDMyMtw0AAAAAAAAAAAAIKlmCojWTDRWgc9evXqVaZrYD8QuWLDAVq9ebU8++aR9/vnnpU0Oazn1LevbsWNHxGBs+Hy9x/8OUbD2n//8p/ueDz74wBYvXlxac7ShBWRDA7G5ubk2e/Zs75XYKTiuGqC+Aw880BsrL3ybq39VbXcJ/YxoKFjuBzvrItXEnjNnjqsNLEcccYQNGDDAjVdF++Xhhx+2wYMHlxmmTZvmLQEAAAAAAAAAAICGoEaDse3bt7cTTjihNODpB2IXLlxYGqxTUFXBQ/XLqWBeOAVcQ2vP+hRY3bx5sze1j75DwVcFeb/44gtvrpV+b3hAtlu3bm66vkpkIFa++uqr0oCjtGnTxm2nSNQsdMuWLb2pYN++CqxLaPPGavY4tA9gn5o1rk9Uk/udd95xx5iOadXGVi1ZAAAAAAAAAAAAQFJV/7SkhoKxqum4bt06byoYAFVgzq8F69O0X0t2w4YNpa+rtuSaNWvKLe9bu3atFRYWelPmxlV7MbRZ4lD67tBatwrWrly50puqf/xArALMTzzxRLUDsbJq1SoXkPW1atXKNckbXoNY88855xxLT0930wquh27L/Px8b8ysRYsWlpOT400FNW/e3I4++mhvKrjvNm7c6E3VXTNmzHBBZ9Fv0AAAAAAAAAAAAACIC8bWFAVR1TxwaHPCXbt2LROEC6WA3HPPPedqICqg+sgjj9iKFSu8V8tTLcy///3vLgD71ltvuYDk+vXrvVfLOuigg6xnz54uICyqkRtaU7a+CQ3EPv74465J5kTQ57388sultWO1vU4++WS76aabrHPnzm7eqaeean/84x/tqKOOctPy5Zdf2r///W9vylyftdrGoiD4j3/8YzvvvPNcUFc1pn/1q1/Z4Ycf7l4XBcZDazLXVSocoGOzvh43AAAAAAAAAAAASJ591UJriAKxS5YsKQ1eKRjXu3dvV1syEgVwP/74Y9fUcDQBLy3/2Wefue+IVBtWwpuUVS1OBW+/+eYbN13fJCsQ61MwXAHZ0H12yimn2H333Wdz5861P/zhDy6g7ge21U+s1iO0NqyC8KG1orW/r7zySld7d+rUqe7z/Nq2en9oIDcRFDjWuoYPWvfq0vb+9NNPvamqpaWl2eWXX15uXZ5++mk78cQTvaUAAAAAAAAAAABQ36WWpKiZ4pqlwJUCpj4F5hQc9YN5yaYmclUb06fmkyurcVuXhQZin3rqqYQHYn2PPvqoqwG6e/dub05kBQUFrgazgq+htH4PPfRQmSaPI1EN3Geeeabc++syBY9nzZpVpolsAAAAAAAAAAAAoMZrxooCc//5z39cEMunmosVNVecSK1bt7YePXqU9hWrANqiRYtKa33WJ+GBWAUxk0XfoZqw48ePt3feecftO7/vXgVoVatYTUpfffXVLmgbiZr01evPP/+8bd68uXSb63OKiorc56qm6rPPPuvm1yc6njX42wQAAAAAAAAAAABI+euDuSUlVmKTbrnem1VzunXrZmeccUZp87Rqwlg1DEP7lE0kfc/AgQOtU6dOblrBQPUT+/7777vpmqSgsCgoGS8FsH/961/ba6+9ltRALAAASIxE3P8BAAAAAAAAVE/+pq3Wt8/J3lRybG11buDf1NqpGavmiFu1amXp6em2c+dOb26wueLTTjuttNZqJE2aNHE1Wy+++GL7xS9+4QaNq69NfV5lunbtah06dPCmzPUpqwCt1qWmmkhOJNU0veqqqwjEAgAAAAAAAAAAAHVQjdSMVQD18MMPd/20HnbYYS7o6teGDffWW2/ZkiVLvKmy1Izx//zP/7jPi2T79u328ssv2/r16705ZR166KE2ZMiQiEFb1ZJVjdwvvvjC9SH7+eeflwkUJxo1YwAA2P9w/wcAAAAAAABqX83VjE1Jbs1YBV0vvfRS17epmgc+7rjjLCsrq8JA7I4dO+yTTz7xpspSjdYzzzyzwkCsNGvWzH1PaO3XUPn5+W6IROukddM66jO0zlp3/QYAAAAAAAAAAAAAiE1JcoOxavq3cePG3lRkJSUlVlhY6IKwr776asSaIgqIqkZsaI1W1WT95ptv7KuvvnLjPi2jZSMFUbXcggUL7N1337Vvv/22zPsi0brXx+aLAQAAAAAAAAAAANS+pDZT3LJlSxsxYoSrserbtWuXbdq0yTUDvG7dOhd8rSooesIJJ1jfvn1LA6N674svvuhq0opqy6o2q5pC9r355ptuqIw+r3nz5u59RxxxhGVnZ7t19b9HzR7PnDnTtm7d6qYTiWYKAQDY/3D/BwAAAAAAAGpfzTVTbJaqQGxNURB16tSpLsCpQOnGjRurDMQqMKpAqR8gLSgocP3C+oFYUd+uqlW7bds2b45Zu3btKmwO2adaueon9oMPPrC5c+fatGnT7LXXXvNeBQAAAAAAAAAAAID4JbWZ4kRQs8NNmzb1psy+/vprKyoq8qb2UVBVgVqf3ldVE8kAAAAAAAAAAAAAkCx1PhgLAAAAAAAAAAAAAPVKSbB14jofjFUTxIWFhd6U2cEHH2wZGRne1D4tWrSwrKwsb8qsuLjYdu/e7U0BAAAAAAAAAAAAQM2q0WDsYYcdZpdeeqmdc845dswxx7gAqt8XbGXy8vJc/66igOuZZ57pmiH2NWnSxM1r3ry5m9aya9asqbI/WtF7O3ToYP369bOf/OQn1rdvX+8VAAAAAAAAAAAAAIhDimKbJZYy6cHHXZRz0i3X609CtWzZ0kaMGGHNmjXz5pSngKn6gP3qq6/s008/tbVr15YGXn0K2g4bNsz99el9GzdudONt27a1Ro0auXHZtGmT/fOf/7Tt27d7c/Zp3bq1devWzQWGW7VqZWlpad4r5en9M2fOtK1bt3pzEkfrIZs3b3Z/AQBAw8f9HwAAAAAAAKh9+Zu2Wt8+J3tTybG11dmBf1OSG4yNFEStzI4dO+y5555zwdRwnTt3trPPPrvS4KmoWeN58+bZ559/7s3ZRwHbIUOGWPv27b05lfvuu+9s1qxZ7m+i+ZmxAABg/0MwFgAAAAAAAKg9NRmMbXT24PNv0YzFr7+sPwmlwOi7777rhm+++cZNK5iqJoZTU8u3kKzXvv/+e9uwYYM3Z5+CggIXFFUgtXHjxt7csrZt22b/+te/7IsvvvDmlHXIIYdYz549y9Si9ammrWrAqnnjZcuW2auvvur+ap2TobLawgAAoGFTATQAAAAAAAAAtaNo+07r0P4wbyo5dh7QOfBvkmvGVkT9xKoJ444dO7rgaGhgUk0V//vf/7a9e/d6c8pSIFfNDGs44IAD3DwFalevXm0fffRRpf3E6j1nnHFGaTBWGaFvv/22rVu3zgViw5tHTiaaKQQAYP/D/R8AAAAAAACofTVZM7Z89dQaoKDnli1brLi42Jo0aeLNDTYLvGjRogoDsaL3vPPOO/bEE0/Yo48+6oZnn33WPvjgg0oDsbJq1Spbv369NxUM7Oo9WpeaDMQCAAAAAAAAAAAAaNhSAkOtBGOlVatWdsopp5TWUlVQdMmSJUnpn9Xnf0dhYaGb1nefdNJJ9N8KAAAAAAAAAAAAIHFUD7SkpHaCsQqC/uAHP7DmzZt7c8z11frxxx97U8mjZgGXL19eWvs2MzPTTjvttIj9yAIAAAAAAAAAAABArFQrVmolGHvkkUfaEUcc4U0FmydevHhxjTUVvGLFCsvLy/OmzNq3b285OTneFAAAAAAAAAAAAABUX40HY1u0aGG9e/eOunnilJQUO/roo+24446LqvaqllegV9+hPmEj0Xcq+Ltjxw43nZqaaieffLIddNBBbhoAAAAAAAAAAAAA4uXXQa3RYKwCpX369HEBWd+qVasqbJ5YTQiff/75ds4559iZZ55pY8aMqbQG6+GHH26XXXaZDRkyxAVXL774YuvQoYP3alnffPONLVu2rLQ2btOmTa1v3740VwwAAAAAAAAAAACg2hSGrNFgrJoD7tixozelFSix3bt3uyBtKE136dLFfvrTn1q7du1KX1dN186dO5db3tepUycXwPVpXIFZBXIj1ZLVd/t9x8phhx1m3bp186YAAAAAAAAAAAAAIH41GoxVP63vvvuuayZYFFQ9/vjjXY1UNRUsqqE6dOhQO/vss61JkyZuXijVqm3WrJk3tY9qtLZu3dqb2kffoSaOFdhVsNXnf69fE1aB4Q8//NBWrlzppgEAAAAAAAAAAACgOmo0GKuA59KlS+39998vbR7YD8j269evtDasmhv2a79qudDaqwrWhjZz7Aufr/f43yHNmze3H/3oR+57FJxVc8mhgVit02uvvVYaKAYAAAAAAAAAAACA+ATjlDUajBUFPhctWmTvvfdeuYCs+oYNrfW6c+dOe+mll2zx4sXeHLO0tLSIwVgFW0ObItZ7XnzxRdu+fbs3J1h79oQTTijTbLHWQeuyYMGCMkFfAAAAAAAAAAAAAIhPsOJpjQdjRQHQhQsXlgnIhtK8DRs22JNPPmmrV6+2zZs3u/5dRc0ZH3TQQW48VKtWrUoDrFpW7/n444/dZ3z66acVfo+aTda6RHq9rlMfvBMnTrTzzjvPmwMAAAAAAAAAAACg9tVSzVifgp+qIRvaZLEUFxe74Ohzzz1nhYWFbl5BQYF9//33blzatGlT2oyxLzs7u3SeltV7ZMeOHTZv3jxXS9b/PFFzxG+//bZbh/oYiJUf//jHduyxx9rPfvYzArIAAAAAAAAAAABAnVJSe8FYUbPACrz6Adkvv/zSnn76aVdbNTRAqoBqaCBVzRSHNmes5odbt27tTZlbVu/x6bP8WrKffPKJC8QuX77c9V9bXwOxcv/997vmmA844AAbNWqUDRgwwHsFAAAAAAAAAAAAQG1LmfTg4y4aOemW692M2qBg6sEHH2xfffVVhf22nnHGGa5fWVEzxArc+k0X++9v0qSJm1Zw9/XXX3fjkWRmZlpRUVGtBmL94LGaU64O/fZx48ZZnz59XAD60UcftVdeecV7tfruu+8+69y5szdVtTfffNP+9Kc/2ejRo+38889383bt2mV///vfbc6cOW76D3/4g5166qlu3Ldx40a75ZZb7PPPP/fm7HPSSSfZb3/7W8vIyPDmlP/M0O+ryJo1a+zaa69146HroGPhz3/+s73zzjtuOlxly4b/lvXr19tNN91kW7Zs8eYEHX744e73tW3b1k3720lOPPFEu+GGG8r8vnBVrSMAoH5I1P0fAAAAAAAAQPzyN221vn1O9qaSY2uLs9zfWq0Z61NN1S+++KLCQKzk5+eXBk8bN27sgludOnVyQ4cOHUoDsVpGy1ZGNWfrc43YUNp2kyZNstdee82aNm1qv/jFL+plDdmsrCw74YQTvKmyunfvXqYmdF2mfnwvuugibwoAAAAAAAAAAAD7r5S6EYyNhmoaqj/ZqmiZ8FqJDZ0Csmqy2A/Iqpbo6aef7r1aP6SlpbmgazjV/FWN6PA+guuq1NRUO+200+zkk5NbmgIAAAAAAAAAAAB1WTC2VW+Csd99912ZfmAromW07P4mNCCrWqRXXHFFQgKyatZ38ODBpcNzzz3nvRJsOlfN9Ia+7je9Gy3tL7+56Y4dO7oaz6HUhK+aoJZt27a55omromUefvjhMuulwW+iONnUp/GIESNcIDkeasI4fN1HjhxJE8UAAAAAAAAAAAD1iOoa1ptgrAJ/jz/+uE2ePLnSQcto2f2RH5B98cUXExqQTSYFY/0Aa6Smirt16+Zq+0pBQUGdriGroLLf1PbRRx9tw4cPd+MAAAAAAAAAAADYv6RYifuv3gRjER0FZB966KEyAdk+ffp4r9Y96r9XQVZRU8XHHHOMGxfVLM3JyXFN/6r56Y0bN7r+guuqnTt32oYNG9y41vOss84qV9MXAAAAAAAAAAAA+4MS9y/B2AYoPCA7duzYMkHOukS1Yj/++GNvyuzII4+07OxsN37cccfZoYce6sY3b97sgrHRUFD38ssvt7lz55YZ1Jdusr300kulzWTrd1xwwQVuPBannnpquXW/7777vFcBAAAAAAAAAABQXxCMbaAUkNVQH6iPVL8/4NatW5c2Vay/mZmZbvzTTz91NU/ruvXr19uiRYtcc8VqUlmB1breVDQAAAAAAAAAAACSoIRgbIP1y1/+0gYNGuRqns6cOdM++ugj75W6591337VvvvnGjaenp7sgbGgTxfoNdXn9wz311FOWl5fnxtXf7bBhwywjI8NNAwAAAAAAAAAAYP9BMLYBCg3E5ubm2uzZs71X6qZt27aVCbaqqeLevXuXNlGsPmUVsI2WfvfDDz9sgwcPLjNMmzbNWyK5tmzZYnPmzLHvv//eTR9xxBE2YMAANx4N1RQOX/drr73WexUAAAAAAAAAAAD1BcHYBqa+BWJ9Crb6TRUfeOCB1rdv39ImitetW2eff/65G68v1F/vO++8YyUlJa6Wb58+fVwtWQAAAAAAAAAAAOw/CMY2IH4gVn3FPvHEE/UmECsKxn799dduXE0Vd+vWrbSJ4vfee8/Nr29mzJhhmzZtcuPNmzd3AwAAAAAAAAAAAPYfBGMbiNBA7OOPP27//Oc/vVfqBzVVvGrVKleTNCUlxVq1auXmx9pEcV2yZs0ae/XVV90+AQAAAAAAAAAAwP6HYGwDUN8DsT7VgPWbKvbF00RxWlqaXX755TZ37twyw9NPP20nnniit9Q+GRkZ9qc//anc8n/729/s8MMP95aKj/bFp59+6k1F59RTTy23LhpGjx7tLQEAAAAAAAAAAID6gGBsPRcaiH3qqafqbSBWFIzNz8/3pqxeN1HsU43fWbNmWWFhoTcHAAAAAAAAAAAA+wuCsfVYeCD2mWee8V6pn0KbKpb63ERxqP/85z9u8H8XAAAAAAAAAAAAGjY/LpQy6cHH3dikW653M1AzWrdu7f5u3rzZ/Y1H586d7de//rW99tpr9T4QCwDA/iAR938AAAAAAAAA1ZO/aav17XOyN5UcW5v3N0tJpWZsfbZmzRq76qqrCMQCAAAAAAAAAAAAdU4JwVgAAAAAAAAAAAAASIbUFEvxRgEAAAAAAAAAAAAAiZFCzVgAAAAAAAAAAAAASDyaKQYAAAAAAAAAAACApCAYCwAAAAAAAAAAAABJQDAWAAAAAAAAAAAAAJKAYCwAAAAAAAAAAAAAJFJKibqMJRgLAAAAAAAAAAAAAAlVEvxDMBYAAAAAAAAAAAAAkoBgLAAAAAAAAAAAAAAkQcpfH8wtKbES+/v9d3qzAAAAAAAAAAAAAADxanzECPeXmrEAAAAAAAAAAAAAkASlNWPHfdbDm7V/O/ixAd4YAAAAAAAAAAAAAMQuu+cV7i81YwEAAAAAAAAAAAAgCQjGAgAAAAAAAAAAAEBClbh/CcYCAAAAAAAAAAAAQBIQjAUAAAAAAAAAAACAJCAYCwAAAAAAAAAAAABJkJqSkmL6DwAagsaNG5uua2lpaW4cAAAAAAAAAACgxpUE+4xNufuhJ0oC7Defnehm1EUnt2tqb23Y4U0l18GPDfDGku+AAw6wo48+2ho1auTNMfviiy9s48aN3lT9pd/UpUsXN7569Wrbs2ePG8c+2kYtW7a0b7/91psTm+q+v6HQdsjIyLDMzEzr1KmTO6+ysrJs+/bttm3bNvd3w4YNlp+fH7juBS98AAAAAAAAAACg/jnqqKNcPEA2b95sn3/+uRuXVq1aWYcOHdz4+vXrbcuWLW68tmT3uNwsJbXuB2MfGXaoXdi9pc14b6uNmfWlNzd5kh2M1YHw4x//2Pr27WutW7d2NfhCaV8UFhba0qVLbcaMGS6AVB+dc8459stf/tKNP/TQQ/biiy+6ceyj7XPGGWfYE088Yf/617+8udFRAFLv79Onj02ZMsUWL17svbJ/0XbIzs62gQMHWo8ePdz5dOCBB1pxcbGrFavzSYMKOLz11lu2bt06W758uXsdAAAAAAAAAADUfR07drRLLrnEjj/+eEtPT/fmmn388cd26623WvPmze3qq692lQQVNxBVElRlwfvvv9/y8vLcvJrmB2MbnfPDYbdoxktbDnEv1CUKxP6sRysr2LHXHn27wN7/eqf3SvJkvvu4N5ZYqq2n4Nk111xjOTk57mDZtGlTaXDo008/te+//941rarajp07d7azzz7bHUDvv/9+varRp3UeM2aMtW3b1h30Co4pWEgAbB8Fq0eMGOH296pVq+zDDz/0XomOjgcFH4877jh3cXn33Xdt69at3qv7D20HHV+9e/e29u3bu1IuBQUF9tlnn1lRUZE7x7SMCj6ccMIJduKJJ5bW0tZrAAAAAAAAiOzUU0+1Sy+91Fq0aGGffPKJN7es888/30455RTXctt3333nzQUAIDEUY7rssstcoFUxgL1797qWMBWEVUuzubm51qRJE/vDH/7gArapqaneO82NH3TQQXbyySfbypUrXeygpmUe3DPwb0rdrRnrB2I3Fe2x3/37a3vinZoJNCWjZqwOkHHjxrkmVFXr9dVXX7WZM2dWWD36mGOOsZ/97Gfurw60Dz74wO68885ar04drZEjR9pPfvIT+/rrr930wQcfbP/3f/9nTz/9tJve36l29O23327t2rWzF154wdUc1v5Wdfpoasj+6Ec/coH7//znP3bLLbe4pq5feuklV7pjf9SsWTM74ogj7JBDDnEBVh13u3btchdlXYQVfO3Zs6cde+yx1q1bN9eksWqc//nPf6bpYgAAAAAAgDDKu7ruuutcfopaIXvuueds2rRp3qtl3Xfffa5SifKqlP/37LPPeq8AAFB9quQ4aNAgl8//2muvueBraKxMMbSJEye6/P/KqELc+PHja7xLzewT63DN2NoKxEqia8YqMaKIvAJva9eutQkTJrgDRgmUiiigNH/+fFfTsWvXrnb44Ye7GpBvvvlmpe+rC5RY+/nPf+5KzD3//POuhqJqAvu1Y+v6+teE8847z0477TRXamPy5Mk2YMAAF7zWdlJVec2viJo11vZVUFEXD7WFrhqyKt2xYsWKWinZUdsUeNU5o2335ZdfuhqxO3bscMeaP6624ZcsWeLG1Za8zkudV2vWrHEFJAjIAgAAAAAABI0ePdr69evnMrufeeYZ1/2Y8lgiUd6UuopSQXlVGFBtpcrytgAAiJYqpqnbz507d7pKberaMzzGpIJDCtaGNl0ciSp1KUanGEJNyjy0p1lKiu2rr1tH1GYgNtEUmLzqqqtcc72q3XrzzTfH1C71vHnz7H//939t27ZtrkNifVZd98Mf/tAFntX8smp9atC45uk1mAueqnr8f//7X1cKQ00WK9H6xhtvuIB7ZV5//XVbuHCha8p66NChtmjRIhdo1LQuOvsrBVMVlI3Ef001ZRcsWGD33nuvu+CqgIMC4zo26wI1W/3444+7QgwqRaobSEVUwGPu3Lnu4QhB2hbaJiqR2xDpd6kk8pAhQ7w55prdVosDf/vb31zhAiQH5xsAAPtESpMAABoW5WN2797dZXY/+uij7rlz48aN3qvlqbLAX//6V3v55Zdda2R9+/b1Xmk4eP4GUNsaet5nJNnZ2Xbuuee6WIqeQV555RXvlbIOPfTQKgOxomW0bG2pU80U14VAbCKbKVYb1ur3VaXBFIhVk6jxUPRfzdiKbvo66WKhatoK9OjAVd+Zsn37dldT8LHHHktY88dKjKjZ3KysLPv73/9uc+bMcfP1oK42vVVrU6+rxFx16Tfpc/WbdFIqmKnApr7j3//+t2sGuqarm0fjsMMOK+1M+i9/+YvrS1j9CGsf/P73vy89Rn7wgx/YqFGj3LZUsHXq1KkuqC2q1fnHP/7RNRNz2223uUSujhHtzzvuuMMtEw19t/aLSjqqtqhoPdSMtoKCdXH7JcpJJ53kahgrEKsCDwqCx9rnrvpDufDCC13z4zr+1CeyStbo2Ff787Hwz3Ed11999ZWbp6CsmvhWIQY99Ghf++eOgkPqt6WyZoL2N0qQqJ8a1Xa+9tprvblVO+uss2z48OGl15Hdu3e781Alf/UgWVcooaVrbOi1VQ+DN9xwgyudnKhrK8rjfAOA+su/hiut96c//cmbW3uUxlcTWyqEmeh7itKRKmh4+umnu25ymjZt6p4XlLZROvett95yz0jxPpP6IqVJqqJ0lvobVKFUlUYXPY8uX77cPY9Gs07J3HaJouerYcOG2f/8z/+4524/Q8hvqefJJ5+0d955x81DfBQc+t3vfuda4qqLaTOdH3per2rdIuWR+O+Nhp4P/ff517mKqGByLOerL1J+gVqVUgFnfV5dbvUs1uuh/ywZTnmlWl5dREX6zf7zmKgbpMrObz+/TEHOioTu19rm/zatk5oqjjZ/SP3x/fa3v3X5GrE8l1fFXx8FekP5+0j7VDWlqnuPqwzP35Gpb8af/vSnrrU/3eN1rum+p/6FH3nkkdK8zFjpGvSrX/3K5bkpDVfR9q5unk5F538ksd53+vTp42IDOh+UF6w8V13rlddX1TWjLtE1Vek4pW9U6CKa9U7We3TPU3oynvtaQxBv3qdP21hN9CpfXPnOdTVNHUo1YhUjUQXHG2+80VVajMRPW6WlpXlzIos3XVRd2T2CzRTXSM3Y5k1S7fiDD/CmImtINWJFDwm9e/d21ad1sQ5NECgQVxklLkITGP/85z/dBUgPc/3796/y/aF0kimxoBujAnsKDGtQX5pqHldBPdXgTQQFRtu0aeNuuKF9n2pc8/SalkkEJawVvNLNVn2tfvrpp+5k1EOvfqsuLPrtdY0S3nqQ0UOMjokjjzzSJTDUhIt/jKivYGU0KHCr/aS2zn/961+X7nddcLW8Pkc1pr/55huX2NC2iJbfb61qX+r7lahRIlsPtcpAqKvbL1Hefvtt9xD57bffumPSzxSKlmolX3/99W7767jTPtE+ULPiCqorwRUt7VcV2lCicfbs2XbFFVe4IZr+g1E9ekj8f//v/7kSUd999527juihQdNqieDyywM3yv2YChvo4UmJGQAAED+lt5W2+M1vfuO6b0k0ZRCrgOGYMWOsS5cu7rlRwU5lGKt1GD0j6TmysoBNsmjd7rrrLleAVJkjeu7wn0c1TwUOKwtAJXvbJYoCPnfeeafrfuaQQw5xAQK/yxT9Bj0nKPMQ1aOMNj2zNkR+Nzv+oHNYATAdSzqOIr0WSoWDQ5cJHfRaLJRfoILeynfx8wt03iqoqTwE5SUkKh8p0apzPdQzffh20+/UdtD2SMRvjrQ//SHSfq1t2maxrJO2oX5jsoRvP38fKSCnfRRtgYaK8AwcOwXr/fNJFRSUX6n8xOOPP97tk1jyx3yq/HDPPfe491aWN5mIPB3l24eeh+GDPk/HnQI4yn+NlgpgqBKI3qt+lBNVEaqmKdiuwLEqkVQV5PLV1HsQO13PdY37+uuv3b1QBWjqOrVsqVqxysuvKBAragUzmvSOlqnpJopLBW6PSQ/GKhD7fxe2s9cvP8Ku79fGm1vWRSe0tBE5LaxgR8MIxIoSAnpI+Oijj8pUn1YQR6UOFGyLRIkIlfhRrcnQRISi9bqxdOjQIaYbmRKNKu2g4N/dd99dGujRA7EOYAUDL7jgAm/p+CmAqH5QdRNTECk0saZxzdNrWkbLVpc+U838ajuqVIhu/hdffLFNnz7d3SCVAFdJmrpKN3Q9zOhiolJjSqz4FOBTgE59wCrxoBJUCuJqX/l00VTwTgF2lQyJ9eFK+1zfowCsAq/6Hm1HlQzR9lOTxzp2GjIFPrVt1aeJEnrRUoJK57ESB2pKXKW2VBpJibyPP/7Y7TvVRI+20IRK+SljSQm88FJfulYoIaLPptRl4qlmtPob1jVXhTv864j67NZ5qVLgeoDYX6lAkTITdZ0CAACxUxDjoosucpkeAwcOLK0pmUh6NlQhQQUDlbZ/4IEHXAnykSNHukEFLZXW0XNpLBnqiaL1UsFHpa+0LfTcoefRCRMmuExN1Q6JVCOlJrZdIumZQM/vesZT7Rd/H+i5YOzYse7ZVc/DiJ9qOTbktLlq/PrnrYZx48a5gucK0CmgEfqagg861kLpWTJ0GX/Q841aD4uF8guU/6Dv1/Hsn7fKR1LekvISEpGPlGjVvR6qBnvottNvVB6J8m/0m1Xwv7oUrMzNzS3zPf4Qab+irPDzQftXARzdT1RBQXmE1alYwDNw7FTDf8qUKW5/KG9M14orr7zSVcpRvpjytKKl/OKJEye62m86j5UvU5lE5Ok88cQTpcdTpEH58SqUEF7xqCrKNzzooINc93KquV3faPsrv1g1VLVfqtoXUlPvQfWoMpi6lVQBKxVyq+uVsZRnrjS0CntURukg3ceromUi1bquKUm/u2zbudcWrNtuqYFz6cb/aRMxIPv1tt32XWC51s0a2YAjg82f1GcKnKnDegW1dMENTeTpoqJSMaqNF17SSoFY1VTVe/We0ADbe++955p20EOomn6Ihm56CgrrpFLiW006+RYvXlyaIFewtrKmUqKhwJ0Cg6tWrXI3GjUjpYS6Bo1rnl7TMokI8ukGqBt0aI1jUS1kJV5V0lqB67pK6+c3GS2hNTOVuNSNXg/zenBXjWKVklUw3qd9q2V0jKiGbCwJRX2u9okeAv7xj3+4/eJTLWw146ZAowLnDZmCn0pU6XxUIinac0DNBitBpYSYOg33z2+VclNhAO0nBWyjrXngB+RR83TzVSJfmWM+7U+VWtTDu84t1WIAAACIh2psKKCo5zw9+PvdUSSK0vUqUKk0i5r8Ve1RFRYMDzIofa80T220vKJMWhUwVA2X0CY+lQ57/fXXXVpchRPDCzIme9slkp7fFajR84WaIg5NW4oKzyqgpQxfxEfHgQJpOrYVIERyKUNcz6mqhRKaYal8JA16TcvUJcm4Huq9zz77rGtVS/RsWNczrfdHym9UXoyuwcqLUS0q1Bw12axzLZTyapUHrXxx5Wlqv1RFlWr0WcrzVn6nrj16f2WSnaej9VZFH+W96poRfj2piK6PqnGofMIXX3zRm1t/6Her0JzyjnW9V2Uh5VVXpqbeg8R47bXXXMUwnR91Of9fx4gfA1FhsMro/FQ+fXisKJReC83Lr1HK+w/8XyNFfe5asMnueG2TG48UkH11TZFdPecrF5T96Qkt7bERh3mv1E9qCkVBR11033//fW9ukIJduinooVNBHZXYET1cqCSkHuL0oHnvvfe6h7ZQam5B71OQMZoEoNZDASbVgFUiOpxfvVvrqmXjpVJGJ5xwgjsp1J+tDmgFGvVbNGhc8/SaltGyySrRqu/RCaqhLpY8VolKrZdKemufa/srKKqSQD5dEFVdXk1Vq7lr3ZDUR4mawhXte5X4029VM7vavqolG+3v7datm6u1rdJjoQ9WvmXLlrnPUil1ZSw0ZKptGtqMSVW07bVNdB6+++675S7eKjShm5mC7XXt4RTlVdRHmeYpAajzKjxjEAAAIFpK5ytdrxoj11xzTcIzmFSjVM97KimuVpDqYhN4CxcurLBWngK1Sk/r2UjPpKGSve0SSc9tSv9Hk1GE+Kh2kvJBlIdRX5t6rE+UByGRzjt/nr9MXZHM66Hy5nRN0rmu7qT2Byoko+ua8pxioeu6jhHldylAXlNUWF4F4+t6xYz9ie6JonMn2j6mdewo/1M1bKOpTZrsPB2/MoZq04dWcKqKaukrXaPgop+XW99onymmoVqrqsijfNCq1NR7UH2KR6hwkq6ZvXr18ubWfzrfVKjjww8/LJNnr3HN02u1fU7WWOqpqoDs7A+32f/zArIXn9DSptfjgKwfHFNC4LPPPvPm7qOA7OOPP+7GVbpTTRepT1CV3lLJHTWxEenA0GsqFRRtAjA08RRa+9GnQJQ6ulctSDXDES/VKlRCSwe1TuSK6DUto2X1nmRQAEw3PD0E66ZX1yjQrnVT6Sy1h6/Ap/aBgrF+TUodBzqGlGBRUyt6yFHTGz6VWFHgUPtVv1GBdO3D8OB9RZQw1fKqQaxjKpyOCwWN1VxBLP3Q1kd+AFu/U7XOq6qhqocJHV9KLKxevdqbW5a/HxTMroxK/T399NOuORWd0xo0rkIL6tBf1FyEanv709FQZpaahFGhD3XGrkHjmqfXwuk4VDM/M2fOdN+t5bVeat4lWjp2dd1Swknv1+doXAVMwo+h0N+k17SMltV7dG3Ug7O2TST+b1OtgtDfVlGz79UVT6EObU/1G6xt6G8LbVv1qxS+LdQ8tn6vfnfo74+l2eyKVGe/at/oPf7DszI2NK1Bpc1DaV9p3/vfo0HjmlfRfqyI9q/uhyqlNmvWLPdZWm89YKnvnvBCSPEeS7oH+c2y+9tezZY//PDDrjWJqlxyySWuVv3f/vY3V0ovEjXlpnWfNGmSa31C297fPpEGfb/6mAuVzOMDAFDeH/7wB3e91T0i/Brsp2t0D4mFWvJRdxORamdVl+7Tqj2i50M1NRZP4EH3XrXWpHut7kX+PUnTmh8p7ZgMkTJqk7ntEk01NfX8pO0Vy31aaRilZZSmCT/mlBZSWk5punCxppl8yUqnan1C0+j++isd5KeVdLyqyWl934ABA9y8aClT+4wzznCFiXUuIvlUG10Z4urSJ/R40rjm6bVomgKsKYm4HlbGDzzrOqVgY0OnmlLqG1g++OAD9zdaygNVnoialVTz7eHXlmRRV16hhQdifWabPHmyu3ZF8wwsOheUDxGa76Lny4qeJ7W8PlPXbf+6qvfouqnAY6TtlIx0SU1S3qPyxpW/HSnvMZwqiyjtoft/tPmbValORR0dC9ruqrzx0ksveXOrpn2tCki6XkTKI9f+VgGj0MoxoXkb/j019Niq7P7uHxuh6QEdV2pdRMvr+NZ8HU+RKFh9//33u/NF540oX1gtNarWsQLR0aip9yjfVOeS1ten9KLODeVDRdpGFYklXRRr3ldN533GkzbUMaigrOIKFV0n6yNdP9RlgY7nm266yQ0a17xEXVuqo0aLskUbkP3KqyH7xMh2rs/Z+kaBNAW79LBQEZ14OjlEB0SPHj3czUl9xVYUoVfJYD8Yq++oim7KuvFpPSI9wOqEU2CwOiWFFBhUoleJXT24V0XLaFm9J5HV4FUCUjczlaTRb3n55ZddLcW6Rtt85cqV7vhQMwza1wqoKjir9dc+03bRb9AFQiXB9R7116JasnpdgWxdZFUzU/SaEgf+dFWUKJaKmvrS/lGiQcdFeAn1hkZNjWg7KHEWzY2nZcuWbtsrs6Wijvv1cKYEn/ZpZXTuqVaumh9XBpQGjavf2XgfbJVY1A1dTYGrIIYSNhq0znqYuu2228qc68rYUCaPzkftc323rkN6b6SMn0iUeFBhEtW41nVGx7TWX8d437593c0u0vVFCQElRlQCS9vSf+BXzWMlTsNrFuvYV4JIv0Ofp/X0r5X6vYnsdF7nmko/aptEKlBTEa2HEmL6Tfr92vb6XfqtOk9Da1/rIUPXK7UeoII72vY61zWtbVad5tyru1+1znqPjnPRg62mNWjcp9+gpvVVgET7TvtDg8Y1TwmeWAreqA8m3Q9VkEHnkb5Px4budwpU6mE+kliPpauvvtol3nV983+b9oEKJSnBO3jwYG/JyNQMltZP71dLD+F0fCoDQ+fDkiVLXIEbnev+Ngwd/Iwiva7Esi+ZxwcAoHJ6rvjVr37l7gtKB+geqkKKSqMrzRNLJk8y6V6je47uJdFmYIXy043qb0/3ND0z6n6jv5pWoWGlvZKZ0at7tNJMuh9rO9dXSvMpQ0sBG3VHpH4flf6Olval7u8qgKt0jAZRZq7SdErbhYonzZSsdKqOD62j5imtqVqJ+lylg1Tg2M+30LOCmqrUudSzZ083Lxr6fP1efbbyULTeSD7l2+ic1DGowpzaD/61UfP0WjT5PzWlutfDqui5SueNjm2dCw2ZuhpTvqT2t2qi67yLlZoM1jGivAIFBvwWAZNJ9zTl1yhfRdfFWJ/ZdL/Xta6qZ2BRIX4FSJU3oWc9Xff03K08hEjPkzp/lBfz85//3F1r/euqKkgo30gBXL3uB4LD1Zd0iWhddI1X07P9+/d3+ZrPPPOM92rNiTdPJ5S2r44fVcTQMRItHVe632k/V9XHZThtP6W9lJZQ4QLV+NZxrHup7oW6N4fub/XHe8MNN7j7s65/Oq5UcUfHt44n//jWeaG8oEj5ntpWChb65019pDSG8rBVAEDj0Yg1XRRv3pc+rybyPuNJG6rintL9+p6G2KKAzgnFhjQolhZ67tSKwH63wP81HumMJSB74fEtbOqPDq13AVkFYnRiVUWlGnRyiC6Qap42Ug3WePmlOPymISLxE5K6wcRKB/E555zjEgEKBIY3yRyJltGyeo/eW50TQQk7v7aRSrup1I9KJeuipRJpdZVubv7DrGoUqmSMmtDQxV8P4Eoo6nhQH0pqlkMXDV0YlRDQRVUJTCXalKDRxV77WU3jxhqM1XdEogu9grvaN2rOuCHTuaELshLTSkRXRYlf7Sed3xWdV0pwadvqGFeiuSJKVOmGrWNXwWANGldiWhljsdL+UikpJa702XoIUElPDUqwab/qmFNizacbuY4t9fujG7O+Ww8V+pz58+d7S1VO20GJCZVO0w1eD+v6TpW6UyJQJacj9Z+rG72OZa2bv57+e5RwDS8x/4tf/MIlVpRQULMSWk99lx7slBEQXmotXtqOOq907CvRHm2iWwkiJX6U8aZmdXQ98n+X9sXSpUtLzzld+7TtdRzpQfVnP/uZ2/baB6r9oWNMzeHE+5uqu191/Ok9/kOntoGmNfh9K/m/QVTaT/teCUkN+j3aBvodKpkXbbP0Oge0nVSqUeur79MDq+6V2lY6jiKdU7EeS3qo0XZW6cArrrjCfY+2k7aN1rlfv37ekpEpIaxjXsuq1ms4racS7rqm6Lrsn+v+NvQH9T2l/sK1no8++mjp/TjZxwcAoHLKLFFmvjJelNbw70W6jyvDJDwwVlv0XKCWXXS/iTVAFZpu1HuVSeTfe/VXmfHKyFHaS2mwZFDBVD3PKaNU6Yb6ToVo9ZznB2T1PKptV1VQVvtC6Ui1mKR7vtJSSsvorwpqKk2nwLiW88WaZkpmOvXss892LXIp3ag+Ov31VzpLtTH8/l2VJlKmoAId0TQ9KfrNCmzrOFW6NrTgGpJL6V09c+l5SP0lqnaOnlVVQ1nXDD37+ZnDdUF1roeV0TmjIJiCS8rU1TmAuknPfApi6Fqk602sz2zRPAP79Iyp657eo+dJXfd0rdJ36jgMf57UvUABG91XFfzxr6t6rwJpOmaV16T7cui13lcf0iV+LV7lzSgQq/SDuijQ76zpa4W2YTx5OqF0j1MerIKYurf798hoKA9M+YG6/ynvNhZqBVN5tkqH+fd3HS/K+1blLFXk8vM3lD7QPVhBSOXJ6LjQ8grI6Tjx77U6vnWc63MjBfJ0fClfQudLXbqux0KxBu0rFXJXBaiqxJMuknjyvmoq7zOe/DT9RsUjVOCtIQZjxY8dKd1SV7oZqJUoZ0MPyOqCq4uAH/SKRDcHnYgqsaETRieGgiSV1SLSBVZBI2Uk6yaeSLpRxEoXDN34tS7hiZPKaFm9R+8Nv+jEwq9ZqIC2gpHa5go26SFQD391lYKry5cvL60Nq+CdSsFpUCJfF1ZddHXT1kVDv1E1ONX0hG6+uhjfeeedrpST35G8EjmJLqGpjARdkBsynVOi80/nld/8UCLos6vKfEkkHQs6JnRDV3Orof1mqJCHAj+6fqhUr0/HoIKpKq0YmrjUe0Ob/KiMjmeVkP/vf//rzQlSc0b63Ipu6sp4e/zxx8sUQNF7/ASjHm58uk7qXNDxP2PGjDLNuWi9ldETa/NJkei6PG7cOHceahuoFG+0iW5lSimxr0SgEs76fT591j333FNaYEUlRLVdVAAntJSovuvZZ591gXOV4gzdV7FIxH6tin6Djm8l9qZNm1bme/Tb//d//9c9VCrRqRrS0VAmj66DoceuqES2rpP6rEiJp1iOJfnrX/9qDzzwQJl9pPVXJqjmKUFcVU15Jbh17dWxHV6CWceP9q+a5a/oYUbv0TEjaiUjtAR/so8PAEDl9Fyh5gpD7xNq5kutFOnep9LydYnSfrHy0426vyq9E14gWPc5Zfjo3qP7Tfi9rrqUCaZMZz2DqkWjF1980Xul/tK20jOa0kDKzFd6TM/3Csr6TQVGoucPHXN6X+gxp3ScMo/0jKJ0Se/evb1XYk8zJTOdqsxgPffoOAwNgml5Ba78efqrDEI9/7766qtuXlWUIaljRQXbVHANlVNGq4Ih4YOaSIyV8iSU+at0tApqK02rQcejAg06fxX4qmviuR6GUtpe550/6NnzzDPPdAUJ9AzhnyfVoUx7nQuR9pUy0Gubnu2Vaa08KQUxQwtzR0vBIGX6K49AeXO6ZiWLavUp+KeglPIEVcDWzxur7jNbRZR/pPtWaB+iupbq+7QOoc+ToXkZTz75pFsmlO6/Tz31VOm5FXqt99WHdInWUXmzyr9UwQUF9xTAuvXWW10rCTWlOnk6oRSI1b1O+bIqDBQLVXbSfTHePFoF/MKPE51DyuNQsF+F2UTfo/2vYyv0/isqzOX316/jW8e51knnSyhd69VErc6T8O+sT5QnpWuVgpzR7O9Y00XVyfvSMjWR9xlvfpqWV1o0nkp6NUnX3YoqRdUbXr3NWotwhgZkrz+9jZ3frWwNvPCA7AND4+/TtKap2VOdODrQI2Xo+jcHPVj4JaP8UqYqYVFRgFJNCujCq8SwX8I0UXSzjIV+g5rS0PqolFAsTcFoWb1H79VnVPRgWpXQ2kYqUXbBBRe4h11dRPSQp+m6Kjc3193UFTzWQ6ZKaynxpcSu1l8lO9VuvRLBKv2mRKIujEoQ6MFcD8H6jXrI18U5GRkYSkQmOsBbl2g76xxV4kMXdSU+4kmkVUQ33EQXmqiMCjfoONF5Eel8VPMoKvgR+mCgY0kBWpX0GjhwYNznoujhXyW8lJBRKXr1nVBZjUhtm0jrqXXS9VM1lv1SWzpPlJhXxlakhLD2W7xNz/j0gKAMNJ1jevBUgirahzJtT9Vq1zFUValJlXDT+a3zPVIJTSWEdH5rX8ZbMi2R+zUS/zfoXlTRg4muHSqBKbE8HCqRq741lAmgjCOV4tM9srLCTbEcSz5lHiljQNdZBWaV0FVBnmgLJul36xqua0hos1e6nuj3av9W9DCj/aEMLK2TAsChTX/VxPEBAKicMrDCn410X9M1WPdXv9nVukL3zlj56Ub9VhWsi0SZRApsKNimJvcSRfdfPQsrE0xBuYYWZFNwWfd51ZRVmlLPa3rGV+2nSGkyPYcowy/Sc5fSAjru9Nwc2lyeRJtmSnY6VRnweu5Rel1dQSQqQKdMVaVltQ2VVos1v2J/pH2smsfhQ2gmczR0nCpdrAx6pbFV48+vBaQgovIfVMtP8xP9nFFd8VwPQylYoWcHf9DvU5+PCkyHZopXh855PUdF2ld6Xq8LFERVcFi0r2OhgKKerXX/UPAx1uOvKtovyifzA9hqGU+BN+VfqQBJ6LNVdZ7ZKqPrtQIc4XRP1XmotILym0TBFa1zRXkZouut8pH1LKprabj6kC5RXqzyZv0afLo+6Pqh9IbuUzVReKM6eTqhdN4rKK59qP0c6f5cGd0j9V4Fy2Ol80Z5BJGoUo/yN5Snp7SZjm39Tn3f8OHD3e+uiI5zHe/hBRN0Xuj4iSfoXF/Fky6qTt5XTeZ9xpOfpviS1qMuFrASHes6xnX8xpPHrt+n+6s+Q59V+/bWXjBWmqYFblCBG8eevZGb9PUDsos/32H/917VTYjWFararxulgmfhfRPooq6HMzUjoQPpwQcfdA+6Kq3zwgsvuJuvSsNFamZCiWElDhVUieZmoItFVfzEqtYlFirhpAu4Lvx+aZtQKhGlGrAa/KaYQ+k9eq8+w6/uX126KKm0rrajtrOC2uEZ8HWFEk0qUaPt4GdAaJ+rlIr2m1/j1x9UykaJdgVrdfHQheSRRx5xpf70cBqLqhL4+nwVDND3JTrhXJfoXFKJIyU8tD8q6kM3lM6Tqkri6JxSglg3s1gTbdXh3zgrKhGt5ufCA00q7avrid6rQKpKUukhWw8n0dI5rESugloK/Ok6pW2gjJrKbpQ6zrVMOH/7av/41yftIx2T+rxkbFOVLNRDnNZdpcxuvPHGmB62tX5KQKm2vh6UKqPllAjQX9Vyj7SvwksrxioR+7Uy/m/QPtS5UxGVINdDcbSJHt0L9BCnTB417aSHKV3X/Uy+isRyLMlll13mmlnTQ6Ka5FHiWtdFJYa1vtHwE9y616ipIJ9fglbX7EiZmKICODrWtI/Cr981cXwAACpXUfrFv69EW3An2XQv0n1Lz5yxZi746Ua/OcZIdC/TdyhDUfel6tK9WC1DKTCpbanS/cooqiwTrL7Sb1Jhaz3XKzig5wK1cqQ0QDjtw4oKWutztK2Ulgndx7GkmZKdTn3llVds4cKFpQUBtV7K+NNzVrz0XKyCx6IaQvFkpu+P9Pyi7RY+6DnQp2My0n7VdlYGrigfRRnKuhbqPA1N7yufSwVvFTBQwdtItfhqQ3Wuh6F0rKm/T7VY5xcC0PO1mipWuj8RtJ4qnB9pXyWzBmms/MLclWXiR6J9oGCCtl0yzt3wYLaue6qcoH2kGqahqvPMVhltF312OO1brZ9+v7aD6HjUNbyyvAxdv5U/quuoCvCEqy/pklB6tlZtcqUzFAAM70c30aqbpxNK9y/dV7XdFayrSbpXKzAaib+/lZ7S8aXjRsE2XaMVXNS1XjUwL7vssjL5H+IH/FUwQYUXfNpuOj7jCTrXV/Gki6qT91VTeZ/x5qf561FX+c1+6xqpa3asdD7pXqHP0GfVBam6UdSGP53V1n53ehvbtafEbn7lG3tu5XfeK2UpINvvoXU2b3WhN6fu00mmRIdOIJ0AoYk2PYDpIUVBnfvvv79MSQcF5dQckG7cKkUU2pa7ShOphIRKbqxYscKbWzk91Gn/VpR40nqpRLIeDnXhiJYuLKrRqgdzrW+kk0HV7/V7NIQ3eyV6j96rz9BnVSfBHE4li3Wx029Tvwt1lYLwfgJf+0JNH6jUs26CKk2mUmX+oISELqC6wapZMVEC495773Xvj4W/fEWBGV38dZHSsaYEVEOlG6VKOelmqRoBurBXReeJzpfQxHU4ZW7pZhrN5yWDEruhgfzwQdcm/0as/asgnZrg0Hz9Lp2PagInmkISOm/Hjh3rEteqkasSqnpw1YOkgoCal0g6JhNNzcbpwU2/XQlZZRJWlsiqjBI60a6j9oG2eaR95A+VZZBWprr7NVrR/l4tV1WBn9A+O3RvUD8d6h9NAdNJkya5ZlUSQQ+BapJG57GaX9Tn//jHP3ZNafn9N0fLf2BRgk4lnkUZlLqv6T6t3x1ODzu6hmt7KGhe0fU7mccHAKBhUI0L3YdVQyLegjrR3Pf0PFndNJhfW0VBNpXoV4n90NpLDZXSAgpcKdAlCupEajmrKtoHfmZZvGmmZKVT9bkKqis9rSb89IylmnQK5ipjOJ4Alp6L9ZyhZ2O1gBUeOPRr9Zx//vluWs0S1hX+for2dyuDsKKM92So6FlRz21+oQA9I2vbK+Cqpi3D6djQ85KeMRT4qAsScT0MpeNaBSqmTp3qMuxVKF41z1D79Bx1xx13lAawdY1Q3mpFeVfxPLMlQ7TX31ieR+s6XSeU96ttHc+9L1qJzNMR3av1WXW1D1WlCfzjVgFnBd9U2UfXd+VTKn9DXZeFxhS0vGrWal/4fSjrXqq8PF3j/Jqd+xNtk2jPy2iX1XJV5X1FI9r18tVUflptUDxM8bXVq1d7c2KjfaJzWekafVZdkKqSNzVNgdjf9G1tO3aV2E0vbbQH36xevw51kd8EgC5ufglDUZ8CKmGmC2V4lXMdIEpE6L1KFOhC6VPpRF1U9V6VPo2GEiM6gRUcihT9V3NTCtRqPWO5wQwaNMg9UKtUzUsvveTNLevcc891pfo0aDwSvVefoc/SZyaatqceBusDlSjVPtK+iNRMijLs1VSMHurCA/yxUmJID4kKVEf6HJWCVSBbHbzX5INhTdLvU9BQv1U3JdVErqykkE/Hq5ZXAFfNhkeiz9T2raqEVaKpAILoGhEayA8fVFowvFSWmohT8E6FQJSYU8JTtRaqulGpbwPV5tY20TVNTTiFSlQhC21PJTj1cF3RsR/POaHmz/RQrfNOGYThJWmjpeusrjUqxarrWWX8ZTUo+BdpH/lDLH1xRxLvfq1KtL9XpY1VMEHHpq7HlVGmnY4XZQSpBG3ow7Tm65xLBJXgVyJMhWHUukBoMFQFUbS+0VIhDl07tH4qPauHe93zKypBqwdQlVJVYRfdxyM1O1OTxwcAoH7TfcgPiJx55pkxpYX8dKPf1Gwkum/pHqd0mDLq4qVnUWWS6llH90fdwyrKNG+oVIhWzxqqYaH0Rijlx4TXYPH5+0CFyPz0e6xppppKp+rZR32VjRo1yrVWpbSfgu/xdB2k49Ov9RZp0PqJghaa9o/nusB/fq7s3BK9rsxFPUdVlU5OJO23SPtTBST8fIhEpbtrUnWuh5VRel01vxXAUKHWupKRi+jF+syWaLpO6T6qyhBah0h0vCqvQ8slIpBTF+n+kgyJytPxaV+oQIquyzp24uHnX8XTMpnuCxUdJ37+iu4boXm1WlcV+hozZoy7lut+rLx+tYQQ2lqkjncd98rD03mgfGjFGXR+xPtb66N40kWJzPuqTLx5n9XJT9O667irS2kpn45fnY86v6tzjCrGpn2pz6oLLaimBlL/bqRl413ub7L5gdiduxtuIFZ0kdOBopNRwVi/9KZqiephtKKAqk5a9bk4ceLE0hP49NNPdwE4PcCpk/ZoT2wdbCrNqIurSvaE85u8VYApUu3VSHQz8WtmqrRFRaWNlNmth00NGo9E79VniD4zUU1oKrNdmd367fFUYa8Nqi2lBweVFK+omRQ1aaxtpofy6jQHpONCGSpqmjNSnwJqskIXagXoIzWlUN/pnNQ2VFNhuqGqgES0JWxCa71rO4XfBFXCUrWXtX21nWuSElxKJChIHO+5pBu2gqqq1atzN1J/JaGUiaBjRQ8Y4U1o6EFVx1gi+MHyio5ZZfLFWgJa20gP1Lqe6jf7nefHQ9dPbTNdd5TpVBldk3Rt0vke3ox9ssS6X6ui36v7RmW/V/cWJQiVkFy5cqU3t2I6b5QZGakpFn2O1jsR/HNDDyHhdMxWdL+qiEpa6xjSvlRpRP1u1SAIL+Cka8XPfvYz9/3qA0ZNvkVSG8cHAKB+0j1TTTMqc0Hp0khN4FbEz5RQurGiNJTuQ3qO1H2pOulavwCkWi9S6fxon2UbEj1zKJjjBw9D6dkkJycnYuaanvmUoap97T+vx5pmqul0qtLsaiZPeSH6Tdr3sdJx4td6izSohoOoeyJNa/m6wn8mU/6PnvEj0WtqMlWZrpH6kattql2ldVMGbaTrg/+cF2sLa8lUnethVRTc0fOUzsURI0ZEPFcbMl27YvnNuqbVRqWfykT7zJYMoflvFV2DlTerAEFt5CMlk559lfema2IyKiskMk/Hp4C99pUCnvHuC7UyoN8cTx6GrruhTWr7lOflz1f+WEV0T3n88cdd8EppOAVefTre/YIJOg90Pmg9I1UIashiSRclI++rMvHmfVYnP03Hida9oi4zapPiOyrEqHRJvM2Oi96rfa7P0mfWhkZpwX2wt0RdtgZurNIuPfmlb24/u62N69fGBWLHv9hwA7G+GTNmuOCNLqY33HBDaUA2FrpAqjSLSssuWLDABY6ipcCdbkZKPKl2ami/LbqIaJ4Sqy+//HLUD8V6z6GHHupupHr4qcicOXNcs0EaNF4RfYY+S59ZUQ3aSNTshPqnDE8Uap4GPTwoIB7pQlTX6GHGby7l2GOPdU1n+k0whQ5KXKg2qx6O/YB4PPRgrBu0biYqQRZaukelyhS4V20xNcvTECmQqnNBNys1/azASCw3nddff90dV9pnqmXo001RTZ3qRqxa7TVdskzHu25QummrJqQfdPIps02l1f1mapXYV3AovHSXji89QOnhWpkxlVFGiDKVdPMO7XdC362mUrRNEkFNpmhf6ZhVhotq9ft0bbzmmmvc/oyFjnOVNtM2q26JWF0/dR3V9VR9kOqaHXpt0vb4zW9+4xJNOnZUy12JHf96FUrvUzM7t956qzcnNonYrz4lViS8ZL9+r86Din6v9omOQdWc1j3QL3RTGe1fbRO9J/ReqcJIysSNJQOgMn4BIiXAQo9PXQv1XbFSbXBtJ12bdb/W+RCpxqs+Xw/Z2h5PPvlkhffcZB8fAIC6SxlmSu//4x//iJgBE4nS60rL6nlPTfH/5S9/KVdzS/cOBYXUrKOfDtS9Ss9gai3ml7/8ZZm0lWh53bv0uWp6tqICuFXRdyvzUPc9rWe0z5z1jdJ4CgjqeTa8lqvS4KodqnSsCt6qSdhwyii79NJLy6R3lC7Rs5nmKZDgBw1iTTMlO52q5hDDj1ctpwKb+hw/3akMeTWbqG4azjzzTDevIZo/f76rsaQAvJpPVVchoXR+qksi5RGpaV3tm7pG+U5Ks+r6oKBmaItQGlc3NQpM6roQ3jJSbYr3elgV5Y0oT0sZ5ApehJ8XDZWOY7WWpmNV145oaVld70JrZtW2aJ/ZpKJn4HgpX0gBGuVDqRnR8EIauv8qH0nXDC1X0/lI1aVrnGpjhuc/6N6iPAHlT+lY0rXRp/uQuipQN1fh96xYxJOno/2vFhxVODr8+iDaHzp+lUcY6X4dDT+fTOdOrLXwKsvz0n1UhcrVApqokL2aoQ3Pd1PgTYE5XbMUVA6le7wCsNoOOh+07So6F+qTWI6pWNJFWjbReV+ViTfvszr5aXr+0O+rS9dsnwr0qcKEflNFsZJoBrX2oriTPiueQoKJ0LhZG/d3d+BRKDW1UbDUUrKDsQrE/rpvG/t+1979IhAremDSA7UeanSRU78psTx4KJGnC4ACHX6TirHSw7yqqesGdfPNN9uDDz7oBvXfosx5XYBUgjAauvDrRFagUyWbdQArqFWdwS8lrc/UZ+s7oqEbuvqkVMBb/a6qnxo92OnBQBcoXQCfeeYZb+m6TceE9rEufqHNL0UaVLpJNwMlGiKVhomWSneqdI8eprTttA11cdKNRbTttF8aIiU8VCpGgxJhfinzaCkhr+NLD3m6OarUmbahzk81eaDzTX0l1zQ9DGtdVJpS59ZDDz3kzvW7777b9VWl/oUV7PfpPDnjjDPsf//3f93rWk7L68FUiTnt/4pqafvU5JoGBfmUgaTrnY4l9a2jc7SyEnux0DV05syZ7kFY14g///nPbl213fWbFVjTesRCCWM9EOmhQeeDrh+RBpXsj6bklG7wqr2u+6kKofjXJg1aV9XE1jEj+j5d05VI1jVL/Zpo/2hZvU+ZXArqxyMR+9Wn0sI6X3Q86fqgz9GDooT/Xv0G/1qi36eHTO03vS+aFgr8TB/tF2Wc6HN0PKnZND1wRBtAropfmEKJOWUI+seQAtjKlI61aRadd0owK7NKD+x6mAnvb0WFn/zMVAXDde/Sfgkf/AyhZB4fALC/0r0s0n1egzKy6gJlEuj6rozgaDNj9VygdJHuybpn6xlB91E1E+v/Po2rIKte8zNjdC+cMmWKex5Q2kpN++m+q/uR7osqSKznE2XaVdSaQzSUwaPfpLSiMqFDt3v4MG7cOO9d9Y/SeEpTKkNOaVYN+k36qz779cylba20WTilDfQ8oj7t9Wyie76fBlLmvDKDc3NzvaXjSzMlM52q5wvlLej3Kl2lQe9R+lnrqe8VBbG0zvpcZQI3VHpe0Tmj/aBzSF2G+Oejjge1gqbjQa9rv8Vb0CGZlHbXvtZzpdb1nnvuKT1PNa55+p26VtSl9Y/3ehgNtWyn5yhl5CpdH55vpby1G2+8sfR7Qgc9l4XWTqsvdP6qIIh+mwoWKO+jssCSrgXKvzzzzDPdsaPmneuKaJ7ZfJU9A8dL109dy3VN0P1V547ut7oG6P6r+4de13L1jYJGasUhNP9Bv0v5UdqGOo6UP6Zrhk/3B6ULlB/sV0yJRzx5OvqrfBHVkNO9L5zObd0PQ5sBjpW6DvPvAbH2q63vVWGm8DwvrasCvLqG+S0qKI2gtIPuOdrm/rZXa5y6VinIGl77+/+3dyYxml1XHb/vfUNNXW634yETwqAQWGQBYgOL7IycSBaDpUiRjBRFYsMiLCJllQGMlAUrJGxkoUgQWLKwDIYNgg1CyS4LxCZKGJTY2O6mbVcPNXwj/985977vfUN1V1VXdVd3nX/V/e6955577jzf9x40wqAd0B64AMCc8GHHcevUceZFp733dScg5yR7nyfdT2MPm7bAxZuTXj44S3BmxSHxqvMRzlAOw2HnK8i604OFZ4lePowdjLRu6Hb9lXyf7J/du6H/5PPPNAexf/jP1y7EQWwBHR0dIovqMhlnAs7k7zAwYPGObxY/LFY4/MEPt1qOCxrw17/+datsbDIzCeRgmFs+DJYMkEcFHQGdPR0cN2C5cXIaClnIRPbipPYwcCOCQYXOkUGEjXXMvG6WW8l0VEzGzzu4ccPClEU4ZcEE906KW9VMiFkAH/XG/CqQd9/4xjdsgsxEkzzkdiu3tensuVH0qIK8Jp1sanBjjfQfFxziMLixqXL58mW7fcSFAm7jsghrTzTvJ+hvCJ+FIunkxhSDK22LNNPmy/edGJC5Ocxgz2QUPg5QedUUT+61X5V+GHBHJrcQmRhSn+ljCIs+izBOC6Ttm9/8pqWNvCZt1FtugBEWE96TgL6HfvYwxeLzqAt16gUbbrQv/BA/4snEhslbmTSTb+Qv+UxfTBhMGuElH5lw0A5PgtMo1wL6Ab7tzdjDwhvVHofa6SUf6Yfpw7k0wmSQxTjldhQgg7rEBLD06/Rz+Id+Wv058rg4wZMILHJouyzgaBcs1LhNeFwwRpNm6iX98+Jihk8VkBYm76VNrlKUEzjL+hEIBAIXFWxKrRrnUYwH5wFs2HGpivnC4lhyJzBuMC9lDsiFK+ahZX7DGMKGBGskDl/b3/ks6wHGFcJjnGc8Yt7IHJkx/tvf/vapjMGMgWzYLuZ9W+H+sIJ5BRv75D1z8JJW5oPsA7B5+pWvfMXyfBV4+phL1OQ18ynKgjJhDc9avr22OOmc6azmqbwRiPQznyLuzK2oc8wFqZMlzWz4khfsSTBXfZTBYfbXvvY1ywPKrvQ/6OQ3eYg7fOcVHD5yaEndpNypByjM0FiXHXWefz9x0v7wbkAuG+RsaLPmXfwW8p36OMI9zsHveQKb/1zKYV3J96A5+DkMvGWBN7iRV1zuP09PTYO7rdkK7rYGPgmoh/Tlr7/+uvWr7CEx3nIIwgEK/S1Pl7b7+ocF5Gu58Fz2H3gYiL6OQyz2BBZfL8p4wD4ccw3M94rj7Okw1pHPqFWvPaV9U0c4sD8pyAvSxZyuHAIfFdQ13mjHGM/+AOMq6cPOvhd74QWMveyPMa6WORznDhw4MR9Ytd9P3JivsO+B+V7fEndecJI6ddR5ETjNva+7ATnH3fs86dyQ8wgO5ZF9rwfJZwHSxdnYqvMR+vHDQPmt8oOsB5XO7sZTmiykNBjXqfqLv/2n6e0PrqadUTe9/NPPZJbTw/ZanV777Y+nz336Uvrjf7mW/ux75+8d1G189LvPZdPpgg6dj2nzmkIaLh0fm+Z0FNxKoeHTkMuBJ5M5OkY6Wm5onBfw6qVnn302204XHODQYC4SOIhmUstgyYKBMr8bOITl1QQMEGygnMfbtIFAIHBRwLjOhhoLJ17bVzYdA4FAIBA4DlgL8NkH3jDCQUjg0QcXiFn/89TOnT7tEwgEAg8SPEzy3HPP2VvADtuz44kxLjfhfh4PFWPNFrif4E2GvDWCp/GOsm/LBe4vf/nLdlDEQ1xnCd6IyBP+HEZ/61vfytTARQPnUDyZzyU6Du6P+tbU8wLersobaRYvc/Jqbt7icd4uvD31md9NdX8z/fe1Xqr+8o1/ne5ceytNxuP0p//7i+mtwWZmOz1wIPtzV/rp39+9t9tE9wNndRhbwCSGAzhux3A7ZxHcVuBmFLcXePT9Xm9gBc43eAr6C1/4gt14OeqhOx0mt+q4UccNuofx9lwgEAg8KuC1w1xU4tY4b3sIBAKBQOC44PY6GyJc2mXTjvVg4NFHHMYGAoHA/UGs2QL3G3x+4bOf/aw9Eb3qMwVt3K/DWOabfMKKpy1j7nGxUeocl2x4E8ZhT8+eZ3zxi1+0b+JSrwEPuPHJj+O8+eJ+oLfxZHril15Mk1Sl/3irl6q/+vt/m+7uXE/7t2+k/9q/lP783V/IrBcTZ30Y2wYLL15LUcArX3hlysPYAAKBQCAQuGjgrRe8Roix/GG8TRgIBAKB8wG+b8WTsVzQ5FA2cDEQh7GBQCBw9og1W+BBgFfZcsGOB2p4/X/7tbeLuF+Hsc8//7y9UpyHe+JNixcX9Ikvv/yyvTL9lVdeOZefHTgqeB04r+gGvKb5PD7UeOVTL6S17Y+n67c66acfdpN9jXht67FU1XX6+fVb6TceP/l70QPHA50srwUoig/Fx0FsIBAIBAIPB3i9D99n+fGPfxyvlAwEAoHAicH3rV566aU4iA0EAoFA4JQRa7bAgwCvwubTg3yKkM8W8k3dBwnC5zCWw2G+cxoHsRcTlD/1kW8S873nh/kgFnD4ymVW1Hk8iN165ldS/9LH0mRapfd27Bg21amqUt3ppvWtx4zwucffST+7tmvmQCAQCAQCgcAMfP/lO9/5jj3F8sILL6Td3d30xhtvxGWqQCAQCAQCgUAgEDgHiDVb4DyAOvfiiy+mr371qw/sE3Nf+tKXrB289tpr9gQhh8Rvvvlmdg1cNNAH8qYALqnwpoDA2aG3+XS69LFfNfO1m3UaTcphbMb61uXU7a+Z+beeeMv0QCAQCAQCgcA8+CbFk08+md5+++306quvPvS3CQOBQCAQCAQCgUDgUUKs2QKBlOq6tnbA61x/8IMf2FtYHtTBcCBwkbD9iV8zfXdQnoqd2n/13Te/N51OJ0k/aTwaplvvv5cm41H6n/3N9HcffDL95GDLPF4U3M9vxgYCgUAgEAgEAoFAIBAIBAKBQCAQCAQCgYcXvc2n0vYnfj31tp5Ow3GVfvRu156Kraqas9jZk7FVVaVOt5e2Hn/KXlv87Ppu+oOP/jA9d/mdzBEIBAKBQCAQCAQCgUAgEAgEAoFAIBAIBAIBsPXML6cnPv2bzUHsf75XXk9c2YOwoOYQlu/GFnR6/bR15Wnpa3ZAyzdkf/+ZH6ZP9OM7soFAIBAIBAKBQCAQCAQCgUAgEAgEAoFA4GKjt/GRdOVTn0+XPso3Yqu0e1ClH71Tp4NR8xysnbPydGz11//w/Skns/wl6ZPJxBh4dfHB7RtpX2qSP3B+Y9xNbw8201uDLalNM++M++b2qCBeUxwIBAKBQCAQCAQCgUAgEAgEAoFAIBAIBECnt5m6Gx9JvU2p9SdNr0TjYdfptE7XbtT2jdgpT8OKnwNYezmxPQ9bp+pv/vH708kkH8YKsvhjs/nR2fF4ZIeyg71b+aA287nWGIr/o6M8jXsXf9Vq96rxfzIgdpqfCFaKTcdaTT2N5EOv10+D4TjV3fVU9dfSjdujdPX9G+n6zm7aGyrz1zbTWOwj5V/V6aaxxIz1U9WdNFG+WNZIqJwJzMwUREEO1X7RzW5xymbDjN+RXRbIjaxGXDYQ7kqUk3l8zkJz/5VcqUByyU619CLSMVZ9GJpK9Th1uymtbXTT1qW1tL7RU96RJ+5nNErKx0kaj/BDaDyi3a4xlKYLr+UBVYDRqkAmmRORkqFwlSqCvagSb/erH/t3vQ2sVibKJysz4ifiWAVrjYUA8WY0pUWKMh4qPZTrROa2P7vYYHnuSiQRMWfktME7XzYQ2nxZdwlLyFLsFyxymXuL2M5tw2qxDkVuqX1l/vJI/SIWuE1GAUbc237b7cCwILdpAaY5t7MUvhY/xgVrqRMNluLTZsAs1SJVhb/xt2BHN2PLfc4uGK/bS2rdu34atmyQg7vR/7ThvIv5V/w15do4uaHJXevPMtrezVLCnMH8LfEZp+nzaNOyOWtN+AXteAiL0iiPdlyqXICFNl9e0Ofts/Dm6Q2WyIv5PI9G/FJFciySZ/mzmn8JKzO+hUX3u8L5i5hl38eUd9zgl3BnAYdk6wx3S39OKPluRrG7TPeHd7pa5jZVrTGl01G/rc6betjvps0nL6dnfuaTaWv7sbSzeytNuxqsNMhtbK9rvK9TR36nYh8OUtLUJ928MUh7u0PZJXjSUZgdjVNdiVPN1KBGHLyOcnFNY4PmTbXCHQ81Pk6Hqaex8YmnHtP42LVxcTAdaPJWp95a18ZO4kr0hqNJGmlsGQ00K5HsyVhSpcpYYc3IgvHvTJBOawuMp9K9mWGHFxnG4HZzRzHHQ2UeczcPZnfBmY5uIp3fHM3dLNZP8gcRkrdjtzuKjhcYpKRbaozPOZr2LdqcvUVvw7lWYZHu9qX2WllG3QGe38vyCo5Lx2XZ7fB2UByyvoJvdR5Ak1J5FdnM5nzuTj1SNb90OfWuPJXWL19WtZhqTjNSPeyl/kY/9dQ2qJ8mWwKqulY9prw8P6inNoUxHZ4cjhYbrkuJv9OvUrfHXE5VS21o9/rN9OE7V9PNq1fTZHff5NUKiHAsbla/mRlqXq0wLQjNo4eiT9TWkubgG088ndYfe1xttZ/GLF5o1125djX/1Hxzbb1K65tKx5pXZ9JF++/UaqeK9Gg0VRveT7ff30k3fvJWSrf3xKQwmefRNeiPW6qKkZtRysem7snNWwPCB55PuGHobKTNS1eUh5dS3V9Pav1povhX3V6qe2tq6z2tF3rGytzyYF9xU1vvKX5dzaHHex+k2x9cTcPdHckeia9vcms6B/VdSqyiqHhOMYtGDsqd8lGGu8JOWigzrUdIM/0e/Vmt/q3uqF/DLJrFxcpV3ihnktDrpG6/TnSFo331dx/upJ2r19PBjZverVHwphQO5aWwLO8sHipLhUk4mvwrD/pKt8KT3led6vbo5zpJQVhY6trIRfljfTVNvW4lpT5axMHeQdp5/4N04/+up/G163DR21p6JyjZKpVpR+HRh9LPduQfnfXISJ324GBfZi08VAfSVPlp5TaW7uU5lZvRctmSD1bnsRvN1YzuptwbegUr5rZuxhV00/CTYY0lQ+Eh3dhkmFq7wtziyV4t3y0ulD/ljnfGH8paqZOsyUSFRTkhpO6nqreeumvbahdSG9sql02VwZrlJWPcSGnBS86KrCvV1uePTdXWX5J61+ucFuo/YRMv90b87N8hdzejY8oupukn56vBApbcEhFzlyIf0Avd7DiLl+CMTnyzu/krdI+nlzWySxqym3iML6fV6VLKE4+v+zcjUTXIYvkLEaAXBXJ5NvBychQXZDQmR+OEoaUUlkrXzXKzoGUuoeDf60LJYwhGxcHrjJGyDNHoG8w/TuZXynRvoHWnZ2badVHMd2rrb9Te6l4OSTGTP9ojsrz+eT5TZyq1PY0wanrq48YD1TP2DAZqoweqe5obUfFMEvGUbmUmm0fZogfFqcsgHfZkgXECS9CMn7QbqbhnLNi9PzNGJ2Q0chv+ebu7z1Rpk7MYZ37cMMsfZem1yn1DgxuR7kt24sP4Rr8KXQ6o8hQF/TvjJH26+bY2TB6P1OUpfwcDFQF9H32BDQkOCbH+IsffHM2InuMoRTysZcOX0wTNylqqo/7cnKSsn1BYI9vfUXkrLvTF5m7y6J88XFNIUjzcv7dF/E9VFybEt9UOPSZua6PdNR4dR/c060tWg1SdJZp2vBK4SRGJhs1jVNo68fe26mZbByjTmnK3csDs7dnaveYc3d6GynZd88BN1S3mIGrn6jdo0tas8Ur9SUPJ8jKbqj1P1banowPVgX3pmvAxYbC2neua/i0OJoF6XepUiUMxo/QrP94kcXN3WdwsHTr86J6kzKN65x7VZ1m4tA9qkfOZPPizf2C/JgdTOywp+A3O63Rs8i+zDUWwmTvxMecMp7mxyMlU/Xi85F8/3kIgwifpmgs5hX5UsVc/OlafeaC16nBf89bhvvhUIMpH2pCNXSoXaL5/Kr/yl3Pb4mowXZI9c50mu5kW7cIsbSDr0mymLv5VbkZDFnmTaZ42c3R3j5jB+TFAl83oTivyiYejuHs+ZeeGD83CnFFmaSgEA5YZwWXid45pGZnRZc5gySlCwCzC84wNFgQsYBb7Q1CcPbHLOCzMgnZc7wknlbMY8cMScjQcHovscpf+HMCyKGfVOACPdTO0P+wNiwwmI+vioS1aVksO+0+uaMuuT9n0MTlion9GjEAfW2hN3E2Qy7N4YW2cFvqprGfnGblBi5DlzqHU34Y867+WZUFaJK62N/1QC21Sie8sPfPA3cMq8kwzuDHT7Rfk/Mo2d1/y1EImWEAyN5ErEnK8luiE4z120w9In2js/OB2ld79kDMv3Gfl1KTRgtGa/Hde+r0/MltGY8oVgEGzu7Zui7hefx1fGi80cBOsBe4Qdf4PvhVqhrb5DjiETdKy6RDgLJW1JWVoG0rcaBAydmwirAwcspgg7ixEnDYYaNKrtkLFmjSNBv/oymApGoulN9cWT3uOdf5Z/HMZxa1gZpqDFWRR8HjBTlsF7GhJQn6JZ1E0dqNnksEtXrZKs9z5swFcioG/0mRrMtWkqx6lfr9KW9v9dPnKZtq+3E2bW7bloTyqlFcpHajjGWndhX0iRd6xISQhks1CT9IJQ8oXdjN7ibPRrAPKdIuZVKmAQsmJNmY1tMB92gRVJuaHFKFPWClPzCp/LXIICyb6Sw6Uh6NpGg7Gaaj0YIaOHzYiLV9MLgqv1AEPaw6kL8dhBnlYgE30zFR45xW/xUy4bTfEWb5lu0tvuaNwb6sFtxLHIps/k7OK31xLOI45/8aPdcbfyGm7te1kooDNTLOfnL9mLKQGxVqcF5HFyn3m0eSh66+pT4Uxww8dsjnrZmgiIt3i73GAStrdFSImt7lelOTiYS64wgdaMbWwstK/0wutwO0W8syjK4tfUe4yT8vx5ael5sNBFbRoi/mV9Xm0+BfVon/iY26OUp9mKHZX8+4zepFaXOYx41tWGWacd7Ow5kkzg2nod1CrcAj5uDglMWeOe4mnNaVZ5TaUbG3XG6f5mF0OeCYMPpoED4fD1Fnrp7V+38YWWreN5fIEP2O9+ZZGSPTl48kkjej0pTMH4jAAVw58HNJVj328NKP5BTZxF6ErP731Oo0tLMY//ViYOazswRcBSCkyMGeV+xJ3dWCzOUe2lYCtBWTzHODNAjysWSiGlntBw4/ZjTP+jEX7EjJD4StRO7acu8HSZAb7XZJ3zwEcHbORYxlHisbh3udhg5eUTWhctnuFhi4K5ao631nfSt31dbESu2nqqy10u11rC1b1s/L21NZdFVC/skvWgWi12kgHWaIr7PHBMA33DtLBrVtpahcUXI5Nn0v7EYH5H+0PChtUY76rwmHAxlZa295OHa1BWL7a5hpzwlqmzlRt0Q9/uxwAqln6ZUgpyWZDG9mENdR8fkQ8dm5isbAtHlkq8nJsLEXE3S4oEKIsvsGVN7mtjrGJuab10VbqrW3ZweuESxo0aIVb95TX5Kvmu92uaMLI5sNKncIWZ5qO9tNw92bav/WhHA+YfNphhx+CcMjB5r0iKd0Uade8GbNvLkJzd/LO/JHv5KfmsY2yfg2z3Gx+q3/jIw+1zusTrkQpWeODQdq7ecvUVHNeeEsY8iA+wpA5hwfdwmUTUem1w1+pjikOYunjCN/FoOjGKDtodkis8uTC5mD/IN1W+Rwo7KR4kMdWhvmgSJ4Sn9NBrm36EyWLlnrZMYexB2nMZqWdMHrZVbbBz7ol16xMx2ZJy3bK1Ki0E+iGTBOYB7qMogD80qgshjYdc1EFMhdejFk3YDGVQ0fDLVu97NssxGxieWkpMDmy1GspdTfsEHZt43HVz8uqn9sqm3XllW+w2+Vh1UHGRGsr5hcdJWlStAuv94QnBtE8D2QvYYE8JhFXF1NyTDAzDlAaasNj6zoDYRYeKSOTKqHIkPK5+IzPxy/i6rq5F5p0X416mZtPW78Wfino5iY++qKmbaMEEpqT6Sj27G5627zAPmfLZmnFh6GwWD4KVrhZycxfQzaz6oH9uc4/P9ZPY6Y9Yix247FGMlN09NCs/aqfsT7HVUd9WtWRXvfVjtXWRKvVF5lSGyRXCdsvY0gO+cfBTN4bqLikPaV/Hap+HahN7qXRYE/r5700GdA21a45LCQXLDpeGsgxWSKaHdkF7bhLedqIB7oxeLEJFj9oc+7AiC27Y7b55w7OVZgKf7HLVOS21EwGIP6MZxj145Fp9ObX3FyDn3KdzvXtOCLX+0/6XfpqLq7Qb1o91nx2xAGs+r2h8pZDGzvktD6v5K+MSJGOHN+38jriYeVwTHezXfSRTpZaPROdsmfvpisFG+2LTeXRSOVMedPO5I39MxdlLS7XDYUpGoXkbsQBu7c/P4gltJkydqlFQD86VklYhvcZR8Pxwl/GoUF5p3o0NJGQgX5DmVpqlgMdeVLkNSz0ceLz8EVg70ptuupqDqP5S1/zQjuIlV0DiO3XTXLfTn1kKjTWGFtXartq21Mukk0Yb6XUztNY7XpKuyYc1QXC5CcDGdQ/rxXEFrPruJU27aptVzwbHsweH5dNPZVOfcUsfXF+5HuKzk9YRjMZhe4yirnhRdefDPKSaTk8Qi5yZMBm8DhlVWS40Xllt/w3ek6/8TGv8nkQ/UZHdYGxl8Pt4cFeOti7rekhFwjZd8U/QmhDpT052e1WwCZTv+5oZoBZ+YMuH85iP/kPY0mj050Plflwb1xnXO5uhmZKYD8mK7ubFRmkU3KsbFyKu2d7Nnt5ZhoZ04qL/eW4mnKKuRVacW/+zG9LJnyi+0FRltFycyX+HE/9NHpR3le2aMgpbi1VaKg2fVHp546q4WuFU1SJ57JyFkui/9wDGkFzKGEcRzkwnFzxt4reBDAXYMvcUuSRDG6mzmV/RZ8p+8+g3LPRDG5x/zD6PMD7Z+qQxnD2gLrMrdT25c6U0zoE06XoZEVvyszkIBU4rW13WiEUXfHKbqYaT0UVFLP0NrlYGtqc4wrrAuEwexNPx4LV0tGUwyHwsLJ7i22WB0JhQd7M4goNFL2gCbfwoJuhhWxv6Ohuppw5cN0b1On2QZ3e+7BOP32/Tjf2mG8t81t8zUiaq/T/+u+U+ZmZDskAAAAASUVORK5CYII=;" vertex="1" parent="1">
          <mxGeometry x="320" y="340" width="1891" height="954" as="geometry" />
        </mxCell>
        <mxCell id="yoGOYHYGS6dNkPqLL8fJ-19" value="" style="rounded=1;whiteSpace=wrap;html=1;fillColor=none;strokeColor=#CC0000;strokeWidth=9;fontColor=#CC0000;" vertex="1" parent="1">
          <mxGeometry x="930" y="416" width="560" height="254" as="geometry" />
        </mxCell>
        <mxCell id="yoGOYHYGS6dNkPqLL8fJ-3" value="" style="rounded=1;whiteSpace=wrap;html=1;fillColor=none;strokeColor=#CC0000;strokeWidth=9;" vertex="1" parent="1">
          <mxGeometry x="320" y="793" width="100" height="100" as="geometry" />
        </mxCell>
        <mxCell id="yoGOYHYGS6dNkPqLL8fJ-4" value="&lt;font size=&quot;1&quot; color=&quot;#cc0000&quot;&gt;&lt;b style=&quot;font-size: 40px;&quot;&gt;Extensions&lt;/b&gt;&lt;/font&gt;" style="text;html=1;align=center;verticalAlign=middle;whiteSpace=wrap;rounded=0;" vertex="1" parent="1">
          <mxGeometry x="70" y="910" width="260" height="90" as="geometry" />
        </mxCell>
        <mxCell id="yoGOYHYGS6dNkPqLL8fJ-5" value="" style="endArrow=classic;html=1;rounded=0;strokeColor=#CC0000;strokeWidth=6;" edge="1" parent="1">
          <mxGeometry width="50" height="50" relative="1" as="geometry">
            <mxPoint x="260" y="920" as="sourcePoint" />
            <mxPoint x="310" y="870" as="targetPoint" />
          </mxGeometry>
        </mxCell>
        <mxCell id="yoGOYHYGS6dNkPqLL8fJ-6" value="" style="rounded=1;whiteSpace=wrap;html=1;fillColor=none;strokeColor=#CC0000;strokeWidth=9;" vertex="1" parent="1">
          <mxGeometry x="320" y="410" width="100" height="100" as="geometry" />
        </mxCell>
        <mxCell id="yoGOYHYGS6dNkPqLL8fJ-7" value="&lt;font size=&quot;1&quot; color=&quot;#cc0000&quot;&gt;&lt;b style=&quot;font-size: 40px;&quot;&gt;File explorer&lt;br&gt;&lt;/b&gt;&lt;/font&gt;" style="text;html=1;align=center;verticalAlign=middle;whiteSpace=wrap;rounded=0;" vertex="1" parent="1">
          <mxGeometry x="70" y="527" width="260" height="90" as="geometry" />
        </mxCell>
        <mxCell id="yoGOYHYGS6dNkPqLL8fJ-8" value="" style="endArrow=classic;html=1;rounded=0;strokeColor=#CC0000;strokeWidth=6;" edge="1" parent="1">
          <mxGeometry width="50" height="50" relative="1" as="geometry">
            <mxPoint x="260" y="537" as="sourcePoint" />
            <mxPoint x="310" y="487" as="targetPoint" />
          </mxGeometry>
        </mxCell>
        <mxCell id="yoGOYHYGS6dNkPqLL8fJ-9" value="" style="rounded=1;whiteSpace=wrap;html=1;fillColor=none;strokeColor=#CC0000;strokeWidth=9;" vertex="1" parent="1">
          <mxGeometry x="379" y="346" width="85" height="50" as="geometry" />
        </mxCell>
        <mxCell id="yoGOYHYGS6dNkPqLL8fJ-10" value="&lt;font size=&quot;1&quot; color=&quot;#cc0000&quot;&gt;&lt;b style=&quot;font-size: 40px;&quot;&gt;Create/save files&lt;br&gt;&lt;/b&gt;&lt;/font&gt;" style="text;html=1;align=center;verticalAlign=middle;whiteSpace=wrap;rounded=0;" vertex="1" parent="1">
          <mxGeometry x="470" y="265" width="410" height="90" as="geometry" />
        </mxCell>
        <mxCell id="yoGOYHYGS6dNkPqLL8fJ-12" value="" style="endArrow=classic;html=1;rounded=0;strokeColor=#CC0000;strokeWidth=6;" edge="1" parent="1">
          <mxGeometry width="50" height="50" relative="1" as="geometry">
            <mxPoint x="510" y="310" as="sourcePoint" />
            <mxPoint x="453" y="339" as="targetPoint" />
          </mxGeometry>
        </mxCell>
        <mxCell id="yoGOYHYGS6dNkPqLL8fJ-13" value="" style="rounded=1;whiteSpace=wrap;html=1;fillColor=none;strokeColor=#CC0000;strokeWidth=9;" vertex="1" parent="1">
          <mxGeometry x="1859" y="1247" width="280" height="50" as="geometry" />
        </mxCell>
        <mxCell id="yoGOYHYGS6dNkPqLL8fJ-14" value="&lt;font size=&quot;1&quot; color=&quot;#cc0000&quot;&gt;&lt;b style=&quot;font-size: 40px;&quot;&gt;Conda environment/Python Interpreter&lt;br&gt;&lt;/b&gt;&lt;/font&gt;" style="text;html=1;align=center;verticalAlign=middle;whiteSpace=wrap;rounded=0;" vertex="1" parent="1">
          <mxGeometry x="1017" y="1287" width="781" height="90" as="geometry" />
        </mxCell>
        <mxCell id="yoGOYHYGS6dNkPqLL8fJ-15" value="" style="endArrow=classic;html=1;rounded=0;strokeColor=#CC0000;strokeWidth=6;" edge="1" parent="1">
          <mxGeometry width="50" height="50" relative="1" as="geometry">
            <mxPoint x="1785" y="1331" as="sourcePoint" />
            <mxPoint x="1854" y="1301" as="targetPoint" />
          </mxGeometry>
        </mxCell>
        <mxCell id="yoGOYHYGS6dNkPqLL8fJ-16" value="" style="rounded=1;whiteSpace=wrap;html=1;fillColor=none;strokeColor=#CC0000;strokeWidth=9;" vertex="1" parent="1">
          <mxGeometry x="2004" y="416" width="60" height="60" as="geometry" />
        </mxCell>
        <mxCell id="yoGOYHYGS6dNkPqLL8fJ-17" value="&lt;font size=&quot;1&quot; color=&quot;#cc0000&quot;&gt;&lt;b style=&quot;font-size: 40px;&quot;&gt;Run the Python script&lt;br&gt;&lt;/b&gt;&lt;/font&gt;" style="text;html=1;align=center;verticalAlign=middle;whiteSpace=wrap;rounded=0;" vertex="1" parent="1">
          <mxGeometry x="1495" y="290" width="450" height="60" as="geometry" />
        </mxCell>
        <mxCell id="yoGOYHYGS6dNkPqLL8fJ-18" value="" style="endArrow=classic;html=1;rounded=0;strokeColor=#CC0000;strokeWidth=6;" edge="1" parent="1">
          <mxGeometry width="50" height="50" relative="1" as="geometry">
            <mxPoint x="1940" y="320" as="sourcePoint" />
            <mxPoint x="2010" y="405" as="targetPoint" />
          </mxGeometry>
        </mxCell>
        <mxCell id="yoGOYHYGS6dNkPqLL8fJ-20" value="&lt;font size=&quot;1&quot;&gt;&lt;b style=&quot;font-size: 40px;&quot;&gt;Python script&lt;/b&gt;&lt;/font&gt;&lt;font size=&quot;1&quot;&gt;&lt;b style=&quot;font-size: 40px;&quot;&gt;&lt;br&gt;&lt;/b&gt;&lt;/font&gt;" style="text;html=1;align=center;verticalAlign=middle;whiteSpace=wrap;rounded=0;fontColor=#CC0000;" vertex="1" parent="1">
          <mxGeometry x="1560" y="620" width="360" height="90" as="geometry" />
        </mxCell>
        <mxCell id="yoGOYHYGS6dNkPqLL8fJ-21" value="" style="endArrow=classic;html=1;rounded=0;strokeColor=#CC0000;strokeWidth=6;" edge="1" parent="1">
          <mxGeometry width="50" height="50" relative="1" as="geometry">
            <mxPoint x="1590" y="664" as="sourcePoint" />
            <mxPoint x="1500" y="640" as="targetPoint" />
          </mxGeometry>
        </mxCell>
        <mxCell id="yoGOYHYGS6dNkPqLL8fJ-22" value="" style="rounded=1;whiteSpace=wrap;html=1;fillColor=none;strokeColor=#CC0000;strokeWidth=9;fontColor=#CC0000;" vertex="1" parent="1">
          <mxGeometry x="940" y="861" width="790" height="249" as="geometry" />
        </mxCell>
        <mxCell id="yoGOYHYGS6dNkPqLL8fJ-23" value="&lt;font size=&quot;1&quot;&gt;&lt;b style=&quot;font-size: 40px;&quot;&gt;Command prompt)&lt;br&gt;&lt;/b&gt;&lt;/font&gt;" style="text;html=1;align=center;verticalAlign=middle;whiteSpace=wrap;rounded=0;fontColor=#CC0000;" vertex="1" parent="1">
          <mxGeometry x="1748" y="1118" width="360" height="90" as="geometry" />
        </mxCell>
        <mxCell id="yoGOYHYGS6dNkPqLL8fJ-24" value="" style="endArrow=classic;html=1;rounded=0;strokeColor=#CC0000;strokeWidth=6;" edge="1" parent="1">
          <mxGeometry width="50" height="50" relative="1" as="geometry">
            <mxPoint x="1830" y="1130" as="sourcePoint" />
            <mxPoint x="1740" y="1080" as="targetPoint" />
          </mxGeometry>
        </mxCell>
      </root>
    </mxGraphModel>
  </diagram>
</mxfile>
